<svg version="1.1" id="Layer_1" xmlns="http://www.w3.org/2000/svg" xmlns:xlink="http://www.w3.org/1999/xlink" x="0px" y="0px"
	 width="100%" viewBox="0 0 1305 230" enable-background="new 0 0 1305 230" xml:space="preserve">
<path fill="#010101" opacity="1.000000" stroke="none" 
	d="
M1.000000,93.000000 
	C1.000000,62.337616 1.000000,31.675232 1.000000,1.009636 
	C435.934967,1.006424 870.869934,1.006424 1305.902466,1.006424 
	C1305.902466,77.590820 1305.902466,154.181793 1305.902466,230.886383 
	C871.000000,230.886383 436.000000,230.886383 1.000000,230.886383 
	C1.000000,199.580521 1.000000,168.251511 1.454980,136.340179 
	C127.282837,135.757843 252.655716,135.757843 378.118561,135.757843 
	C378.118561,121.127983 378.118561,107.198944 378.118561,93.000000 
	C252.227844,93.000000 126.613922,93.000000 1.000000,93.000000 
M558.670410,180.309326 
	C544.134705,138.319000 529.509155,96.359253 515.190063,54.295189 
	C513.605469,49.640316 511.466309,48.212147 506.756195,48.457863 
	C499.111450,48.856674 491.421326,48.789108 483.769104,48.469803 
	C480.009766,48.312939 478.266327,49.396278 477.014526,53.078411 
	C466.414093,84.259323 455.592407,115.365059 444.826660,146.489746 
	C440.653229,158.555527 436.452728,170.611954 432.033142,183.339020 
	C440.475433,183.339020 448.257935,183.186157 456.029053,183.417282 
	C458.970612,183.504776 460.069763,182.349045 460.869354,179.753525 
	C463.367706,171.643936 465.964539,163.557373 468.862610,155.585266 
	C469.357880,154.222946 471.509460,152.587357 472.917542,152.566879 
	C487.912231,152.348770 502.912811,152.335510 517.906799,152.576981 
	C519.433716,152.601578 521.759521,154.347610 522.299011,155.815216 
	C525.228027,163.782990 527.613037,171.949417 530.446045,179.955154 
	C530.926086,181.311569 532.638916,183.138245 533.842346,183.184586 
	C541.496582,183.479416 549.168884,183.393890 556.831360,183.240952 
	C557.550598,183.226593 558.243225,181.875793 558.670410,180.309326 
M609.979736,87.496651 
	C608.120117,89.947945 606.260437,92.399246 604.400818,94.850540 
	C603.679382,94.399139 602.958008,93.947739 602.236572,93.496330 
	C602.236572,76.003120 602.236572,58.509899 602.236572,40.980713 
	C593.287842,40.980713 585.155151,40.980713 576.739502,40.980713 
	C576.739502,88.394783 576.739502,135.628387 576.739502,183.105804 
	C585.190125,183.105804 593.455505,183.105804 601.932312,183.105804 
	C602.156311,179.048096 602.372559,175.131042 602.578125,171.408081 
	C608.083984,175.390945 612.557495,179.870636 617.953674,182.306259 
	C637.077209,190.937836 660.023621,182.543900 668.640015,163.311356 
	C677.801636,142.861923 677.769104,121.631638 668.621216,101.239174 
	C658.648926,79.009102 630.222412,72.498634 609.979736,87.496651 
M1128.453125,160.263931 
	C1102.008423,167.622330 1087.213135,156.489410 1087.174927,129.203415 
	C1087.174438,128.870270 1087.174438,128.537109 1087.174438,128.203964 
	C1087.174316,103.550934 1087.174316,78.897911 1087.174316,54.244881 
	C1087.174316,52.484089 1087.174316,50.723301 1087.174316,48.870674 
	C1078.104858,48.870674 1069.683838,48.870674 1060.935547,48.870674 
	C1060.935547,50.658157 1060.935547,52.140270 1060.935547,53.622387 
	C1060.936401,79.441437 1060.893311,105.260628 1060.978394,131.079391 
	C1060.993774,135.728928 1061.228394,140.421051 1061.890259,145.017441 
	C1064.439941,162.726730 1073.011963,176.047043 1090.721069,181.659195 
	C1107.346069,186.927765 1124.264526,186.869492 1140.915161,181.706451 
	C1154.988281,177.342621 1164.319824,167.728165 1167.926636,153.419037 
	C1169.697266,146.395020 1170.660522,138.995544 1170.750366,131.750610 
	C1171.077393,105.435898 1170.883545,79.114670 1170.872559,52.795906 
	C1170.871948,51.519882 1170.742188,50.243916 1170.672241,48.960976 
	C1161.810547,48.960976 1153.263672,48.960976 1144.786865,48.960976 
	C1144.670776,49.684792 1144.572388,50.012779 1144.572144,50.340832 
	C1144.558105,70.329704 1144.594482,90.318718 1144.527100,110.307388 
	C1144.495117,119.797668 1144.660034,129.313980 1144.018433,138.769852 
	C1143.353760,148.567078 1138.887451,156.239624 1128.453125,160.263931 
M693.101685,132.501846 
	C693.137390,134.333496 693.117676,136.168152 693.217285,137.996323 
	C694.509827,161.709427 707.519348,178.825180 728.785889,183.552078 
	C735.661377,185.080292 743.045349,185.410217 750.090698,184.879639 
	C770.770447,183.322266 785.886108,170.615280 791.130920,151.029068 
	C794.336243,139.059204 794.465820,126.926018 791.321167,114.942192 
	C786.426575,96.289230 774.552917,84.439491 755.461304,80.993706 
	C748.368958,79.713631 740.805542,79.606445 733.636353,80.464005 
	C713.922058,82.822159 699.692200,95.908096 695.163513,115.241539 
	C693.921448,120.544067 693.764160,126.100700 693.101685,132.501846 
M905.778748,179.139191 
	C905.778748,146.734344 905.778748,114.329506 905.778748,81.820305 
	C896.817810,81.820305 888.567078,81.820305 880.017456,81.820305 
	C880.017456,83.950340 880.018188,85.770760 880.017273,87.591187 
	C880.009216,103.917725 880.312683,120.253624 879.822754,136.565689 
	C879.652649,142.228119 878.377075,148.213715 876.084229,153.375488 
	C872.311157,161.869522 862.112183,165.496765 852.131531,163.093353 
	C844.450134,161.243637 841.151428,156.037933 841.121399,145.321030 
	C841.067139,125.995842 841.104736,106.670387 841.103882,87.345047 
	C841.103821,85.550827 841.103821,83.756607 841.103821,81.834366 
	C832.406250,81.834366 824.170166,81.834366 815.414856,81.834366 
	C815.414856,87.106544 815.378845,92.062782 815.421204,97.018364 
	C815.591736,117.002312 815.165894,137.017532 816.177612,156.959457 
	C816.924988,171.691086 825.109131,180.917389 837.408813,184.024551 
	C853.911377,188.193451 867.942017,183.974091 876.472473,172.285721 
	C877.494690,170.885162 878.553772,169.511581 879.595825,168.125504 
	C879.989685,168.231049 880.383606,168.336594 880.777466,168.442154 
	C880.777466,173.284180 880.777466,178.126221 880.777466,183.337357 
	C888.784180,183.337357 896.096130,183.441879 903.396057,183.193222 
	C904.224854,183.164993 904.986023,181.151733 905.778748,179.139191 
M1207.244019,87.689651 
	C1189.383911,103.319565 1193.342773,128.205734 1215.226562,137.288300 
	C1219.042969,138.872284 1223.119141,139.855957 1227.114258,140.978409 
	C1232.554321,142.506836 1238.118042,143.644272 1243.466553,145.434052 
	C1247.950684,146.934586 1250.671509,150.196609 1250.215088,155.301376 
	C1249.758545,160.405960 1246.452637,162.941589 1241.831909,163.889435 
	C1232.179565,165.869370 1223.307861,163.891663 1215.366699,158.048599 
	C1212.390747,155.858963 1209.070923,151.211304 1206.785034,151.709366 
	C1203.524414,152.419754 1201.070435,156.834488 1198.273804,159.668716 
	C1198.040039,159.905655 1197.818970,160.155182 1197.592163,160.399063 
	C1191.321411,167.142807 1191.360107,167.899719 1198.323120,173.934814 
	C1198.951538,174.479431 1199.583374,175.039597 1200.285767,175.476547 
	C1219.024780,187.135056 1238.806152,189.000305 1258.895508,180.084930 
	C1270.906128,174.754807 1275.737427,164.170166 1275.297852,151.124908 
	C1274.870728,138.441864 1268.200806,130.402664 1256.748657,125.923645 
	C1253.666504,124.718102 1250.462036,123.781738 1247.255005,122.947479 
	C1240.666870,121.233734 1233.984863,119.861427 1227.446167,117.984039 
	C1222.863892,116.668411 1219.990234,113.565529 1220.413208,108.412285 
	C1220.827881,103.361816 1224.405518,101.265038 1228.766357,100.517609 
	C1238.370728,98.871460 1247.384277,100.097275 1254.788940,107.154915 
	C1256.588867,108.870293 1258.050903,109.908867 1260.138672,107.563324 
	C1264.089966,103.124146 1268.163452,98.793610 1272.124268,94.485245 
	C1259.793091,77.855080 1227.513428,74.393372 1207.244019,87.689651 
M938.860291,70.544830 
	C938.860291,73.996353 938.860291,77.447876 938.860291,81.548988 
	C933.454285,81.548988 928.581116,81.548988 923.666260,81.548988 
	C923.666260,88.645515 923.666260,95.076057 923.666260,102.105484 
	C928.814941,102.105484 933.692505,102.105484 938.860413,102.105484 
	C938.860413,116.838051 938.767090,130.970352 938.908264,145.100327 
	C938.961365,150.409561 939.158936,155.777908 940.002686,161.004364 
	C941.238098,168.657379 944.879089,175.129791 951.407043,179.677216 
	C962.094543,187.122238 984.117676,187.248535 994.781921,179.854019 
	C995.731506,179.195602 997.046082,177.641556 996.822937,176.936554 
	C994.900818,170.863770 992.664062,164.890564 990.410095,158.576492 
	C988.309692,159.583099 986.996033,160.238800 985.661194,160.848251 
	C973.383972,166.453659 964.763000,161.083267 964.586243,147.656021 
	C964.494202,140.663223 964.564880,133.668259 964.563904,126.674263 
	C964.562683,118.574951 964.563538,110.475639 964.563538,101.991241 
	C974.398071,101.991241 983.666687,101.991241 993.204529,101.991241 
	C993.204529,95.026840 993.204529,88.458519 993.204529,81.252777 
	C983.547791,81.252777 974.169250,81.252777 964.258911,81.252777 
	C964.258911,73.077805 964.258911,65.533829 964.258911,57.561836 
	C955.489014,58.996532 947.337402,60.330078 938.860291,61.716869 
	C938.860291,64.630981 938.860291,67.103722 938.860291,70.544830 
z"/>
<path fill="#FCFCFC" opacity="1.000000" stroke="none" 
	d="
M1.000000,93.468658 
	C126.613922,93.000000 252.227844,93.000000 378.118561,93.000000 
	C378.118561,107.198944 378.118561,121.127983 378.118561,135.757843 
	C252.655716,135.757843 127.282837,135.757843 1.454980,135.878922 
	C1.000000,121.979103 1.000000,107.958214 1.000000,93.468658 
z"/>
<path fill="#FCFCFC" opacity="1.000000" stroke="none" 
	d="
M558.809326,180.727402 
	C558.243225,181.875793 557.550598,183.226593 556.831360,183.240952 
	C549.168884,183.393890 541.496582,183.479416 533.842346,183.184586 
	C532.638916,183.138245 530.926086,181.311569 530.446045,179.955154 
	C527.613037,171.949417 525.228027,163.782990 522.299011,155.815216 
	C521.759521,154.347610 519.433716,152.601578 517.906799,152.576981 
	C502.912811,152.335510 487.912231,152.348770 472.917542,152.566879 
	C471.509460,152.587357 469.357880,154.222946 468.862610,155.585266 
	C465.964539,163.557373 463.367706,171.643936 460.869354,179.753525 
	C460.069763,182.349045 458.970612,183.504776 456.029053,183.417282 
	C448.257935,183.186157 440.475433,183.339020 432.033142,183.339020 
	C436.452728,170.611954 440.653229,158.555527 444.826660,146.489746 
	C455.592407,115.365059 466.414093,84.259323 477.014526,53.078411 
	C478.266327,49.396278 480.009766,48.312939 483.769104,48.469803 
	C491.421326,48.789108 499.111450,48.856674 506.756195,48.457863 
	C511.466309,48.212147 513.605469,49.640316 515.190063,54.295189 
	C529.509155,96.359253 544.134705,138.319000 558.809326,180.727402 
M482.945862,111.445473 
	C481.018524,117.431702 479.091156,123.417938 477.105835,129.584259 
	C489.498444,129.584259 501.466125,129.584259 513.883606,129.584259 
	C507.972290,111.565430 502.213348,94.011230 496.454407,76.457039 
	C495.779877,76.456863 495.105347,76.456696 494.430817,76.456520 
	C490.683807,87.866165 486.936829,99.275803 482.945862,111.445473 
z"/>
<path fill="#FAFAFA" opacity="1.000000" stroke="none" 
	d="
M610.260559,87.269333 
	C630.222412,72.498634 658.648926,79.009102 668.621216,101.239174 
	C677.769104,121.631638 677.801636,142.861923 668.640015,163.311356 
	C660.023621,182.543900 637.077209,190.937836 617.953674,182.306259 
	C612.557495,179.870636 608.083984,175.390945 602.578125,171.408081 
	C602.372559,175.131042 602.156311,179.048096 601.932312,183.105804 
	C593.455505,183.105804 585.190125,183.105804 576.739502,183.105804 
	C576.739502,135.628387 576.739502,88.394783 576.739502,40.980713 
	C585.155151,40.980713 593.287842,40.980713 602.236572,40.980713 
	C602.236572,58.509899 602.236572,76.003120 602.236572,93.496330 
	C602.958008,93.947739 603.679382,94.399139 604.400818,94.850540 
	C606.260437,92.399246 608.120117,89.947945 610.260559,87.269333 
M648.202026,127.681114 
	C647.604309,124.072937 647.348755,120.366257 646.343689,116.875366 
	C643.520996,107.071091 636.924683,102.068367 626.628540,101.465439 
	C616.904175,100.895996 608.603882,105.619186 605.140198,114.598869 
	C600.531677,126.546494 600.516663,138.799484 605.219604,150.722855 
	C608.723083,159.605392 617.046631,164.208237 626.880127,163.633057 
	C636.771423,163.054474 643.814453,158.051376 646.162354,148.400116 
	C647.715088,142.017654 647.629517,135.236664 648.202026,127.681114 
z"/>
<path fill="#FCFCFC" opacity="1.000000" stroke="none" 
	d="
M1128.822021,160.125580 
	C1138.887451,156.239624 1143.353760,148.567078 1144.018433,138.769852 
	C1144.660034,129.313980 1144.495117,119.797668 1144.527100,110.307388 
	C1144.594482,90.318718 1144.558105,70.329704 1144.572144,50.340832 
	C1144.572388,50.012779 1144.670776,49.684792 1144.786865,48.960976 
	C1153.263672,48.960976 1161.810547,48.960976 1170.672241,48.960976 
	C1170.742188,50.243916 1170.871948,51.519882 1170.872559,52.795906 
	C1170.883545,79.114670 1171.077393,105.435898 1170.750366,131.750610 
	C1170.660522,138.995544 1169.697266,146.395020 1167.926636,153.419037 
	C1164.319824,167.728165 1154.988281,177.342621 1140.915161,181.706451 
	C1124.264526,186.869492 1107.346069,186.927765 1090.721069,181.659195 
	C1073.011963,176.047043 1064.439941,162.726730 1061.890259,145.017441 
	C1061.228394,140.421051 1060.993774,135.728928 1060.978394,131.079391 
	C1060.893311,105.260628 1060.936401,79.441437 1060.935547,53.622387 
	C1060.935547,52.140270 1060.935547,50.658157 1060.935547,48.870674 
	C1069.683838,48.870674 1078.104858,48.870674 1087.174316,48.870674 
	C1087.174316,50.723301 1087.174316,52.484089 1087.174316,54.244881 
	C1087.174316,78.897911 1087.174316,103.550934 1087.174438,128.203964 
	C1087.174438,128.537109 1087.174438,128.870270 1087.174927,129.203415 
	C1087.213135,156.489410 1102.008423,167.622330 1128.822021,160.125580 
z"/>
<path fill="#FBFBFB" opacity="1.000000" stroke="none" 
	d="
M693.105347,132.021286 
	C693.764160,126.100700 693.921448,120.544067 695.163513,115.241539 
	C699.692200,95.908096 713.922058,82.822159 733.636353,80.464005 
	C740.805542,79.606445 748.368958,79.713631 755.461304,80.993706 
	C774.552917,84.439491 786.426575,96.289230 791.321167,114.942192 
	C794.465820,126.926018 794.336243,139.059204 791.130920,151.029068 
	C785.886108,170.615280 770.770447,183.322266 750.090698,184.879639 
	C743.045349,185.410217 735.661377,185.080292 728.785889,183.552078 
	C707.519348,178.825180 694.509827,161.709427 693.217285,137.996323 
	C693.117676,136.168152 693.137390,134.333496 693.105347,132.021286 
M720.043152,123.941521 
	C720.640015,132.173233 720.227539,140.641098 722.084595,148.577942 
	C724.502869,158.913193 732.452881,163.726761 743.420959,163.664841 
	C754.295349,163.603455 761.730225,158.462555 764.796143,148.322952 
	C767.898865,138.061478 767.919189,127.616692 764.991882,117.312637 
	C762.022339,106.859650 754.669556,101.587479 743.552063,101.413818 
	C732.465149,101.240631 725.157166,106.359200 721.747803,116.781052 
	C721.078918,118.825562 720.676575,120.957253 720.043152,123.941521 
z"/>
<path fill="#FAFAFA" opacity="1.000000" stroke="none" 
	d="
M905.778687,179.599060 
	C904.986023,181.151733 904.224854,183.164993 903.396057,183.193222 
	C896.096130,183.441879 888.784180,183.337357 880.777466,183.337357 
	C880.777466,178.126221 880.777466,173.284180 880.777466,168.442154 
	C880.383606,168.336594 879.989685,168.231049 879.595825,168.125504 
	C878.553772,169.511581 877.494690,170.885162 876.472473,172.285721 
	C867.942017,183.974091 853.911377,188.193451 837.408813,184.024551 
	C825.109131,180.917389 816.924988,171.691086 816.177612,156.959457 
	C815.165894,137.017532 815.591736,117.002312 815.421204,97.018364 
	C815.378845,92.062782 815.414856,87.106544 815.414856,81.834366 
	C824.170166,81.834366 832.406250,81.834366 841.103821,81.834366 
	C841.103821,83.756607 841.103821,85.550827 841.103882,87.345047 
	C841.104736,106.670387 841.067139,125.995842 841.121399,145.321030 
	C841.151428,156.037933 844.450134,161.243637 852.131531,163.093353 
	C862.112183,165.496765 872.311157,161.869522 876.084229,153.375488 
	C878.377075,148.213715 879.652649,142.228119 879.822754,136.565689 
	C880.312683,120.253624 880.009216,103.917725 880.017273,87.591187 
	C880.018188,85.770760 880.017456,83.950340 880.017456,81.820305 
	C888.567078,81.820305 896.817810,81.820305 905.778748,81.820305 
	C905.778748,114.329506 905.778748,146.734344 905.778687,179.599060 
z"/>
<path fill="#FAFAFA" opacity="1.000000" stroke="none" 
	d="
M1207.530762,87.473267 
	C1227.513428,74.393372 1259.793091,77.855080 1272.124268,94.485245 
	C1268.163452,98.793610 1264.089966,103.124146 1260.138672,107.563324 
	C1258.050903,109.908867 1256.588867,108.870293 1254.788940,107.154915 
	C1247.384277,100.097275 1238.370728,98.871460 1228.766357,100.517609 
	C1224.405518,101.265038 1220.827881,103.361816 1220.413208,108.412285 
	C1219.990234,113.565529 1222.863892,116.668411 1227.446167,117.984039 
	C1233.984863,119.861427 1240.666870,121.233734 1247.255005,122.947479 
	C1250.462036,123.781738 1253.666504,124.718102 1256.748657,125.923645 
	C1268.200806,130.402664 1274.870728,138.441864 1275.297852,151.124908 
	C1275.737427,164.170166 1270.906128,174.754807 1258.895508,180.084930 
	C1238.806152,189.000305 1219.024780,187.135056 1200.285767,175.476547 
	C1199.583374,175.039597 1198.951538,174.479431 1198.323120,173.934814 
	C1191.360107,167.899719 1191.321411,167.142807 1197.592163,160.399063 
	C1197.818970,160.155182 1198.040039,159.905655 1198.273804,159.668716 
	C1201.070435,156.834488 1203.524414,152.419754 1206.785034,151.709366 
	C1209.070923,151.211304 1212.390747,155.858963 1215.366699,158.048599 
	C1223.307861,163.891663 1232.179565,165.869370 1241.831909,163.889435 
	C1246.452637,162.941589 1249.758545,160.405960 1250.215088,155.301376 
	C1250.671509,150.196609 1247.950684,146.934586 1243.466553,145.434052 
	C1238.118042,143.644272 1232.554321,142.506836 1227.114258,140.978409 
	C1223.119141,139.855957 1219.042969,138.872284 1215.226562,137.288300 
	C1193.342773,128.205734 1189.383911,103.319565 1207.530762,87.473267 
z"/>
<path fill="#F8F8F8" opacity="1.000000" stroke="none" 
	d="
M938.860291,70.060646 
	C938.860291,67.103722 938.860291,64.630981 938.860291,61.716869 
	C947.337402,60.330078 955.489014,58.996532 964.258911,57.561836 
	C964.258911,65.533829 964.258911,73.077805 964.258911,81.252777 
	C974.169250,81.252777 983.547791,81.252777 993.204529,81.252777 
	C993.204529,88.458519 993.204529,95.026840 993.204529,101.991241 
	C983.666687,101.991241 974.398071,101.991241 964.563538,101.991241 
	C964.563538,110.475639 964.562683,118.574951 964.563904,126.674263 
	C964.564880,133.668259 964.494202,140.663223 964.586243,147.656021 
	C964.763000,161.083267 973.383972,166.453659 985.661194,160.848251 
	C986.996033,160.238800 988.309692,159.583099 990.410095,158.576492 
	C992.664062,164.890564 994.900818,170.863770 996.822937,176.936554 
	C997.046082,177.641556 995.731506,179.195602 994.781921,179.854019 
	C984.117676,187.248535 962.094543,187.122238 951.407043,179.677216 
	C944.879089,175.129791 941.238098,168.657379 940.002686,161.004364 
	C939.158936,155.777908 938.961365,150.409561 938.908264,145.100327 
	C938.767090,130.970352 938.860413,116.838051 938.860413,102.105484 
	C933.692505,102.105484 928.814941,102.105484 923.666260,102.105484 
	C923.666260,95.076057 923.666260,88.645515 923.666260,81.548988 
	C928.581116,81.548988 933.454285,81.548988 938.860291,81.548988 
	C938.860291,77.447876 938.860291,73.996353 938.860291,70.060646 
z"/>
<path fill="#070707" opacity="1.000000" stroke="none" 
	d="
M483.067871,111.065460 
	C486.936829,99.275803 490.683807,87.866165 494.430817,76.456520 
	C495.105347,76.456696 495.779877,76.456863 496.454407,76.457039 
	C502.213348,94.011230 507.972290,111.565430 513.883606,129.584259 
	C501.466125,129.584259 489.498444,129.584259 477.105835,129.584259 
	C479.091156,123.417938 481.018524,117.431702 483.067871,111.065460 
z"/>
<path fill="#040404" opacity="1.000000" stroke="none" 
	d="
M648.239746,128.157608 
	C647.629517,135.236664 647.715088,142.017654 646.162354,148.400116 
	C643.814453,158.051376 636.771423,163.054474 626.880127,163.633057 
	C617.046631,164.208237 608.723083,159.605392 605.219604,150.722855 
	C600.516663,138.799484 600.531677,126.546494 605.140198,114.598869 
	C608.603882,105.619186 616.904175,100.895996 626.628540,101.465439 
	C636.924683,102.068367 643.520996,107.071091 646.343689,116.875366 
	C647.348755,120.366257 647.604309,124.072937 648.239746,128.157608 
z"/>
<path fill="#040404" opacity="1.000000" stroke="none" 
	d="
M720.097229,123.495132 
	C720.676575,120.957253 721.078918,118.825562 721.747803,116.781052 
	C725.157166,106.359200 732.465149,101.240631 743.552063,101.413818 
	C754.669556,101.587479 762.022339,106.859650 764.991882,117.312637 
	C767.919189,127.616692 767.898865,138.061478 764.796143,148.322952 
	C761.730225,158.462555 754.295349,163.603455 743.420959,163.664841 
	C732.452881,163.726761 724.502869,158.913193 722.084595,148.577942 
	C720.227539,140.641098 720.640015,132.173233 720.097229,123.495132 
z"/>
</svg>