<svg xmlns="http://www.w3.org/2000/svg" xmlns:xlink="http://www.w3.org/1999/xlink" width="500" zoomAndPan="magnify" viewBox="0 0 375 374.999991" height="500" preserveAspectRatio="xMidYMid meet" version="1.0"><defs><g/><clipPath id="59953e5544"><path d="M 64.441406 19 L 310.441406 19 L 310.441406 246 L 64.441406 246 Z M 64.441406 19 " clip-rule="nonzero"/></clipPath><clipPath id="87d5e6b4af"><path d="M 64.441406 95 L 310.441406 95 L 310.441406 246 L 64.441406 246 Z M 64.441406 95 " clip-rule="nonzero"/></clipPath></defs><g clip-path="url(#59953e5544)"><path fill="#ffa000" d="M 297.070312 83.425781 L 209.367188 26.035156 C 207.761719 24.933594 206.085938 23.957031 204.335938 23.109375 C 202.582031 22.257812 200.78125 21.546875 198.921875 20.96875 C 197.0625 20.390625 195.171875 19.957031 193.246094 19.664062 C 191.324219 19.371094 189.390625 19.226562 187.441406 19.226562 C 185.496094 19.226562 183.5625 19.371094 181.636719 19.664062 C 179.714844 19.957031 177.824219 20.390625 175.964844 20.96875 C 174.105469 21.546875 172.300781 22.257812 170.550781 23.109375 C 168.800781 23.957031 167.125 24.933594 165.519531 26.035156 L 77.816406 83.425781 C 75.738281 85.015625 73.871094 86.816406 72.210938 88.835938 C 70.550781 90.855469 69.140625 93.039062 67.984375 95.382812 C 66.824219 97.726562 65.949219 100.171875 65.355469 102.71875 C 64.765625 105.265625 64.46875 107.84375 64.46875 110.457031 L 64.46875 211.828125 C 64.46875 212.945312 64.523438 214.058594 64.632812 215.171875 C 64.742188 216.285156 64.90625 217.386719 65.125 218.484375 C 65.34375 219.578125 65.613281 220.664062 65.9375 221.730469 C 66.261719 222.800781 66.640625 223.851562 67.066406 224.882812 C 67.496094 225.917969 67.972656 226.925781 68.5 227.910156 C 69.023438 228.898438 69.597656 229.855469 70.21875 230.78125 C 70.839844 231.710938 71.503906 232.609375 72.214844 233.472656 C 72.921875 234.335938 73.671875 235.164062 74.460938 235.953125 C 75.253906 236.742188 76.078125 237.492188 76.945312 238.203125 C 77.808594 238.910156 78.703125 239.574219 79.632812 240.195312 C 80.5625 240.816406 81.519531 241.390625 82.503906 241.917969 C 83.492188 242.445312 84.5 242.921875 85.53125 243.351562 C 86.566406 243.777344 87.617188 244.152344 88.683594 244.476562 C 89.753906 244.800781 90.835938 245.074219 91.933594 245.292969 C 93.027344 245.507812 94.132812 245.671875 95.246094 245.78125 C 96.355469 245.890625 97.472656 245.945312 98.589844 245.945312 L 276.296875 245.945312 C 277.414062 245.945312 278.527344 245.890625 279.640625 245.78125 C 280.753906 245.671875 281.855469 245.507812 282.953125 245.292969 C 284.050781 245.074219 285.132812 244.800781 286.199219 244.476562 C 287.269531 244.152344 288.320312 243.777344 289.355469 243.351562 C 290.386719 242.921875 291.394531 242.445312 292.378906 241.917969 C 293.367188 241.390625 294.324219 240.816406 295.253906 240.195312 C 296.179688 239.574219 297.078125 238.910156 297.941406 238.203125 C 298.804688 237.492188 299.632812 236.742188 300.421875 235.953125 C 301.214844 235.164062 301.960938 234.335938 302.671875 233.472656 C 303.378906 232.609375 304.046875 231.710938 304.667969 230.78125 C 305.285156 229.855469 305.859375 228.898438 306.386719 227.910156 C 306.914062 226.925781 307.390625 225.917969 307.820312 224.882812 C 308.246094 223.851562 308.621094 222.800781 308.945312 221.730469 C 309.273438 220.664062 309.542969 219.578125 309.761719 218.484375 C 309.980469 217.386719 310.140625 216.285156 310.253906 215.171875 C 310.363281 214.058594 310.417969 212.945312 310.417969 211.828125 L 310.417969 110.449219 C 310.417969 107.835938 310.121094 105.253906 309.527344 102.710938 C 308.933594 100.164062 308.058594 97.722656 306.898438 95.378906 C 305.742188 93.035156 304.332031 90.855469 302.671875 88.835938 C 301.011719 86.816406 299.144531 85.011719 297.070312 83.425781 Z M 297.070312 83.425781 " fill-opacity="1" fill-rule="nonzero"/></g><path fill="#f3f5f9" d="M 272.253906 245.945312 L 272.253906 8.480469 C 272.253906 7.925781 272.199219 7.371094 272.089844 6.828125 C 271.980469 6.28125 271.820312 5.75 271.605469 5.234375 C 271.394531 4.722656 271.132812 4.230469 270.824219 3.769531 C 270.511719 3.304688 270.160156 2.878906 269.769531 2.484375 C 269.375 2.089844 268.945312 1.738281 268.484375 1.429688 C 268.019531 1.121094 267.53125 0.859375 267.015625 0.644531 C 266.503906 0.433594 265.972656 0.273438 265.425781 0.164062 C 264.878906 0.0546875 264.328125 0 263.769531 0 L 111.113281 0 C 110.558594 0 110.007812 0.0546875 109.460938 0.164062 C 108.914062 0.273438 108.382812 0.433594 107.867188 0.644531 C 107.355469 0.859375 106.867188 1.121094 106.402344 1.429688 C 105.941406 1.738281 105.511719 2.089844 105.117188 2.484375 C 104.722656 2.878906 104.371094 3.304688 104.0625 3.769531 C 103.753906 4.230469 103.492188 4.722656 103.277344 5.234375 C 103.066406 5.75 102.90625 6.28125 102.796875 6.828125 C 102.6875 7.371094 102.632812 7.925781 102.632812 8.480469 L 102.632812 245.945312 Z M 272.253906 245.945312 " fill-opacity="1" fill-rule="nonzero"/><g clip-path="url(#87d5e6b4af)"><path fill="#ffc107" d="M 310.417969 110.464844 L 310.417969 211.8125 C 310.417969 212.929688 310.363281 214.046875 310.253906 215.15625 C 310.144531 216.269531 309.980469 217.375 309.765625 218.472656 C 309.546875 219.570312 309.273438 220.652344 308.953125 221.722656 C 308.628906 222.792969 308.25 223.84375 307.824219 224.878906 C 307.394531 225.910156 306.917969 226.921875 306.390625 227.90625 C 305.863281 228.894531 305.289062 229.851562 304.667969 230.78125 C 304.050781 231.710938 303.382812 232.609375 302.675781 233.472656 C 301.964844 234.335938 301.214844 235.164062 300.425781 235.953125 C 299.632812 236.746094 298.804688 237.496094 297.941406 238.203125 C 297.078125 238.914062 296.179688 239.578125 295.25 240.199219 C 294.320312 240.820312 293.363281 241.394531 292.375 241.921875 C 291.390625 242.449219 290.378906 242.925781 289.347656 243.355469 C 288.3125 243.78125 287.261719 244.15625 286.191406 244.480469 C 285.121094 244.804688 284.039062 245.078125 282.941406 245.292969 C 281.84375 245.511719 280.738281 245.675781 279.628906 245.785156 C 278.515625 245.894531 277.398438 245.949219 276.28125 245.945312 L 98.605469 245.945312 C 97.488281 245.949219 96.371094 245.894531 95.257812 245.785156 C 94.144531 245.675781 93.039062 245.511719 91.945312 245.292969 C 90.847656 245.078125 89.765625 244.804688 88.695312 244.480469 C 87.625 244.15625 86.570312 243.78125 85.539062 243.355469 C 84.503906 242.925781 83.496094 242.449219 82.507812 241.921875 C 81.523438 241.394531 80.566406 240.820312 79.636719 240.199219 C 78.707031 239.578125 77.808594 238.914062 76.945312 238.203125 C 76.078125 237.496094 75.25 236.746094 74.460938 235.953125 C 73.671875 235.164062 72.921875 234.335938 72.210938 233.472656 C 71.503906 232.609375 70.835938 231.710938 70.214844 230.78125 C 69.59375 229.851562 69.019531 228.894531 68.492188 227.90625 C 67.96875 226.921875 67.488281 225.910156 67.0625 224.878906 C 66.632812 223.84375 66.257812 222.792969 65.933594 221.722656 C 65.609375 220.652344 65.339844 219.570312 65.121094 218.472656 C 64.902344 217.375 64.742188 216.269531 64.632812 215.15625 C 64.523438 214.046875 64.46875 212.929688 64.46875 211.8125 L 64.46875 110.464844 C 64.460938 105.039062 65.699219 99.917969 68.179688 95.09375 L 165.519531 181.746094 C 166.277344 182.390625 167.0625 183 167.871094 183.574219 C 168.683594 184.148438 169.519531 184.6875 170.378906 185.1875 C 171.238281 185.6875 172.117188 186.152344 173.015625 186.574219 C 173.914062 187 174.832031 187.382812 175.765625 187.726562 C 176.699219 188.066406 177.644531 188.371094 178.605469 188.628906 C 179.5625 188.890625 180.53125 189.105469 181.511719 189.28125 C 182.492188 189.453125 183.476562 189.585938 184.464844 189.671875 C 185.457031 189.757812 186.449219 189.804688 187.441406 189.804688 C 188.4375 189.804688 189.429688 189.757812 190.417969 189.671875 C 191.410156 189.585938 192.394531 189.453125 193.375 189.28125 C 194.351562 189.105469 195.320312 188.890625 196.28125 188.628906 C 197.242188 188.371094 198.1875 188.066406 199.121094 187.726562 C 200.054688 187.382812 200.972656 187 201.871094 186.574219 C 202.769531 186.152344 203.648438 185.6875 204.507812 185.1875 C 205.367188 184.6875 206.203125 184.148438 207.011719 183.574219 C 207.824219 183 208.609375 182.390625 209.367188 181.746094 L 306.707031 95.070312 C 309.191406 99.902344 310.425781 105.03125 310.417969 110.464844 Z M 310.417969 110.464844 " fill-opacity="1" fill-rule="nonzero"/></g><path fill="#ffd54f" d="M 301.851562 234.414062 C 300.253906 236.230469 298.480469 237.855469 296.535156 239.292969 C 294.589844 240.730469 292.515625 241.949219 290.3125 242.941406 C 288.105469 243.9375 285.820312 244.6875 283.457031 245.195312 C 281.089844 245.699219 278.699219 245.953125 276.28125 245.945312 L 98.605469 245.945312 C 96.355469 245.953125 94.128906 245.738281 91.925781 245.300781 C 89.71875 244.863281 87.578125 244.214844 85.503906 243.347656 C 83.429688 242.484375 81.460938 241.421875 79.597656 240.164062 C 77.734375 238.90625 76.011719 237.476562 74.433594 235.875 L 165.710938 155.160156 C 166.453125 154.503906 167.222656 153.886719 168.019531 153.300781 C 168.816406 152.714844 169.640625 152.167969 170.488281 151.65625 C 171.335938 151.148438 172.203125 150.675781 173.09375 150.246094 C 173.984375 149.8125 174.890625 149.421875 175.816406 149.074219 C 176.742188 148.722656 177.679688 148.417969 178.632812 148.152344 C 179.585938 147.886719 180.550781 147.664062 181.523438 147.488281 C 182.496094 147.308594 183.476562 147.175781 184.460938 147.085938 C 185.445312 146.996094 186.433594 146.953125 187.421875 146.953125 C 188.410156 146.953125 189.398438 146.996094 190.382812 147.085938 C 191.367188 147.175781 192.347656 147.308594 193.320312 147.488281 C 194.292969 147.664062 195.257812 147.886719 196.210938 148.152344 C 197.164062 148.417969 198.101562 148.722656 199.027344 149.074219 C 199.953125 149.421875 200.859375 149.8125 201.75 150.246094 C 202.640625 150.675781 203.507812 151.148438 204.355469 151.65625 C 205.203125 152.167969 206.023438 152.714844 206.824219 153.300781 C 207.621094 153.886719 208.390625 154.503906 209.132812 155.160156 Z M 301.851562 234.414062 " fill-opacity="1" fill-rule="nonzero"/><path fill="#ffffff" d="M 106.875 228.984375 C 106.875 228.707031 106.902344 228.429688 106.957031 228.15625 C 107.007812 227.882812 107.089844 227.621094 107.195312 227.363281 C 107.304688 227.105469 107.433594 226.859375 107.589844 226.628906 C 107.742188 226.398438 107.917969 226.183594 108.117188 225.988281 C 108.3125 225.789062 108.527344 225.613281 108.757812 225.460938 C 108.988281 225.304688 109.234375 225.175781 109.492188 225.066406 C 109.75 224.960938 110.015625 224.878906 110.289062 224.824219 C 110.558594 224.773438 110.835938 224.746094 111.113281 224.746094 L 128.078125 224.746094 C 128.355469 224.746094 128.628906 224.773438 128.902344 224.824219 C 129.175781 224.878906 129.441406 224.960938 129.699219 225.066406 C 129.957031 225.175781 130.199219 225.304688 130.433594 225.460938 C 130.664062 225.613281 130.878906 225.789062 131.074219 225.988281 C 131.273438 226.183594 131.449219 226.398438 131.601562 226.628906 C 131.757812 226.859375 131.886719 227.105469 131.992188 227.363281 C 132.101562 227.621094 132.179688 227.882812 132.234375 228.15625 C 132.289062 228.429688 132.316406 228.707031 132.316406 228.984375 C 132.316406 229.261719 132.289062 229.539062 132.234375 229.8125 C 132.179688 230.085938 132.101562 230.351562 131.992188 230.609375 C 131.886719 230.863281 131.757812 231.109375 131.601562 231.339844 C 131.449219 231.574219 131.273438 231.785156 131.074219 231.984375 C 130.878906 232.179688 130.664062 232.355469 130.433594 232.511719 C 130.199219 232.664062 129.957031 232.796875 129.699219 232.902344 C 129.441406 233.007812 129.175781 233.089844 128.902344 233.144531 C 128.628906 233.199219 128.355469 233.226562 128.078125 233.226562 L 111.113281 233.226562 C 110.835938 233.226562 110.558594 233.199219 110.289062 233.144531 C 110.015625 233.089844 109.75 233.007812 109.492188 232.902344 C 109.234375 232.796875 108.988281 232.664062 108.757812 232.511719 C 108.527344 232.355469 108.3125 232.179688 108.117188 231.984375 C 107.917969 231.785156 107.742188 231.574219 107.589844 231.339844 C 107.433594 231.109375 107.304688 230.863281 107.195312 230.609375 C 107.089844 230.351562 107.007812 230.085938 106.957031 229.8125 C 106.902344 229.539062 106.875 229.261719 106.875 228.984375 Z M 106.875 228.984375 " fill-opacity="1" fill-rule="nonzero"/><path fill="#ffffff" d="M 149.277344 228.984375 C 149.277344 229.261719 149.25 229.539062 149.195312 229.8125 C 149.144531 230.085938 149.0625 230.351562 148.957031 230.609375 C 148.847656 230.863281 148.71875 231.109375 148.5625 231.339844 C 148.410156 231.574219 148.234375 231.785156 148.035156 231.984375 C 147.839844 232.179688 147.625 232.355469 147.394531 232.511719 C 147.164062 232.664062 146.917969 232.796875 146.660156 232.902344 C 146.402344 233.007812 146.136719 233.089844 145.867188 233.144531 C 145.59375 233.199219 145.316406 233.226562 145.039062 233.226562 C 144.757812 233.226562 144.484375 233.199219 144.210938 233.144531 C 143.9375 233.089844 143.671875 233.007812 143.414062 232.902344 C 143.15625 232.796875 142.914062 232.664062 142.683594 232.511719 C 142.449219 232.355469 142.238281 232.179688 142.039062 231.984375 C 141.84375 231.785156 141.667969 231.574219 141.511719 231.339844 C 141.359375 231.109375 141.226562 230.863281 141.121094 230.609375 C 141.015625 230.351562 140.933594 230.085938 140.878906 229.8125 C 140.824219 229.539062 140.796875 229.261719 140.796875 228.984375 C 140.796875 228.707031 140.824219 228.429688 140.878906 228.15625 C 140.933594 227.882812 141.015625 227.621094 141.121094 227.363281 C 141.226562 227.105469 141.359375 226.859375 141.511719 226.628906 C 141.667969 226.398438 141.84375 226.183594 142.039062 225.988281 C 142.238281 225.789062 142.449219 225.613281 142.683594 225.460938 C 142.914062 225.304688 143.15625 225.175781 143.414062 225.066406 C 143.671875 224.960938 143.9375 224.878906 144.210938 224.824219 C 144.484375 224.773438 144.757812 224.746094 145.039062 224.746094 C 145.316406 224.746094 145.59375 224.773438 145.867188 224.824219 C 146.136719 224.878906 146.402344 224.960938 146.660156 225.066406 C 146.917969 225.175781 147.164062 225.304688 147.394531 225.460938 C 147.625 225.613281 147.839844 225.789062 148.035156 225.988281 C 148.234375 226.183594 148.410156 226.398438 148.5625 226.628906 C 148.71875 226.859375 148.847656 227.105469 148.957031 227.363281 C 149.0625 227.621094 149.144531 227.882812 149.195312 228.15625 C 149.25 228.429688 149.277344 228.707031 149.277344 228.984375 Z M 149.277344 228.984375 " fill-opacity="1" fill-rule="nonzero"/><path fill="#c02027" d="M 187.441406 16.960938 C 185.636719 16.960938 183.835938 17.050781 182.039062 17.226562 C 180.242188 17.402344 178.460938 17.667969 176.6875 18.019531 C 174.917969 18.375 173.167969 18.8125 171.441406 19.335938 C 169.710938 19.859375 168.015625 20.46875 166.347656 21.15625 C 164.679688 21.847656 163.046875 22.621094 161.457031 23.472656 C 159.863281 24.320312 158.316406 25.25 156.816406 26.253906 C 155.316406 27.253906 153.867188 28.328125 152.472656 29.476562 C 151.074219 30.621094 149.738281 31.832031 148.460938 33.109375 C 147.1875 34.382812 145.976562 35.71875 144.828125 37.117188 C 143.683594 38.511719 142.609375 39.960938 141.605469 41.460938 C 140.605469 42.960938 139.675781 44.507812 138.824219 46.101562 C 137.976562 47.695312 137.203125 49.324219 136.511719 50.992188 C 135.820312 52.660156 135.214844 54.359375 134.691406 56.085938 C 134.167969 57.8125 133.726562 59.5625 133.375 61.332031 C 133.023438 63.105469 132.757812 64.886719 132.582031 66.683594 C 132.40625 68.480469 132.316406 70.28125 132.316406 72.089844 C 132.316406 73.894531 132.40625 75.695312 132.582031 77.492188 C 132.757812 79.289062 133.023438 81.070312 133.375 82.84375 C 133.726562 84.613281 134.167969 86.363281 134.691406 88.089844 C 135.214844 89.816406 135.820312 91.515625 136.511719 93.183594 C 137.203125 94.851562 137.976562 96.480469 138.824219 98.074219 C 139.675781 99.667969 140.605469 101.214844 141.605469 102.714844 C 142.609375 104.214844 143.683594 105.664062 144.828125 107.058594 C 145.976562 108.457031 147.1875 109.792969 148.460938 111.066406 C 149.738281 112.34375 151.074219 113.554688 152.472656 114.699219 C 153.867188 115.847656 155.316406 116.921875 156.816406 117.921875 C 158.316406 118.925781 159.863281 119.855469 161.457031 120.703125 C 163.046875 121.554688 164.679688 122.328125 166.347656 123.019531 C 168.015625 123.707031 169.710938 124.316406 171.441406 124.839844 C 173.167969 125.363281 174.917969 125.800781 176.6875 126.15625 C 178.460938 126.507812 180.242188 126.773438 182.039062 126.949219 C 183.835938 127.125 185.636719 127.214844 187.441406 127.214844 C 187.722656 127.214844 187.996094 127.1875 188.269531 127.132812 C 188.542969 127.078125 188.808594 126.996094 189.066406 126.890625 C 189.324219 126.785156 189.566406 126.652344 189.796875 126.5 C 190.03125 126.34375 190.246094 126.167969 190.441406 125.972656 C 190.636719 125.773438 190.8125 125.5625 190.96875 125.328125 C 191.125 125.097656 191.253906 124.851562 191.359375 124.597656 C 191.46875 124.339844 191.546875 124.074219 191.601562 123.800781 C 191.65625 123.527344 191.683594 123.25 191.683594 122.972656 C 191.683594 122.695312 191.65625 122.417969 191.601562 122.144531 C 191.546875 121.875 191.46875 121.609375 191.359375 121.351562 C 191.253906 121.09375 191.125 120.847656 190.96875 120.617188 C 190.8125 120.386719 190.636719 120.171875 190.441406 119.976562 C 190.246094 119.777344 190.03125 119.601562 189.796875 119.449219 C 189.566406 119.292969 189.324219 119.164062 189.066406 119.054688 C 188.808594 118.949219 188.542969 118.867188 188.269531 118.816406 C 187.996094 118.761719 187.722656 118.734375 187.441406 118.734375 C 185.914062 118.734375 184.390625 118.65625 182.871094 118.507812 C 181.351562 118.359375 179.839844 118.136719 178.34375 117.835938 C 176.84375 117.539062 175.363281 117.167969 173.902344 116.722656 C 172.441406 116.28125 171.003906 115.765625 169.59375 115.183594 C 168.179688 114.597656 166.800781 113.945312 165.453125 113.226562 C 164.105469 112.503906 162.796875 111.71875 161.527344 110.871094 C 160.257812 110.023438 159.03125 109.113281 157.851562 108.144531 C 156.671875 107.175781 155.539062 106.152344 154.460938 105.070312 C 153.378906 103.992188 152.355469 102.859375 151.386719 101.679688 C 150.417969 100.5 149.507812 99.273438 148.660156 98.003906 C 147.808594 96.730469 147.027344 95.421875 146.304688 94.078125 C 145.585938 92.730469 144.933594 91.351562 144.347656 89.9375 C 143.765625 88.527344 143.25 87.089844 142.804688 85.628906 C 142.363281 84.167969 141.992188 82.6875 141.695312 81.1875 C 141.394531 79.691406 141.171875 78.179688 141.023438 76.660156 C 140.871094 75.140625 140.796875 73.617188 140.796875 72.089844 C 140.796875 70.558594 140.871094 69.035156 141.023438 67.515625 C 141.171875 65.996094 141.394531 64.484375 141.695312 62.988281 C 141.992188 61.488281 142.363281 60.007812 142.804688 58.546875 C 143.25 57.085938 143.765625 55.648438 144.347656 54.238281 C 144.933594 52.828125 145.585938 51.445312 146.304688 50.097656 C 147.027344 48.753906 147.808594 47.445312 148.660156 46.171875 C 149.507812 44.902344 150.417969 43.675781 151.386719 42.496094 C 152.355469 41.316406 153.378906 40.183594 154.460938 39.105469 C 155.539062 38.023438 156.671875 37 157.851562 36.03125 C 159.03125 35.0625 160.257812 34.152344 161.527344 33.304688 C 162.796875 32.457031 164.105469 31.671875 165.453125 30.949219 C 166.800781 30.230469 168.179688 29.578125 169.59375 28.992188 C 171.003906 28.410156 172.441406 27.894531 173.902344 27.453125 C 175.363281 27.007812 176.84375 26.636719 178.34375 26.339844 C 179.839844 26.042969 181.351562 25.816406 182.871094 25.667969 C 184.390625 25.519531 185.914062 25.441406 187.441406 25.441406 C 188.96875 25.441406 190.496094 25.519531 192.015625 25.667969 C 193.535156 25.816406 195.042969 26.042969 196.542969 26.339844 C 198.042969 26.636719 199.519531 27.007812 200.984375 27.453125 C 202.445312 27.894531 203.882812 28.410156 205.292969 28.992188 C 206.703125 29.578125 208.082031 30.230469 209.429688 30.949219 C 210.777344 31.671875 212.085938 32.457031 213.359375 33.304688 C 214.628906 34.152344 215.851562 35.0625 217.035156 36.03125 C 218.214844 37 219.34375 38.023438 220.425781 39.105469 C 221.507812 40.183594 222.53125 41.316406 223.5 42.496094 C 224.46875 43.675781 225.378906 44.902344 226.226562 46.171875 C 227.074219 47.445312 227.859375 48.753906 228.582031 50.097656 C 229.300781 51.445312 229.953125 52.828125 230.539062 54.238281 C 231.121094 55.648438 231.636719 57.085938 232.078125 58.546875 C 232.523438 60.007812 232.894531 61.488281 233.191406 62.988281 C 233.488281 64.484375 233.714844 65.996094 233.863281 67.515625 C 234.011719 69.035156 234.089844 70.558594 234.089844 72.089844 L 234.089844 84.808594 C 234.089844 85.367188 234.035156 85.917969 233.925781 86.464844 C 233.816406 87.011719 233.65625 87.539062 233.441406 88.054688 C 233.230469 88.570312 232.96875 89.058594 232.660156 89.519531 C 232.347656 89.984375 231.996094 90.414062 231.605469 90.804688 C 231.210938 91.199219 230.78125 91.550781 230.320312 91.859375 C 229.855469 92.171875 229.367188 92.429688 228.851562 92.644531 C 228.339844 92.859375 227.808594 93.019531 227.261719 93.128906 C 226.714844 93.234375 226.164062 93.289062 225.605469 93.289062 C 225.050781 93.289062 224.5 93.234375 223.953125 93.128906 C 223.40625 93.019531 222.875 92.859375 222.363281 92.644531 C 221.847656 92.429688 221.359375 92.171875 220.894531 91.859375 C 220.433594 91.550781 220.003906 91.199219 219.609375 90.804688 C 219.214844 90.414062 218.863281 89.984375 218.554688 89.519531 C 218.246094 89.058594 217.984375 88.570312 217.773438 88.054688 C 217.558594 87.539062 217.398438 87.011719 217.289062 86.464844 C 217.179688 85.917969 217.125 85.367188 217.125 84.808594 L 217.125 72.089844 C 217.128906 71.511719 217.113281 70.933594 217.082031 70.359375 C 217.050781 69.78125 217 69.207031 216.9375 68.636719 C 216.871094 68.0625 216.789062 67.492188 216.691406 66.921875 C 216.59375 66.355469 216.476562 65.789062 216.347656 65.226562 C 216.214844 64.667969 216.066406 64.109375 215.90625 63.554688 C 215.742188 63.003906 215.5625 62.453125 215.367188 61.910156 C 215.171875 61.371094 214.960938 60.832031 214.734375 60.300781 C 214.507812 59.773438 214.265625 59.25 214.007812 58.730469 C 213.75 58.214844 213.480469 57.707031 213.191406 57.207031 C 212.90625 56.707031 212.605469 56.214844 212.289062 55.730469 C 211.976562 55.246094 211.644531 54.773438 211.304688 54.308594 C 210.960938 53.847656 210.605469 53.390625 210.234375 52.949219 C 209.867188 52.507812 209.484375 52.074219 209.089844 51.652344 C 208.695312 51.230469 208.289062 50.820312 207.871094 50.425781 C 207.453125 50.027344 207.027344 49.640625 206.585938 49.269531 C 206.144531 48.898438 205.695312 48.539062 205.234375 48.191406 C 204.773438 47.84375 204.300781 47.511719 203.820312 47.191406 C 203.339844 46.875 202.851562 46.570312 202.351562 46.277344 C 201.855469 45.988281 201.347656 45.710938 200.832031 45.449219 C 200.320312 45.191406 199.796875 44.945312 199.269531 44.710938 C 198.742188 44.480469 198.207031 44.265625 197.664062 44.066406 C 197.125 43.867188 196.578125 43.683594 196.023438 43.515625 C 195.472656 43.347656 194.917969 43.195312 194.355469 43.058594 C 193.796875 42.925781 193.230469 42.804688 192.664062 42.703125 C 192.097656 42.597656 191.527344 42.511719 190.953125 42.441406 C 190.382812 42.371094 189.808594 42.320312 189.230469 42.285156 C 188.65625 42.246094 188.078125 42.226562 187.503906 42.222656 C 186.925781 42.222656 186.351562 42.234375 185.773438 42.265625 C 185.199219 42.296875 184.625 42.34375 184.050781 42.40625 C 183.476562 42.472656 182.90625 42.550781 182.335938 42.648438 C 181.769531 42.746094 181.203125 42.859375 180.640625 42.992188 C 180.078125 43.121094 179.523438 43.265625 178.96875 43.429688 C 178.414062 43.589844 177.867188 43.769531 177.324219 43.964844 C 176.78125 44.160156 176.242188 44.367188 175.710938 44.59375 C 175.179688 44.820312 174.65625 45.058594 174.140625 45.316406 C 173.625 45.570312 173.113281 45.84375 172.613281 46.128906 C 172.113281 46.414062 171.621094 46.714844 171.136719 47.027344 C 170.652344 47.34375 170.179688 47.671875 169.714844 48.011719 C 169.25 48.355469 168.792969 48.707031 168.351562 49.078125 C 167.90625 49.445312 167.472656 49.824219 167.050781 50.21875 C 166.628906 50.613281 166.21875 51.015625 165.820312 51.433594 C 165.421875 51.851562 165.035156 52.28125 164.664062 52.71875 C 164.289062 53.160156 163.929688 53.609375 163.582031 54.070312 C 163.234375 54.53125 162.902344 55 162.582031 55.480469 C 162.261719 55.960938 161.957031 56.449219 161.664062 56.945312 C 161.371094 57.445312 161.09375 57.949219 160.832031 58.464844 C 160.570312 58.976562 160.324219 59.5 160.09375 60.027344 C 159.859375 60.554688 159.644531 61.089844 159.441406 61.628906 C 159.242188 62.171875 159.058594 62.71875 158.886719 63.269531 C 158.71875 63.820312 158.566406 64.375 158.429688 64.9375 C 158.292969 65.496094 158.171875 66.058594 158.066406 66.628906 C 157.964844 67.195312 157.875 67.765625 157.804688 68.335938 C 157.734375 68.910156 157.679688 69.484375 157.644531 70.058594 C 157.605469 70.636719 157.585938 71.210938 157.582031 71.789062 C 157.574219 72.363281 157.589844 72.941406 157.617188 73.515625 C 157.648438 74.09375 157.695312 74.667969 157.757812 75.242188 C 157.820312 75.816406 157.898438 76.386719 157.996094 76.953125 C 158.089844 77.523438 158.203125 78.089844 158.332031 78.652344 C 158.460938 79.214844 158.605469 79.769531 158.769531 80.324219 C 158.929688 80.878906 159.105469 81.425781 159.300781 81.972656 C 159.492188 82.515625 159.703125 83.050781 159.925781 83.582031 C 160.152344 84.113281 160.390625 84.640625 160.644531 85.15625 C 160.898438 85.671875 161.167969 86.183594 161.453125 86.683594 C 161.738281 87.1875 162.039062 87.679688 162.351562 88.164062 C 162.664062 88.648438 162.992188 89.125 163.332031 89.589844 C 163.671875 90.054688 164.027344 90.507812 164.394531 90.953125 C 164.761719 91.398438 165.140625 91.832031 165.535156 92.253906 C 165.925781 92.679688 166.332031 93.089844 166.746094 93.488281 C 167.164062 93.886719 167.589844 94.273438 168.03125 94.648438 C 168.46875 95.023438 168.917969 95.382812 169.378906 95.730469 C 169.835938 96.082031 170.308594 96.414062 170.785156 96.734375 C 171.265625 97.058594 171.753906 97.363281 172.25 97.65625 C 172.746094 97.949219 173.253906 98.226562 173.765625 98.488281 C 174.28125 98.753906 174.800781 99 175.328125 99.234375 C 175.855469 99.46875 176.390625 99.683594 176.929688 99.886719 C 177.46875 100.089844 178.015625 100.273438 178.566406 100.445312 C 179.117188 100.613281 179.671875 100.769531 180.234375 100.90625 C 180.792969 101.046875 181.355469 101.167969 181.925781 101.273438 C 182.492188 101.375 183.0625 101.464844 183.632812 101.539062 C 184.207031 101.609375 184.78125 101.664062 185.355469 101.703125 C 185.929688 101.742188 186.507812 101.765625 187.082031 101.769531 C 187.660156 101.773438 188.238281 101.761719 188.8125 101.734375 C 189.390625 101.707031 189.964844 101.660156 190.539062 101.601562 C 191.109375 101.539062 191.683594 101.460938 192.25 101.363281 C 192.820312 101.269531 193.386719 101.160156 193.949219 101.03125 C 194.511719 100.902344 195.070312 100.757812 195.621094 100.597656 C 196.175781 100.4375 196.726562 100.261719 197.269531 100.070312 C 197.8125 99.878906 198.351562 99.671875 198.882812 99.449219 C 199.414062 99.222656 199.941406 98.984375 200.457031 98.730469 C 200.976562 98.476562 201.484375 98.207031 201.988281 97.925781 C 202.492188 97.640625 202.984375 97.34375 203.46875 97.03125 C 203.953125 96.71875 204.429688 96.394531 204.894531 96.054688 C 205.363281 95.714844 205.816406 95.359375 206.261719 94.996094 C 206.707031 94.628906 207.144531 94.25 207.566406 93.855469 C 207.992188 93.464844 208.402344 93.0625 208.800781 92.648438 C 209.203125 92.230469 209.589844 91.804688 209.964844 91.367188 C 210.339844 92.261719 210.789062 93.121094 211.3125 93.941406 C 211.835938 94.757812 212.425781 95.527344 213.082031 96.246094 C 213.738281 96.964844 214.449219 97.621094 215.21875 98.214844 C 215.988281 98.808594 216.800781 99.335938 217.660156 99.792969 C 218.519531 100.246094 219.410156 100.625 220.335938 100.925781 C 221.257812 101.230469 222.199219 101.449219 223.164062 101.589844 C 224.125 101.730469 225.09375 101.789062 226.0625 101.761719 C 227.035156 101.734375 228 101.625 228.949219 101.433594 C 229.902344 101.242188 230.832031 100.972656 231.742188 100.621094 C 232.648438 100.269531 233.515625 99.84375 234.347656 99.339844 C 235.183594 98.839844 235.964844 98.273438 236.703125 97.636719 C 237.4375 97 238.113281 96.304688 238.730469 95.554688 C 239.34375 94.800781 239.890625 94.003906 240.371094 93.15625 C 240.847656 92.308594 241.253906 91.429688 241.578125 90.515625 C 241.90625 89.597656 242.152344 88.664062 242.320312 87.703125 C 242.484375 86.746094 242.570312 85.78125 242.570312 84.808594 L 242.570312 72.089844 C 242.566406 70.28125 242.476562 68.484375 242.296875 66.6875 C 242.117188 64.890625 241.851562 63.109375 241.5 61.339844 C 241.144531 59.566406 240.703125 57.820312 240.179688 56.09375 C 239.65625 54.367188 239.046875 52.667969 238.355469 51.003906 C 237.664062 49.335938 236.890625 47.707031 236.039062 46.117188 C 235.1875 44.523438 234.261719 42.976562 233.257812 41.476562 C 232.253906 39.976562 231.179688 38.53125 230.035156 37.136719 C 228.890625 35.738281 227.679688 34.402344 226.402344 33.128906 C 225.125 31.851562 223.789062 30.640625 222.394531 29.496094 C 221 28.351562 219.554688 27.277344 218.054688 26.273438 C 216.550781 25.269531 215.007812 24.34375 213.414062 23.492188 C 211.824219 22.640625 210.195312 21.867188 208.527344 21.175781 C 206.859375 20.484375 205.164062 19.875 203.4375 19.351562 C 201.710938 18.824219 199.960938 18.386719 198.191406 18.03125 C 196.421875 17.679688 194.640625 17.414062 192.84375 17.234375 C 191.046875 17.054688 189.246094 16.964844 187.441406 16.960938 Z M 187.441406 93.289062 C 186.75 93.289062 186.054688 93.257812 185.363281 93.1875 C 184.671875 93.121094 183.988281 93.019531 183.304688 92.882812 C 182.625 92.746094 181.953125 92.578125 181.289062 92.378906 C 180.625 92.175781 179.96875 91.941406 179.328125 91.675781 C 178.6875 91.410156 178.058594 91.113281 177.449219 90.785156 C 176.835938 90.460938 176.242188 90.101562 175.664062 89.71875 C 175.085938 89.332031 174.527344 88.917969 173.992188 88.476562 C 173.457031 88.035156 172.941406 87.570312 172.449219 87.082031 C 171.960938 86.589844 171.492188 86.074219 171.054688 85.539062 C 170.613281 85 170.199219 84.445312 169.8125 83.867188 C 169.429688 83.289062 169.070312 82.695312 168.742188 82.082031 C 168.417969 81.46875 168.121094 80.84375 167.855469 80.203125 C 167.589844 79.558594 167.355469 78.90625 167.152344 78.242188 C 166.953125 77.578125 166.785156 76.90625 166.648438 76.222656 C 166.511719 75.542969 166.410156 74.855469 166.34375 74.167969 C 166.273438 73.476562 166.242188 72.78125 166.242188 72.089844 C 166.242188 71.394531 166.273438 70.699219 166.34375 70.007812 C 166.410156 69.320312 166.511719 68.632812 166.648438 67.953125 C 166.785156 67.269531 166.953125 66.597656 167.152344 65.933594 C 167.355469 65.269531 167.589844 64.617188 167.855469 63.972656 C 168.121094 63.332031 168.417969 62.707031 168.742188 62.09375 C 169.070312 61.480469 169.429688 60.886719 169.8125 60.308594 C 170.199219 59.730469 170.613281 59.175781 171.054688 58.636719 C 171.492188 58.101562 171.960938 57.585938 172.449219 57.09375 C 172.941406 56.605469 173.457031 56.140625 173.992188 55.699219 C 174.527344 55.257812 175.085938 54.84375 175.664062 54.457031 C 176.242188 54.074219 176.835938 53.714844 177.449219 53.390625 C 178.058594 53.0625 178.6875 52.765625 179.328125 52.5 C 179.96875 52.234375 180.625 52 181.289062 51.796875 C 181.953125 51.597656 182.625 51.429688 183.304688 51.292969 C 183.988281 51.15625 184.671875 51.054688 185.363281 50.988281 C 186.054688 50.917969 186.75 50.886719 187.441406 50.886719 C 188.136719 50.886719 188.828125 50.917969 189.519531 50.988281 C 190.210938 51.054688 190.898438 51.15625 191.578125 51.292969 C 192.261719 51.429688 192.933594 51.597656 193.597656 51.796875 C 194.261719 52 194.914062 52.234375 195.554688 52.5 C 196.199219 52.765625 196.824219 53.0625 197.4375 53.390625 C 198.050781 53.714844 198.644531 54.074219 199.222656 54.457031 C 199.800781 54.84375 200.355469 55.257812 200.894531 55.699219 C 201.429688 56.140625 201.945312 56.605469 202.433594 57.09375 C 202.925781 57.585938 203.390625 58.101562 203.832031 58.636719 C 204.273438 59.175781 204.6875 59.730469 205.070312 60.308594 C 205.457031 60.886719 205.8125 61.480469 206.140625 62.09375 C 206.46875 62.707031 206.765625 63.332031 207.03125 63.972656 C 207.296875 64.617188 207.53125 65.269531 207.730469 65.933594 C 207.933594 66.597656 208.101562 67.269531 208.238281 67.953125 C 208.375 68.632812 208.476562 69.320312 208.542969 70.007812 C 208.609375 70.699219 208.644531 71.394531 208.644531 72.089844 C 208.644531 72.78125 208.609375 73.472656 208.539062 74.164062 C 208.472656 74.855469 208.371094 75.542969 208.234375 76.222656 C 208.097656 76.902344 207.929688 77.574219 207.726562 78.238281 C 207.523438 78.902344 207.289062 79.554688 207.023438 80.199219 C 206.757812 80.839844 206.460938 81.464844 206.132812 82.078125 C 205.804688 82.6875 205.449219 83.285156 205.0625 83.859375 C 204.679688 84.4375 204.265625 84.996094 203.824219 85.53125 C 203.382812 86.066406 202.917969 86.582031 202.425781 87.074219 C 201.9375 87.5625 201.421875 88.027344 200.886719 88.46875 C 200.351562 88.910156 199.792969 89.324219 199.214844 89.707031 C 198.640625 90.09375 198.042969 90.453125 197.433594 90.777344 C 196.820312 91.105469 196.195312 91.402344 195.550781 91.667969 C 194.910156 91.933594 194.257812 92.167969 193.59375 92.371094 C 192.929688 92.574219 192.257812 92.742188 191.578125 92.878906 C 190.898438 93.015625 190.210938 93.117188 189.519531 93.1875 C 188.828125 93.253906 188.136719 93.289062 187.441406 93.289062 Z M 187.441406 93.289062 " fill-opacity="1" fill-rule="nonzero"/><g fill="#000000" fill-opacity="1"><g transform="translate(91.553398, 357.410689)"><g><path d="M 14.140625 0 L 8.21875 0 L 8.21875 -54.375 L 17.703125 -54.375 L 34.1875 -8.328125 L 34.96875 -8.328125 L 51.4375 -54.375 L 60.59375 -54.375 L 60.59375 0 L 54.53125 0 L 54.53125 -44.375 L 53.59375 -44.515625 L 37.53125 0 L 31.171875 0 L 15.0625 -44.515625 L 14.140625 -44.375 Z M 14.140625 0 "/></g></g></g><g fill="#000000" fill-opacity="1"><g transform="translate(160.40044, 357.410689)"><g><path d="M 16.921875 0.78125 C 12.878906 0.78125 9.722656 -0.269531 7.453125 -2.375 C 5.179688 -4.488281 4.046875 -7.503906 4.046875 -11.421875 C 4.046875 -13.847656 4.546875 -15.894531 5.546875 -17.5625 C 6.554688 -19.238281 8.113281 -20.601562 10.21875 -21.65625 C 12.332031 -22.71875 15.085938 -23.53125 18.484375 -24.09375 C 21.460938 -24.59375 23.722656 -25.148438 25.265625 -25.765625 C 26.816406 -26.390625 27.859375 -27.085938 28.390625 -27.859375 C 28.929688 -28.628906 29.203125 -29.597656 29.203125 -30.765625 C 29.203125 -32.617188 28.5625 -34.039062 27.28125 -35.03125 C 26 -36.03125 23.945312 -36.53125 21.125 -36.53125 C 18.46875 -36.53125 16.191406 -36.015625 14.296875 -34.984375 C 12.398438 -33.953125 10.660156 -32.421875 9.078125 -30.390625 L 8.328125 -30.390625 L 5.359375 -34.59375 C 7.085938 -36.800781 9.289062 -38.554688 11.96875 -39.859375 C 14.65625 -41.160156 17.707031 -41.8125 21.125 -41.8125 C 25.957031 -41.8125 29.519531 -40.75 31.8125 -38.625 C 34.113281 -36.5 35.265625 -33.566406 35.265625 -29.828125 L 35.265625 -8.078125 C 35.265625 -5.796875 36.226562 -4.65625 38.15625 -4.65625 C 38.800781 -4.65625 39.421875 -4.765625 40.015625 -4.984375 L 40.546875 -4.828125 L 41.25 -0.625 C 40.800781 -0.332031 40.210938 -0.109375 39.484375 0.046875 C 38.753906 0.210938 38.003906 0.296875 37.234375 0.296875 C 34.972656 0.296875 33.265625 -0.195312 32.109375 -1.1875 C 30.960938 -2.175781 30.226562 -3.640625 29.90625 -5.578125 L 29.125 -5.65625 C 27.957031 -3.5 26.378906 -1.882812 24.390625 -0.8125 C 22.410156 0.25 19.921875 0.78125 16.921875 0.78125 Z M 18.265625 -4.046875 C 20.546875 -4.046875 22.519531 -4.570312 24.1875 -5.625 C 25.863281 -6.6875 27.144531 -8.171875 28.03125 -10.078125 C 28.925781 -11.984375 29.375 -14.191406 29.375 -16.703125 L 29.375 -21.90625 L 28.671875 -22.0625 C 27.753906 -21.414062 26.640625 -20.875 25.328125 -20.4375 C 24.015625 -20 22.179688 -19.609375 19.828125 -19.265625 C 17.441406 -18.941406 15.546875 -18.445312 14.140625 -17.78125 C 12.742188 -17.113281 11.75 -16.265625 11.15625 -15.234375 C 10.5625 -14.203125 10.265625 -12.929688 10.265625 -11.421875 C 10.265625 -9.015625 10.96875 -7.179688 12.375 -5.921875 C 13.789062 -4.671875 15.753906 -4.046875 18.265625 -4.046875 Z M 18.265625 -4.046875 "/></g></g></g><g fill="#000000" fill-opacity="1"><g transform="translate(202.839381, 357.410689)"><g><path d="M 10.1875 -48.953125 C 8.894531 -48.953125 7.847656 -49.351562 7.046875 -50.15625 C 6.242188 -50.957031 5.84375 -51.976562 5.84375 -53.21875 C 5.84375 -54.457031 6.242188 -55.476562 7.046875 -56.28125 C 7.847656 -57.09375 8.894531 -57.5 10.1875 -57.5 C 11.476562 -57.5 12.523438 -57.09375 13.328125 -56.28125 C 14.140625 -55.476562 14.546875 -54.457031 14.546875 -53.21875 C 14.546875 -51.976562 14.140625 -50.957031 13.328125 -50.15625 C 12.523438 -49.351562 11.476562 -48.953125 10.1875 -48.953125 Z M 7.140625 0 L 7.140625 -41.03125 L 13.203125 -41.03125 L 13.203125 0 Z M 7.140625 0 "/></g></g></g><g fill="#000000" fill-opacity="1"><g transform="translate(223.184788, 357.410689)"><g><path d="M 16.328125 0.78125 C 13.421875 0.78125 11.140625 -0.0390625 9.484375 -1.6875 C 7.828125 -3.34375 7 -5.804688 7 -9.078125 L 7 -57.5 L 13.0625 -57.5 L 13.0625 -9.484375 C 13.0625 -7.773438 13.390625 -6.539062 14.046875 -5.78125 C 14.703125 -5.03125 15.722656 -4.65625 17.109375 -4.65625 C 17.953125 -4.65625 18.804688 -4.789062 19.671875 -5.0625 L 20.203125 -4.90625 L 20.90625 -0.15625 C 20.457031 0.144531 19.816406 0.375 18.984375 0.53125 C 18.148438 0.695312 17.265625 0.78125 16.328125 0.78125 Z M 16.328125 0.78125 "/></g></g></g><g fill="#000000" fill-opacity="1"><g transform="translate(245.501491, 357.410689)"><g><path d="M 18.703125 0.78125 C 16.128906 0.78125 13.742188 0.441406 11.546875 -0.234375 C 9.347656 -0.921875 7.492188 -1.859375 5.984375 -3.046875 C 4.472656 -4.234375 3.410156 -5.570312 2.796875 -7.0625 L 6.359375 -10.78125 L 7.140625 -10.78125 C 8.484375 -8.75 10.09375 -7.21875 11.96875 -6.1875 C 13.851562 -5.164062 16.097656 -4.65625 18.703125 -4.65625 C 21.734375 -4.65625 24.035156 -5.242188 25.609375 -6.421875 C 27.179688 -7.597656 27.96875 -9.238281 27.96875 -11.34375 C 27.96875 -12.957031 27.488281 -14.289062 26.53125 -15.34375 C 25.582031 -16.394531 24.039062 -17.179688 21.90625 -17.703125 L 14.984375 -19.421875 C 11.296875 -20.304688 8.601562 -21.71875 6.90625 -23.65625 C 5.207031 -25.59375 4.359375 -27.984375 4.359375 -30.828125 C 4.359375 -33.066406 4.925781 -35.007812 6.0625 -36.65625 C 7.195312 -38.300781 8.835938 -39.570312 10.984375 -40.46875 C 13.128906 -41.363281 15.679688 -41.8125 18.640625 -41.8125 C 22.398438 -41.8125 25.363281 -41.28125 27.53125 -40.21875 C 29.707031 -39.164062 31.40625 -37.695312 32.625 -35.8125 L 29.203125 -32.46875 L 28.453125 -32.46875 C 27.140625 -33.976562 25.707031 -35.066406 24.15625 -35.734375 C 22.601562 -36.410156 20.765625 -36.75 18.640625 -36.75 C 15.929688 -36.75 13.859375 -36.265625 12.421875 -35.296875 C 10.984375 -34.328125 10.265625 -32.925781 10.265625 -31.09375 C 10.265625 -29.4375 10.769531 -28.097656 11.78125 -27.078125 C 12.800781 -26.054688 14.578125 -25.238281 17.109375 -24.625 L 23.921875 -22.984375 C 27.484375 -22.140625 30.054688 -20.738281 31.640625 -18.78125 C 33.234375 -16.820312 34.03125 -14.367188 34.03125 -11.421875 C 34.03125 -9.015625 33.457031 -6.894531 32.3125 -5.0625 C 31.175781 -3.226562 29.453125 -1.796875 27.140625 -0.765625 C 24.835938 0.265625 22.023438 0.78125 18.703125 0.78125 Z M 18.703125 0.78125 "/></g></g></g></svg>