<svg xmlns="http://www.w3.org/2000/svg" xmlns:xlink="http://www.w3.org/1999/xlink" width="500" zoomAndPan="magnify" viewBox="0 0 375 374.999991" height="500" preserveAspectRatio="xMidYMid meet" version="1.0"><defs><g/><clipPath id="e80cfd2f9f"><path d="M 58.394531 0 L 304.394531 0 L 304.394531 245 L 58.394531 245 Z M 58.394531 0 " clip-rule="nonzero"/></clipPath></defs><g clip-path="url(#e80cfd2f9f)"><path fill="#1877f2" d="M 304.394531 123 C 304.394531 55.070312 249.324219 0 181.394531 0 C 113.460938 0 58.394531 55.070312 58.394531 123 C 58.394531 184.394531 103.371094 235.277344 162.175781 244.507812 L 162.175781 158.554688 L 130.945312 158.554688 L 130.945312 123 L 162.175781 123 L 162.175781 95.902344 C 162.175781 65.074219 180.539062 48.046875 208.632812 48.046875 C 222.089844 48.046875 236.167969 50.449219 236.167969 50.449219 L 236.167969 80.71875 L 220.65625 80.71875 C 205.378906 80.71875 200.613281 90.199219 200.613281 99.925781 L 200.613281 123 L 234.726562 123 L 229.273438 158.554688 L 200.613281 158.554688 L 200.613281 244.507812 C 259.414062 235.277344 304.394531 184.394531 304.394531 123 " fill-opacity="1" fill-rule="nonzero"/></g><path fill="#ffffff" d="M 229.273438 158.554688 L 234.726562 123 L 200.613281 123 L 200.613281 99.925781 C 200.613281 90.199219 205.378906 80.71875 220.65625 80.71875 L 236.167969 80.71875 L 236.167969 50.449219 C 236.167969 50.449219 222.089844 48.046875 208.632812 48.046875 C 180.539062 48.046875 162.175781 65.074219 162.175781 95.902344 L 162.175781 123 L 130.945312 123 L 130.945312 158.554688 L 162.175781 158.554688 L 162.175781 244.507812 C 168.4375 245.488281 174.855469 246 181.394531 246 C 187.929688 246 194.351562 245.488281 200.613281 244.507812 L 200.613281 158.554688 L 229.273438 158.554688 " fill-opacity="1" fill-rule="nonzero"/><g fill="#000000" fill-opacity="1"><g transform="translate(11.067487, 357.410689)"><g><path d="M 40.171875 -54.375 L 40.171875 -49.09375 L 14.609375 -49.09375 L 14.609375 -29.3125 L 37.609375 -29.3125 L 37.609375 -23.984375 L 14.609375 -23.984375 L 14.609375 0 L 8.21875 0 L 8.21875 -54.375 Z M 40.171875 -54.375 "/></g></g></g><g fill="#000000" fill-opacity="1"><g transform="translate(54.17593, 357.410689)"><g><path d="M 16.921875 0.78125 C 12.878906 0.78125 9.722656 -0.269531 7.453125 -2.375 C 5.179688 -4.488281 4.046875 -7.503906 4.046875 -11.421875 C 4.046875 -13.847656 4.546875 -15.894531 5.546875 -17.5625 C 6.554688 -19.238281 8.113281 -20.601562 10.21875 -21.65625 C 12.332031 -22.71875 15.085938 -23.53125 18.484375 -24.09375 C 21.460938 -24.59375 23.722656 -25.148438 25.265625 -25.765625 C 26.816406 -26.390625 27.859375 -27.085938 28.390625 -27.859375 C 28.929688 -28.628906 29.203125 -29.597656 29.203125 -30.765625 C 29.203125 -32.617188 28.5625 -34.039062 27.28125 -35.03125 C 26 -36.03125 23.945312 -36.53125 21.125 -36.53125 C 18.46875 -36.53125 16.191406 -36.015625 14.296875 -34.984375 C 12.398438 -33.953125 10.660156 -32.421875 9.078125 -30.390625 L 8.328125 -30.390625 L 5.359375 -34.59375 C 7.085938 -36.800781 9.289062 -38.554688 11.96875 -39.859375 C 14.65625 -41.160156 17.707031 -41.8125 21.125 -41.8125 C 25.957031 -41.8125 29.519531 -40.75 31.8125 -38.625 C 34.113281 -36.5 35.265625 -33.566406 35.265625 -29.828125 L 35.265625 -8.078125 C 35.265625 -5.796875 36.226562 -4.65625 38.15625 -4.65625 C 38.800781 -4.65625 39.421875 -4.765625 40.015625 -4.984375 L 40.546875 -4.828125 L 41.25 -0.625 C 40.800781 -0.332031 40.210938 -0.109375 39.484375 0.046875 C 38.753906 0.210938 38.003906 0.296875 37.234375 0.296875 C 34.972656 0.296875 33.265625 -0.195312 32.109375 -1.1875 C 30.960938 -2.175781 30.226562 -3.640625 29.90625 -5.578125 L 29.125 -5.65625 C 27.957031 -3.5 26.378906 -1.882812 24.390625 -0.8125 C 22.410156 0.25 19.921875 0.78125 16.921875 0.78125 Z M 18.265625 -4.046875 C 20.546875 -4.046875 22.519531 -4.570312 24.1875 -5.625 C 25.863281 -6.6875 27.144531 -8.171875 28.03125 -10.078125 C 28.925781 -11.984375 29.375 -14.191406 29.375 -16.703125 L 29.375 -21.90625 L 28.671875 -22.0625 C 27.753906 -21.414062 26.640625 -20.875 25.328125 -20.4375 C 24.015625 -20 22.179688 -19.609375 19.828125 -19.265625 C 17.441406 -18.941406 15.546875 -18.445312 14.140625 -17.78125 C 12.742188 -17.113281 11.75 -16.265625 11.15625 -15.234375 C 10.5625 -14.203125 10.265625 -12.929688 10.265625 -11.421875 C 10.265625 -9.015625 10.96875 -7.179688 12.375 -5.921875 C 13.789062 -4.671875 15.753906 -4.046875 18.265625 -4.046875 Z M 18.265625 -4.046875 "/></g></g></g><g fill="#000000" fill-opacity="1"><g transform="translate(96.614872, 357.410689)"><g><path d="M 23.546875 0.78125 C 19.921875 0.78125 16.671875 -0.0390625 13.796875 -1.6875 C 10.921875 -3.34375 8.648438 -5.773438 6.984375 -8.984375 C 5.328125 -12.191406 4.5 -16.03125 4.5 -20.5 C 4.5 -24.976562 5.328125 -28.820312 6.984375 -32.03125 C 8.648438 -35.25 10.921875 -37.679688 13.796875 -39.328125 C 16.671875 -40.984375 19.921875 -41.8125 23.546875 -41.8125 C 27.878906 -41.8125 31.328125 -40.988281 33.890625 -39.34375 C 36.460938 -37.707031 38.320312 -35.523438 39.46875 -32.796875 L 35.328125 -29.828125 L 34.59375 -29.828125 C 33.476562 -32.085938 32.046875 -33.742188 30.296875 -34.796875 C 28.546875 -35.847656 26.296875 -36.375 23.546875 -36.375 C 21.015625 -36.375 18.789062 -35.773438 16.875 -34.578125 C 14.96875 -33.390625 13.488281 -31.601562 12.4375 -29.21875 C 11.382812 -26.84375 10.859375 -23.9375 10.859375 -20.5 C 10.859375 -17.070312 11.390625 -14.171875 12.453125 -11.796875 C 13.523438 -9.429688 15.007812 -7.648438 16.90625 -6.453125 C 18.800781 -5.253906 21.015625 -4.65625 23.546875 -4.65625 C 26.398438 -4.65625 28.757812 -5.296875 30.625 -6.578125 C 32.5 -7.867188 33.96875 -9.90625 35.03125 -12.6875 L 35.8125 -12.6875 L 39.796875 -10.34375 C 38.734375 -6.894531 36.832031 -4.175781 34.09375 -2.1875 C 31.351562 -0.207031 27.835938 0.78125 23.546875 0.78125 Z M 23.546875 0.78125 "/></g></g></g><g fill="#000000" fill-opacity="1"><g transform="translate(138.905036, 357.410689)"><g><path d="M 39.09375 -19.125 L 10.890625 -19.125 C 11.066406 -14.132812 12.265625 -10.472656 14.484375 -8.140625 C 16.703125 -5.816406 19.75 -4.65625 23.625 -4.65625 C 26.539062 -4.65625 28.890625 -5.171875 30.671875 -6.203125 C 32.460938 -7.242188 33.867188 -8.882812 34.890625 -11.125 L 35.671875 -11.125 L 39.609375 -8.78125 C 38.421875 -5.800781 36.519531 -3.460938 33.90625 -1.765625 C 31.289062 -0.0664062 27.863281 0.78125 23.625 0.78125 C 19.65625 0.78125 16.242188 0 13.390625 -1.5625 C 10.535156 -3.125 8.335938 -5.488281 6.796875 -8.65625 C 5.265625 -11.832031 4.5 -15.78125 4.5 -20.5 C 4.5 -25.15625 5.3125 -29.082031 6.9375 -32.28125 C 8.5625 -35.476562 10.78125 -37.863281 13.59375 -39.4375 C 16.40625 -41.019531 19.625 -41.8125 23.25 -41.8125 C 28.5 -41.8125 32.597656 -40.328125 35.546875 -37.359375 C 38.503906 -34.398438 39.992188 -30.003906 40.015625 -24.171875 C 40.015625 -21.890625 39.96875 -20.351562 39.875 -19.5625 Z M 34.03125 -24.171875 C 33.9375 -28.535156 32.96875 -31.707031 31.125 -33.6875 C 29.289062 -35.675781 26.664062 -36.671875 23.25 -36.671875 C 19.65625 -36.671875 16.832031 -35.671875 14.78125 -33.671875 C 12.738281 -31.679688 11.492188 -28.515625 11.046875 -24.171875 Z M 34.03125 -24.171875 "/></g></g></g><g fill="#000000" fill-opacity="1"><g transform="translate(182.645773, 357.410689)"><g><path d="M 27.265625 0.78125 C 24.210938 0.78125 21.5625 0.191406 19.3125 -0.984375 C 17.070312 -2.160156 15.296875 -3.71875 13.984375 -5.65625 L 13.203125 -5.5 L 13.203125 0 L 7.140625 0 L 7.140625 -57.5 L 13.203125 -57.5 L 13.203125 -34.890625 L 13.984375 -34.734375 C 17.109375 -39.453125 21.644531 -41.8125 27.59375 -41.8125 C 30.96875 -41.8125 33.921875 -41.03125 36.453125 -39.46875 C 38.984375 -37.90625 40.945312 -35.53125 42.34375 -32.34375 C 43.75 -29.15625 44.453125 -25.207031 44.453125 -20.5 C 44.453125 -15.832031 43.710938 -11.90625 42.234375 -8.71875 C 40.753906 -5.53125 38.722656 -3.148438 36.140625 -1.578125 C 33.566406 -0.00390625 30.609375 0.78125 27.265625 0.78125 Z M 25.8125 -4.65625 C 34 -4.65625 38.09375 -9.9375 38.09375 -20.5 C 38.09375 -25.976562 37.023438 -29.992188 34.890625 -32.546875 C 32.753906 -35.097656 29.726562 -36.375 25.8125 -36.375 C 21.96875 -36.375 18.90625 -35.066406 16.625 -32.453125 C 14.34375 -29.835938 13.203125 -25.851562 13.203125 -20.5 C 13.203125 -15.164062 14.34375 -11.191406 16.625 -8.578125 C 18.90625 -5.960938 21.96875 -4.65625 25.8125 -4.65625 Z M 25.8125 -4.65625 "/></g></g></g><g fill="#000000" fill-opacity="1"><g transform="translate(231.593742, 357.410689)"><g><path d="M 23.546875 0.78125 C 19.671875 0.78125 16.300781 -0.0351562 13.4375 -1.671875 C 10.582031 -3.304688 8.378906 -5.71875 6.828125 -8.90625 C 5.273438 -12.09375 4.5 -15.957031 4.5 -20.5 C 4.5 -25.03125 5.273438 -28.894531 6.828125 -32.09375 C 8.378906 -35.289062 10.582031 -37.707031 13.4375 -39.34375 C 16.300781 -40.988281 19.671875 -41.8125 23.546875 -41.8125 C 27.410156 -41.8125 30.773438 -40.988281 33.640625 -39.34375 C 36.503906 -37.707031 38.710938 -35.289062 40.265625 -32.09375 C 41.816406 -28.894531 42.59375 -25.03125 42.59375 -20.5 C 42.59375 -15.957031 41.816406 -12.09375 40.265625 -8.90625 C 38.710938 -5.71875 36.503906 -3.304688 33.640625 -1.671875 C 30.773438 -0.0351562 27.410156 0.78125 23.546875 0.78125 Z M 23.546875 -4.65625 C 27.640625 -4.65625 30.769531 -5.941406 32.9375 -8.515625 C 35.101562 -11.097656 36.1875 -15.09375 36.1875 -20.5 C 36.1875 -25.925781 35.101562 -29.925781 32.9375 -32.5 C 30.769531 -35.082031 27.640625 -36.375 23.546875 -36.375 C 19.453125 -36.375 16.3125 -35.078125 14.125 -32.484375 C 11.945312 -29.898438 10.859375 -25.90625 10.859375 -20.5 C 10.859375 -15.09375 11.945312 -11.097656 14.125 -8.515625 C 16.3125 -5.941406 19.453125 -4.65625 23.546875 -4.65625 Z M 23.546875 -4.65625 "/></g></g></g><g fill="#000000" fill-opacity="1"><g transform="translate(278.681984, 357.410689)"><g><path d="M 23.546875 0.78125 C 19.671875 0.78125 16.300781 -0.0351562 13.4375 -1.671875 C 10.582031 -3.304688 8.378906 -5.71875 6.828125 -8.90625 C 5.273438 -12.09375 4.5 -15.957031 4.5 -20.5 C 4.5 -25.03125 5.273438 -28.894531 6.828125 -32.09375 C 8.378906 -35.289062 10.582031 -37.707031 13.4375 -39.34375 C 16.300781 -40.988281 19.671875 -41.8125 23.546875 -41.8125 C 27.410156 -41.8125 30.773438 -40.988281 33.640625 -39.34375 C 36.503906 -37.707031 38.710938 -35.289062 40.265625 -32.09375 C 41.816406 -28.894531 42.59375 -25.03125 42.59375 -20.5 C 42.59375 -15.957031 41.816406 -12.09375 40.265625 -8.90625 C 38.710938 -5.71875 36.503906 -3.304688 33.640625 -1.671875 C 30.773438 -0.0351562 27.410156 0.78125 23.546875 0.78125 Z M 23.546875 -4.65625 C 27.640625 -4.65625 30.769531 -5.941406 32.9375 -8.515625 C 35.101562 -11.097656 36.1875 -15.09375 36.1875 -20.5 C 36.1875 -25.925781 35.101562 -29.925781 32.9375 -32.5 C 30.769531 -35.082031 27.640625 -36.375 23.546875 -36.375 C 19.453125 -36.375 16.3125 -35.078125 14.125 -32.484375 C 11.945312 -29.898438 10.859375 -25.90625 10.859375 -20.5 C 10.859375 -15.09375 11.945312 -11.097656 14.125 -8.515625 C 16.3125 -5.941406 19.453125 -4.65625 23.546875 -4.65625 Z M 23.546875 -4.65625 "/></g></g></g><g fill="#000000" fill-opacity="1"><g transform="translate(325.770227, 357.410689)"><g><path d="M 7.140625 0 L 7.140625 -57.5 L 13.203125 -57.5 L 13.203125 -23.921875 L 14.203125 -23.921875 L 29.453125 -41.03125 L 35.8125 -41.03125 L 35.8125 -40.171875 L 19.5625 -21.765625 L 37.375 -0.9375 L 37.375 0 L 30.609375 0 L 14.203125 -18.96875 L 13.203125 -18.96875 L 13.203125 0 Z M 7.140625 0 "/></g></g></g></svg>