<svg xmlns="http://www.w3.org/2000/svg" xmlns:xlink="http://www.w3.org/1999/xlink" width="500" zoomAndPan="magnify" viewBox="0 0 375 374.999991" height="500" preserveAspectRatio="xMidYMid meet" version="1.0"><defs><g/><clipPath id="e7e0488053"><path d="M 64.441406 0 L 310.441406 0 L 310.441406 246 L 64.441406 246 Z M 64.441406 0 " clip-rule="nonzero"/></clipPath></defs><g clip-path="url(#e7e0488053)"><path fill="#20ab4b" d="M 310.453125 123 C 310.453125 125.011719 310.40625 127.023438 310.304688 129.035156 C 310.207031 131.046875 310.058594 133.054688 309.863281 135.058594 C 309.664062 137.0625 309.417969 139.058594 309.125 141.050781 C 308.828125 143.039062 308.484375 145.023438 308.089844 147 C 307.699219 148.972656 307.257812 150.9375 306.769531 152.890625 C 306.277344 154.84375 305.742188 156.78125 305.15625 158.707031 C 304.574219 160.636719 303.941406 162.546875 303.265625 164.441406 C 302.585938 166.335938 301.859375 168.214844 301.089844 170.074219 C 300.320312 171.933594 299.503906 173.773438 298.644531 175.59375 C 297.785156 177.414062 296.878906 179.210938 295.929688 180.988281 C 294.980469 182.761719 293.988281 184.515625 292.953125 186.242188 C 291.917969 187.96875 290.839844 189.667969 289.722656 191.339844 C 288.605469 193.015625 287.445312 194.660156 286.246094 196.277344 C 285.046875 197.894531 283.808594 199.480469 282.53125 201.039062 C 281.253906 202.59375 279.941406 204.117188 278.589844 205.609375 C 277.238281 207.101562 275.847656 208.558594 274.425781 209.980469 C 273 211.40625 271.542969 212.792969 270.050781 214.144531 C 268.5625 215.496094 267.035156 216.8125 265.480469 218.089844 C 263.925781 219.367188 262.335938 220.605469 260.722656 221.804688 C 259.105469 223.003906 257.457031 224.160156 255.785156 225.28125 C 254.109375 226.398438 252.410156 227.476562 250.683594 228.511719 C 248.957031 229.546875 247.207031 230.539062 245.429688 231.488281 C 243.65625 232.4375 241.855469 233.339844 240.035156 234.203125 C 238.21875 235.0625 236.378906 235.878906 234.515625 236.648438 C 232.65625 237.417969 230.78125 238.144531 228.882812 238.820312 C 226.988281 239.5 225.078125 240.128906 223.152344 240.714844 C 221.226562 241.300781 219.285156 241.835938 217.332031 242.324219 C 215.378906 242.8125 213.414062 243.253906 211.441406 243.648438 C 209.464844 244.039062 207.484375 244.386719 205.492188 244.679688 C 203.5 244.976562 201.503906 245.222656 199.5 245.417969 C 197.496094 245.617188 195.488281 245.765625 193.480469 245.863281 C 191.46875 245.960938 189.457031 246.011719 187.441406 246.011719 C 185.429688 246.011719 183.417969 245.960938 181.40625 245.863281 C 179.394531 245.765625 177.390625 245.617188 175.386719 245.417969 C 173.382812 245.222656 171.382812 244.976562 169.394531 244.679688 C 167.402344 244.386719 165.417969 244.039062 163.445312 243.648438 C 161.46875 243.253906 159.507812 242.8125 157.554688 242.324219 C 155.601562 241.835938 153.660156 241.300781 151.734375 240.714844 C 149.808594 240.128906 147.898438 239.5 146 238.820312 C 144.105469 238.144531 142.226562 237.417969 140.367188 236.648438 C 138.507812 235.878906 136.667969 235.0625 134.847656 234.203125 C 133.027344 233.339844 131.230469 232.4375 129.457031 231.488281 C 127.679688 230.539062 125.929688 229.546875 124.203125 228.511719 C 122.476562 227.476562 120.773438 226.398438 119.101562 225.28125 C 117.425781 224.160156 115.78125 223.003906 114.164062 221.804688 C 112.546875 220.605469 110.960938 219.367188 109.40625 218.089844 C 107.847656 216.8125 106.324219 215.496094 104.832031 214.144531 C 103.339844 212.792969 101.882812 211.40625 100.460938 209.980469 C 99.035156 208.558594 97.648438 207.101562 96.296875 205.609375 C 94.945312 204.117188 93.628906 202.59375 92.351562 201.039062 C 91.078125 199.480469 89.839844 197.894531 88.640625 196.277344 C 87.441406 194.660156 86.28125 193.015625 85.164062 191.339844 C 84.042969 189.667969 82.96875 187.96875 81.933594 186.242188 C 80.898438 184.515625 79.90625 182.761719 78.957031 180.988281 C 78.007812 179.210938 77.101562 177.414062 76.242188 175.59375 C 75.378906 173.773438 74.566406 171.933594 73.792969 170.074219 C 73.023438 168.214844 72.300781 166.335938 71.621094 164.441406 C 70.945312 162.546875 70.3125 160.636719 69.726562 158.707031 C 69.144531 156.78125 68.605469 154.84375 68.117188 152.890625 C 67.628906 150.9375 67.1875 148.972656 66.792969 147 C 66.402344 145.023438 66.058594 143.039062 65.761719 141.050781 C 65.46875 139.058594 65.222656 137.0625 65.023438 135.058594 C 64.824219 133.054688 64.679688 131.046875 64.578125 129.035156 C 64.480469 127.023438 64.429688 125.011719 64.429688 123 C 64.429688 120.988281 64.480469 118.976562 64.578125 116.964844 C 64.679688 114.953125 64.824219 112.945312 65.023438 110.941406 C 65.222656 108.9375 65.46875 106.941406 65.761719 104.949219 C 66.058594 102.960938 66.402344 100.976562 66.792969 99 C 67.1875 97.027344 67.628906 95.0625 68.117188 93.109375 C 68.605469 91.15625 69.144531 89.21875 69.726562 87.292969 C 70.3125 85.363281 70.945312 83.453125 71.621094 81.558594 C 72.300781 79.664062 73.023438 77.785156 73.792969 75.925781 C 74.566406 74.066406 75.378906 72.226562 76.242188 70.40625 C 77.101562 68.585938 78.007812 66.789062 78.957031 65.011719 C 79.90625 63.238281 80.898438 61.484375 81.933594 59.757812 C 82.96875 58.03125 84.042969 56.332031 85.164062 54.660156 C 86.28125 52.984375 87.441406 51.339844 88.640625 49.722656 C 89.839844 48.105469 91.078125 46.519531 92.351562 44.960938 C 93.628906 43.40625 94.945312 41.882812 96.296875 40.390625 C 97.648438 38.898438 99.035156 37.441406 100.460938 36.015625 C 101.882812 34.59375 103.339844 33.207031 104.832031 31.855469 C 106.324219 30.503906 107.847656 29.1875 109.40625 27.910156 C 110.960938 26.632812 112.546875 25.394531 114.164062 24.195312 C 115.78125 22.996094 117.425781 21.839844 119.101562 20.71875 C 120.773438 19.601562 122.476562 18.523438 124.203125 17.488281 C 125.929688 16.453125 127.679688 15.460938 129.457031 14.511719 C 131.230469 13.5625 133.027344 12.660156 134.847656 11.796875 C 136.667969 10.9375 138.507812 10.121094 140.367188 9.351562 C 142.226562 8.582031 144.105469 7.855469 146 7.179688 C 147.898438 6.5 149.808594 5.871094 151.734375 5.285156 C 153.660156 4.699219 155.601562 4.164062 157.554688 3.675781 C 159.507812 3.1875 161.46875 2.746094 163.445312 2.351562 C 165.417969 1.960938 167.402344 1.613281 169.394531 1.320312 C 171.382812 1.023438 173.382812 0.777344 175.386719 0.582031 C 177.390625 0.382812 179.394531 0.234375 181.40625 0.136719 C 183.417969 0.0390625 185.429688 -0.0117188 187.441406 -0.0117188 C 189.457031 -0.0117188 191.46875 0.0390625 193.480469 0.136719 C 195.488281 0.234375 197.496094 0.382812 199.5 0.582031 C 201.503906 0.777344 203.5 1.023438 205.492188 1.320312 C 207.484375 1.613281 209.464844 1.960938 211.441406 2.351562 C 213.414062 2.746094 215.378906 3.1875 217.332031 3.675781 C 219.285156 4.164062 221.226562 4.699219 223.152344 5.285156 C 225.078125 5.871094 226.988281 6.5 228.882812 7.179688 C 230.78125 7.855469 232.65625 8.582031 234.515625 9.351562 C 236.378906 10.121094 238.21875 10.9375 240.035156 11.796875 C 241.855469 12.660156 243.65625 13.5625 245.429688 14.511719 C 247.207031 15.460938 248.957031 16.453125 250.683594 17.488281 C 252.410156 18.523438 254.109375 19.601562 255.785156 20.71875 C 257.457031 21.839844 259.105469 22.996094 260.722656 24.195312 C 262.335938 25.394531 263.925781 26.632812 265.480469 27.910156 C 267.035156 29.1875 268.5625 30.503906 270.050781 31.855469 C 271.542969 33.207031 273 34.59375 274.425781 36.015625 C 275.847656 37.441406 277.238281 38.898438 278.589844 40.390625 C 279.941406 41.882812 281.253906 43.40625 282.53125 44.960938 C 283.808594 46.519531 285.046875 48.105469 286.246094 49.722656 C 287.445312 51.339844 288.605469 52.984375 289.722656 54.660156 C 290.839844 56.332031 291.917969 58.03125 292.953125 59.757812 C 293.988281 61.484375 294.980469 63.238281 295.929688 65.011719 C 296.878906 66.789062 297.785156 68.585938 298.644531 70.40625 C 299.503906 72.226562 300.320312 74.066406 301.089844 75.925781 C 301.859375 77.785156 302.585938 79.664062 303.265625 81.558594 C 303.941406 83.453125 304.574219 85.363281 305.15625 87.292969 C 305.742188 89.21875 306.277344 91.15625 306.769531 93.109375 C 307.257812 95.0625 307.699219 97.027344 308.089844 99 C 308.484375 100.976562 308.828125 102.960938 309.125 104.949219 C 309.417969 106.941406 309.664062 108.9375 309.863281 110.941406 C 310.058594 112.945312 310.207031 114.953125 310.304688 116.964844 C 310.40625 118.976562 310.453125 120.988281 310.453125 123 Z M 310.453125 123 " fill-opacity="1" fill-rule="nonzero"/></g><path fill="#ffffff" d="M 187.441406 198.589844 C 180.851562 198.597656 174.371094 197.753906 168.003906 196.058594 C 161.632812 194.367188 155.589844 191.882812 149.875 188.601562 L 114.628906 198.046875 L 123.804688 163.804688 C 123.058594 162.636719 122.339844 161.449219 121.65625 160.242188 C 120.972656 159.035156 120.324219 157.808594 119.707031 156.566406 C 119.09375 155.324219 118.511719 154.066406 117.964844 152.792969 C 117.417969 151.515625 116.90625 150.226562 116.429688 148.925781 C 115.957031 147.621094 115.515625 146.308594 115.113281 144.980469 C 114.707031 143.652344 114.34375 142.316406 114.011719 140.96875 C 113.683594 139.621094 113.390625 138.265625 113.136719 136.90625 C 112.878906 135.542969 112.664062 134.171875 112.480469 132.796875 C 112.300781 131.421875 112.160156 130.042969 112.058594 128.660156 C 111.953125 127.277344 111.886719 125.890625 111.859375 124.503906 C 111.832031 123.117188 111.84375 121.730469 111.890625 120.347656 C 111.9375 118.960938 112.027344 117.574219 112.152344 116.195312 C 112.277344 114.8125 112.4375 113.4375 112.636719 112.0625 C 112.839844 110.691406 113.078125 109.324219 113.351562 107.96875 C 113.628906 106.609375 113.941406 105.257812 114.292969 103.914062 C 114.640625 102.574219 115.027344 101.242188 115.453125 99.921875 C 115.875 98.601562 116.335938 97.292969 116.828125 95.996094 C 117.324219 94.699219 117.855469 93.421875 118.421875 92.152344 C 118.988281 90.886719 119.585938 89.636719 120.222656 88.40625 C 120.855469 87.171875 121.523438 85.957031 122.226562 84.761719 C 122.929688 83.5625 123.660156 82.386719 124.429688 81.230469 C 125.195312 80.074219 125.992188 78.941406 126.820312 77.828125 C 127.648438 76.71875 128.507812 75.628906 129.394531 74.5625 C 130.285156 73.5 131.203125 72.460938 132.148438 71.445312 C 133.09375 70.429688 134.066406 69.441406 135.066406 68.480469 C 136.066406 67.519531 137.09375 66.589844 138.144531 65.683594 C 139.195312 64.78125 140.269531 63.90625 141.371094 63.058594 C 142.46875 62.214844 143.59375 61.398438 144.738281 60.617188 C 145.882812 59.832031 147.046875 59.082031 148.230469 58.363281 C 149.417969 57.644531 150.621094 56.957031 151.847656 56.304688 C 153.070312 55.652344 154.308594 55.03125 155.566406 54.449219 C 156.824219 53.863281 158.097656 53.3125 159.386719 52.796875 C 160.675781 52.285156 161.976562 51.804688 163.289062 51.363281 C 164.605469 50.917969 165.929688 50.511719 167.265625 50.140625 C 168.601562 49.773438 169.949219 49.4375 171.304688 49.144531 C 172.65625 48.847656 174.019531 48.589844 175.390625 48.367188 C 176.757812 48.144531 178.132812 47.960938 179.511719 47.816406 C 180.890625 47.671875 182.273438 47.566406 183.660156 47.496094 C 185.042969 47.425781 186.429688 47.394531 187.816406 47.402344 C 189.203125 47.410156 190.589844 47.453125 191.972656 47.535156 C 193.359375 47.621094 194.738281 47.742188 196.117188 47.898438 C 197.496094 48.058594 198.867188 48.257812 200.234375 48.492188 C 201.601562 48.726562 202.960938 49 204.3125 49.308594 C 205.664062 49.617188 207.007812 49.964844 208.339844 50.347656 C 209.671875 50.730469 210.992188 51.152344 212.304688 51.605469 C 213.613281 52.0625 214.910156 52.554688 216.191406 53.082031 C 217.476562 53.609375 218.742188 54.171875 219.992188 54.769531 C 221.246094 55.367188 222.480469 56 223.695312 56.664062 C 224.914062 57.328125 226.113281 58.027344 227.289062 58.757812 C 228.46875 59.488281 229.625 60.253906 230.761719 61.046875 C 231.898438 61.84375 233.011719 62.667969 234.105469 63.523438 C 235.195312 64.378906 236.261719 65.265625 237.304688 66.179688 C 238.347656 67.09375 239.363281 68.039062 240.355469 69.007812 C 241.34375 69.980469 242.308594 70.976562 243.242188 72 C 244.179688 73.023438 245.085938 74.074219 245.960938 75.148438 C 246.839844 76.222656 247.6875 77.316406 248.503906 78.4375 C 249.324219 79.558594 250.109375 80.699219 250.863281 81.863281 C 251.617188 83.027344 252.339844 84.210938 253.03125 85.414062 C 253.71875 86.617188 254.375 87.839844 254.996094 89.078125 C 255.621094 90.320312 256.207031 91.574219 256.761719 92.847656 C 257.3125 94.117188 257.832031 95.40625 258.3125 96.703125 C 258.796875 98.003906 259.242188 99.316406 259.652344 100.644531 C 260.0625 101.96875 260.4375 103.300781 260.773438 104.648438 C 261.109375 105.992188 261.410156 107.347656 261.671875 108.710938 C 261.933594 110.070312 262.15625 111.4375 262.34375 112.8125 C 262.53125 114.1875 262.679688 115.566406 262.789062 116.949219 C 262.902344 118.332031 262.972656 119.714844 263.007812 121.101562 C 263.042969 122.488281 263.039062 123.875 263 125.261719 C 262.957031 126.648438 262.878906 128.03125 262.757812 129.414062 C 262.640625 130.796875 262.484375 132.171875 262.292969 133.546875 C 262.097656 134.917969 261.867188 136.285156 261.597656 137.648438 C 261.332031 139.007812 261.023438 140.359375 260.679688 141.703125 C 260.335938 143.046875 259.957031 144.382812 259.542969 145.703125 C 259.125 147.027344 258.671875 148.335938 258.183594 149.636719 C 257.695312 150.933594 257.171875 152.214844 256.609375 153.484375 C 256.050781 154.753906 255.457031 156.007812 254.828125 157.242188 C 254.199219 158.480469 253.539062 159.699219 252.84375 160.898438 C 252.148438 162.097656 251.421875 163.277344 250.660156 164.4375 C 249.898438 165.597656 249.109375 166.738281 248.285156 167.851562 C 247.460938 168.96875 246.609375 170.0625 245.726562 171.132812 C 244.84375 172.199219 243.929688 173.246094 242.988281 174.265625 C 242.050781 175.285156 241.082031 176.277344 240.085938 177.242188 C 239.089844 178.207031 238.070312 179.144531 237.023438 180.054688 C 235.976562 180.964844 234.90625 181.84375 233.808594 182.695312 C 232.714844 183.546875 231.597656 184.367188 230.457031 185.15625 C 229.316406 185.945312 228.152344 186.703125 226.972656 187.429688 C 225.789062 188.152344 224.589844 188.84375 223.367188 189.503906 C 222.148438 190.164062 220.910156 190.789062 219.65625 191.378906 C 218.402344 191.972656 217.132812 192.527344 215.847656 193.046875 C 214.558594 193.570312 213.261719 194.054688 211.949219 194.503906 C 210.636719 194.953125 209.316406 195.367188 207.980469 195.746094 C 206.644531 196.121094 205.300781 196.460938 203.949219 196.765625 C 202.59375 197.066406 201.234375 197.332031 199.867188 197.5625 C 198.496094 197.789062 197.125 197.980469 195.746094 198.132812 C 194.367188 198.285156 192.984375 198.398438 191.601562 198.472656 C 190.214844 198.550781 188.828125 198.589844 187.441406 198.589844 Z M 152.429688 171.355469 L 155.402344 173.253906 C 156.429688 173.910156 157.480469 174.535156 158.550781 175.128906 C 159.617188 175.71875 160.703125 176.28125 161.804688 176.804688 C 162.910156 177.332031 164.027344 177.824219 165.160156 178.28125 C 166.292969 178.738281 167.441406 179.160156 168.597656 179.546875 C 169.757812 179.929688 170.925781 180.28125 172.109375 180.597656 C 173.289062 180.910156 174.476562 181.191406 175.675781 181.429688 C 176.875 181.671875 178.078125 181.878906 179.289062 182.042969 C 180.5 182.210938 181.710938 182.34375 182.929688 182.433594 C 184.148438 182.527344 185.367188 182.582031 186.589844 182.601562 C 187.8125 182.617188 189.035156 182.597656 190.253906 182.542969 C 191.476562 182.484375 192.691406 182.390625 193.90625 182.257812 C 195.121094 182.125 196.332031 181.957031 197.535156 181.75 C 198.738281 181.542969 199.9375 181.300781 201.125 181.019531 C 202.316406 180.738281 203.496094 180.421875 204.664062 180.070312 C 205.835938 179.71875 206.992188 179.332031 208.136719 178.90625 C 209.285156 178.484375 210.417969 178.023438 211.535156 177.53125 C 212.652344 177.039062 213.753906 176.511719 214.839844 175.949219 C 215.925781 175.386719 216.992188 174.792969 218.039062 174.167969 C 219.089844 173.539062 220.117188 172.882812 221.125 172.191406 C 222.132812 171.5 223.121094 170.78125 224.085938 170.03125 C 225.046875 169.28125 225.988281 168.5 226.90625 167.691406 C 227.820312 166.882812 228.710938 166.046875 229.574219 165.183594 C 230.441406 164.320312 231.277344 163.433594 232.089844 162.515625 C 232.898438 161.601562 233.679688 160.664062 234.433594 159.703125 C 235.183594 158.738281 235.90625 157.753906 236.597656 156.746094 C 237.289062 155.738281 237.949219 154.710938 238.578125 153.664062 C 239.207031 152.617188 239.804688 151.550781 240.367188 150.464844 C 240.929688 149.382812 241.457031 148.28125 241.953125 147.164062 C 242.449219 146.046875 242.910156 144.914062 243.335938 143.769531 C 243.761719 142.625 244.152344 141.46875 244.507812 140.300781 C 244.859375 139.128906 245.179688 137.949219 245.460938 136.761719 C 245.742188 135.574219 245.988281 134.375 246.199219 133.171875 C 246.40625 131.96875 246.578125 130.757812 246.710938 129.546875 C 246.847656 128.332031 246.941406 127.113281 247.003906 125.894531 C 247.0625 124.671875 247.082031 123.453125 247.066406 122.230469 C 247.050781 121.007812 247 119.789062 246.910156 118.570312 C 246.816406 117.351562 246.691406 116.136719 246.523438 114.925781 C 246.359375 113.714844 246.15625 112.511719 245.917969 111.3125 C 245.675781 110.113281 245.402344 108.925781 245.089844 107.742188 C 244.777344 106.5625 244.429688 105.390625 244.042969 104.230469 C 243.660156 103.074219 243.238281 101.925781 242.785156 100.792969 C 242.328125 99.65625 241.839844 98.539062 241.316406 97.433594 C 240.792969 96.332031 240.234375 95.246094 239.644531 94.175781 C 239.050781 93.105469 238.429688 92.054688 237.773438 91.023438 C 237.117188 89.992188 236.433594 88.980469 235.714844 87.992188 C 234.996094 87.003906 234.25 86.039062 233.472656 85.09375 C 232.695312 84.152344 231.890625 83.234375 231.058594 82.339844 C 230.226562 81.445312 229.367188 80.578125 228.480469 79.738281 C 227.59375 78.898438 226.679688 78.085938 225.742188 77.300781 C 224.808594 76.515625 223.847656 75.761719 222.863281 75.035156 C 221.882812 74.308594 220.878906 73.613281 219.851562 72.949219 C 218.824219 72.285156 217.78125 71.65625 216.714844 71.054688 C 215.652344 70.457031 214.570312 69.890625 213.46875 69.355469 C 212.371094 68.824219 211.257812 68.324219 210.125 67.859375 C 208.996094 67.394531 207.851562 66.964844 206.695312 66.570312 C 205.539062 66.175781 204.371094 65.816406 203.195312 65.496094 C 202.015625 65.171875 200.828125 64.886719 199.632812 64.636719 C 198.433594 64.386719 197.234375 64.175781 196.023438 64 C 194.8125 63.824219 193.601562 63.6875 192.382812 63.585938 C 191.164062 63.484375 189.945312 63.421875 188.722656 63.394531 C 187.503906 63.371094 186.28125 63.382812 185.0625 63.429688 C 183.839844 63.480469 182.621094 63.566406 181.40625 63.691406 C 180.191406 63.816406 178.980469 63.976562 177.773438 64.175781 C 176.570312 64.371094 175.371094 64.609375 174.179688 64.878906 C 172.988281 65.152344 171.804688 65.460938 170.632812 65.804688 C 169.460938 66.152344 168.300781 66.53125 167.152344 66.949219 C 166.003906 67.363281 164.871094 67.816406 163.75 68.300781 C 162.628906 68.789062 161.523438 69.308594 160.433594 69.859375 C 159.34375 70.414062 158.273438 71.003906 157.21875 71.621094 C 156.167969 72.242188 155.132812 72.894531 154.121094 73.578125 C 153.109375 74.261719 152.117188 74.972656 151.148438 75.71875 C 150.179688 76.460938 149.234375 77.234375 148.3125 78.039062 C 147.390625 78.839844 146.496094 79.671875 145.625 80.527344 C 144.753906 81.386719 143.910156 82.269531 143.09375 83.179688 C 142.277344 84.085938 141.492188 85.019531 140.734375 85.980469 C 139.972656 86.9375 139.246094 87.917969 138.546875 88.917969 C 137.847656 89.921875 137.179688 90.945312 136.546875 91.988281 C 135.910156 93.03125 135.308594 94.09375 134.738281 95.175781 C 134.167969 96.253906 133.628906 97.351562 133.128906 98.464844 C 132.625 99.578125 132.15625 100.707031 131.722656 101.851562 C 131.289062 102.992188 130.890625 104.148438 130.53125 105.3125 C 130.167969 106.480469 129.839844 107.65625 129.550781 108.84375 C 129.261719 110.03125 129.007812 111.226562 128.792969 112.429688 C 128.574219 113.632812 128.394531 114.839844 128.253906 116.054688 C 128.109375 117.265625 128.007812 118.484375 127.9375 119.703125 C 127.871094 120.921875 127.839844 122.144531 127.847656 123.367188 C 127.855469 124.585938 127.902344 125.808594 127.984375 127.027344 C 128.066406 128.246094 128.1875 129.460938 128.34375 130.671875 C 128.5 131.886719 128.695312 133.089844 128.925781 134.289062 C 129.160156 135.488281 129.425781 136.683594 129.730469 137.863281 C 130.035156 139.046875 130.378906 140.222656 130.753906 141.382812 C 131.132812 142.546875 131.542969 143.695312 131.992188 144.832031 C 132.4375 145.96875 132.921875 147.089844 133.4375 148.199219 C 133.953125 149.304688 134.503906 150.394531 135.085938 151.46875 C 135.671875 152.542969 136.289062 153.597656 136.9375 154.632812 C 137.585938 155.667969 138.265625 156.683594 138.976562 157.675781 L 141.179688 160.75 L 137.25 175.421875 Z M 152.429688 171.355469 " fill-opacity="1" fill-rule="nonzero"/><path fill="#20ab4b" d="M 187.441406 55.410156 C 184.351562 55.410156 181.273438 55.621094 178.210938 56.042969 C 175.148438 56.464844 172.128906 57.09375 169.152344 57.929688 C 166.179688 58.769531 163.273438 59.804688 160.4375 61.039062 C 157.605469 62.273438 154.867188 63.699219 152.230469 65.308594 C 149.589844 66.917969 147.074219 68.703125 144.679688 70.65625 C 142.285156 72.613281 140.039062 74.722656 137.933594 76.988281 C 135.828125 79.253906 133.886719 81.652344 132.113281 84.179688 C 130.335938 86.710938 128.742188 89.351562 127.328125 92.101562 C 125.917969 94.851562 124.699219 97.683594 123.671875 100.601562 C 122.648438 103.515625 121.828125 106.492188 121.210938 109.519531 C 120.59375 112.550781 120.1875 115.605469 119.988281 118.691406 C 119.792969 121.777344 119.808594 124.859375 120.03125 127.945312 C 120.257812 131.027344 120.695312 134.082031 121.339844 137.105469 C 121.984375 140.128906 122.832031 143.09375 123.882812 146 C 124.9375 148.90625 126.179688 151.726562 127.621094 154.464844 C 129.058594 157.199219 130.679688 159.824219 132.476562 162.339844 L 125.941406 186.734375 L 151.097656 179.996094 C 152.199219 180.699219 153.320312 181.367188 154.460938 182.003906 C 155.601562 182.640625 156.757812 183.246094 157.933594 183.816406 C 159.109375 184.386719 160.300781 184.921875 161.507812 185.421875 C 162.710938 185.925781 163.933594 186.390625 165.164062 186.820312 C 166.398438 187.25 167.644531 187.644531 168.898438 188.003906 C 170.15625 188.363281 171.421875 188.683594 172.695312 188.96875 C 173.96875 189.253906 175.253906 189.5 176.542969 189.710938 C 177.832031 189.921875 179.125 190.097656 180.421875 190.230469 C 181.722656 190.367188 183.023438 190.464844 184.328125 190.527344 C 185.632812 190.585938 186.941406 190.609375 188.246094 190.59375 C 189.550781 190.578125 190.855469 190.523438 192.160156 190.433594 C 193.464844 190.339844 194.761719 190.210938 196.058594 190.046875 C 197.351562 189.878906 198.644531 189.675781 199.925781 189.433594 C 201.210938 189.191406 202.484375 188.914062 203.753906 188.601562 C 205.023438 188.285156 206.277344 187.933594 207.527344 187.542969 C 208.773438 187.15625 210.007812 186.734375 211.230469 186.273438 C 212.453125 185.8125 213.660156 185.320312 214.855469 184.789062 C 216.050781 184.257812 217.226562 183.695312 218.390625 183.097656 C 219.550781 182.5 220.691406 181.867188 221.816406 181.203125 C 222.941406 180.539062 224.046875 179.84375 225.132812 179.113281 C 226.214844 178.386719 227.277344 177.628906 228.316406 176.835938 C 229.359375 176.046875 230.375 175.226562 231.367188 174.378906 C 232.359375 173.53125 233.328125 172.652344 234.269531 171.75 C 235.210938 170.84375 236.128906 169.914062 237.015625 168.953125 C 237.902344 167.996094 238.761719 167.011719 239.59375 166.003906 C 240.425781 164.996094 241.226562 163.964844 241.996094 162.914062 C 242.769531 161.859375 243.507812 160.78125 244.21875 159.683594 C 244.925781 158.589844 245.601562 157.472656 246.246094 156.335938 C 246.890625 155.199219 247.5 154.042969 248.078125 152.871094 C 248.65625 151.703125 249.199219 150.515625 249.707031 149.308594 C 250.214844 148.105469 250.6875 146.890625 251.125 145.660156 C 251.5625 144.429688 251.964844 143.1875 252.332031 141.933594 C 252.699219 140.679688 253.027344 139.414062 253.320312 138.140625 C 253.613281 136.871094 253.867188 135.589844 254.085938 134.300781 C 254.304688 133.011719 254.484375 131.71875 254.628906 130.421875 C 254.769531 129.125 254.878906 127.820312 254.945312 126.515625 C 255.011719 125.214844 255.042969 123.90625 255.035156 122.601562 C 255.027344 121.296875 254.980469 119.992188 254.898438 118.6875 C 254.816406 117.382812 254.695312 116.082031 254.535156 114.785156 C 254.375 113.488281 254.179688 112.199219 253.945312 110.914062 C 253.710938 109.628906 253.441406 108.351562 253.132812 107.082031 C 252.828125 105.8125 252.484375 104.554688 252.101562 103.304688 C 251.722656 102.054688 251.304688 100.816406 250.851562 99.589844 C 250.398438 98.367188 249.914062 97.15625 249.390625 95.957031 C 248.867188 94.761719 248.308594 93.578125 247.71875 92.414062 C 247.128906 91.25 246.503906 90.101562 245.847656 88.972656 C 245.1875 87.847656 244.5 86.738281 243.777344 85.648438 C 243.054688 84.558594 242.300781 83.492188 241.519531 82.449219 C 240.734375 81.402344 239.921875 80.382812 239.078125 79.382812 C 238.234375 78.386719 237.363281 77.414062 236.464844 76.464844 C 235.566406 75.519531 234.640625 74.597656 233.6875 73.703125 C 232.734375 72.8125 231.757812 71.945312 230.753906 71.109375 C 229.75 70.273438 228.726562 69.464844 227.675781 68.6875 C 226.625 67.910156 225.554688 67.164062 224.460938 66.449219 C 223.367188 65.730469 222.257812 65.050781 221.125 64.398438 C 219.992188 63.746094 218.839844 63.128906 217.671875 62.546875 C 216.503906 61.960938 215.320312 61.410156 214.121094 60.894531 C 212.917969 60.378906 211.707031 59.898438 210.476562 59.457031 C 209.25 59.011719 208.007812 58.601562 206.757812 58.226562 C 205.503906 57.855469 204.246094 57.519531 202.972656 57.21875 C 201.703125 56.917969 200.421875 56.65625 199.136719 56.429688 C 197.851562 56.203125 196.558594 56.015625 195.261719 55.863281 C 193.964844 55.710938 192.664062 55.597656 191.359375 55.523438 C 190.054688 55.445312 188.75 55.410156 187.441406 55.410156 Z M 187.441406 55.410156 " fill-opacity="1" fill-rule="nonzero"/><path fill="#ffffff" d="M 225.753906 153.121094 C 226.992188 150.082031 227.613281 144.035156 224.449219 142.207031 C 222.097656 140.847656 219.273438 139.992188 216.78125 138.929688 C 213.9375 137.714844 211.085938 136.242188 208.15625 135.246094 C 204.023438 133.84375 201.40625 137.5 198.726562 140.035156 C 198.148438 140.578125 196.925781 142.269531 196.03125 142.46875 C 194.917969 142.710938 193.191406 141.230469 192.261719 140.675781 C 190.53125 139.640625 188.847656 138.523438 187.214844 137.332031 C 182.101562 133.589844 177.640625 129.1875 173.828125 124.125 C 171.992188 121.683594 169.902344 118.933594 168.671875 116.113281 C 167.851562 114.226562 168.980469 113.648438 170.257812 112.300781 C 172.839844 109.566406 176.796875 106.761719 175.425781 102.554688 C 174.519531 99.773438 173.085938 97.0625 171.933594 94.378906 C 170.792969 91.710938 169.835938 88.824219 168.46875 86.261719 C 166.683594 82.917969 161.804688 83.496094 158.792969 84.503906 C 157.390625 84.90625 156.121094 85.566406 154.984375 86.472656 C 153.179688 88.09375 151.710938 89.976562 150.582031 92.125 C 146.570312 99.074219 147.851562 109.652344 151.6875 116.300781 C 157.097656 125.691406 161.96875 134.917969 169.882812 142.558594 C 177.617188 150.03125 187.347656 155.664062 196.957031 160.429688 C 201.5 162.683594 206.707031 162.296875 211.636719 162.171875 C 216.691406 162.042969 223.742188 158.078125 225.753906 153.121094 Z M 225.753906 153.121094 " fill-opacity="1" fill-rule="nonzero"/><g fill="#000000" fill-opacity="1"><g transform="translate(2.391859, 357.410629)"><g><path d="M 23.765625 0 L 15.390625 0 L 2.9375 -54.375 L 9.265625 -54.375 L 19.484375 -9.40625 L 20.421875 -9.40625 L 32.625 -54.375 L 38.53125 -54.375 L 50.734375 -9.40625 L 51.65625 -9.40625 L 61.921875 -54.375 L 68.0625 -54.375 L 55.640625 0 L 47.234375 0 L 35.890625 -41.171875 L 35.109375 -41.171875 Z M 23.765625 0 "/></g></g></g><g fill="#000000" fill-opacity="1"><g transform="translate(73.39618, 357.410629)"><g><path d="M 7.140625 0 L 7.140625 -57.5 L 13.203125 -57.5 L 13.203125 -35.1875 L 13.984375 -35.03125 C 16.910156 -39.550781 21.140625 -41.8125 26.671875 -41.8125 C 31.597656 -41.8125 35.171875 -40.550781 37.390625 -38.03125 C 39.617188 -35.507812 40.734375 -31.632812 40.734375 -26.40625 L 40.734375 0 L 34.671875 0 L 34.671875 -26.265625 C 34.671875 -28.742188 34.351562 -30.734375 33.71875 -32.234375 C 33.082031 -33.734375 32.097656 -34.820312 30.765625 -35.5 C 29.441406 -36.1875 27.703125 -36.53125 25.546875 -36.53125 C 21.828125 -36.53125 18.835938 -35.328125 16.578125 -32.921875 C 14.328125 -30.515625 13.203125 -26.554688 13.203125 -21.046875 L 13.203125 0 Z M 7.140625 0 "/></g></g></g><g fill="#000000" fill-opacity="1"><g transform="translate(120.6332, 357.410629)"><g><path d="M 16.921875 0.78125 C 12.878906 0.78125 9.722656 -0.269531 7.453125 -2.375 C 5.179688 -4.488281 4.046875 -7.503906 4.046875 -11.421875 C 4.046875 -13.847656 4.546875 -15.894531 5.546875 -17.5625 C 6.554688 -19.238281 8.113281 -20.601562 10.21875 -21.65625 C 12.332031 -22.71875 15.085938 -23.53125 18.484375 -24.09375 C 21.460938 -24.59375 23.722656 -25.148438 25.265625 -25.765625 C 26.816406 -26.390625 27.859375 -27.085938 28.390625 -27.859375 C 28.929688 -28.628906 29.203125 -29.597656 29.203125 -30.765625 C 29.203125 -32.617188 28.5625 -34.039062 27.28125 -35.03125 C 26 -36.03125 23.945312 -36.53125 21.125 -36.53125 C 18.46875 -36.53125 16.191406 -36.015625 14.296875 -34.984375 C 12.398438 -33.953125 10.660156 -32.421875 9.078125 -30.390625 L 8.328125 -30.390625 L 5.359375 -34.59375 C 7.085938 -36.800781 9.289062 -38.554688 11.96875 -39.859375 C 14.65625 -41.160156 17.707031 -41.8125 21.125 -41.8125 C 25.957031 -41.8125 29.519531 -40.75 31.8125 -38.625 C 34.113281 -36.5 35.265625 -33.566406 35.265625 -29.828125 L 35.265625 -8.078125 C 35.265625 -5.796875 36.226562 -4.65625 38.15625 -4.65625 C 38.800781 -4.65625 39.421875 -4.765625 40.015625 -4.984375 L 40.546875 -4.828125 L 41.25 -0.625 C 40.800781 -0.332031 40.210938 -0.109375 39.484375 0.046875 C 38.753906 0.210938 38.003906 0.296875 37.234375 0.296875 C 34.972656 0.296875 33.265625 -0.195312 32.109375 -1.1875 C 30.960938 -2.175781 30.226562 -3.640625 29.90625 -5.578125 L 29.125 -5.65625 C 27.957031 -3.5 26.378906 -1.882812 24.390625 -0.8125 C 22.410156 0.25 19.921875 0.78125 16.921875 0.78125 Z M 18.265625 -4.046875 C 20.546875 -4.046875 22.519531 -4.570312 24.1875 -5.625 C 25.863281 -6.6875 27.144531 -8.171875 28.03125 -10.078125 C 28.925781 -11.984375 29.375 -14.191406 29.375 -16.703125 L 29.375 -21.90625 L 28.671875 -22.0625 C 27.753906 -21.414062 26.640625 -20.875 25.328125 -20.4375 C 24.015625 -20 22.179688 -19.609375 19.828125 -19.265625 C 17.441406 -18.941406 15.546875 -18.445312 14.140625 -17.78125 C 12.742188 -17.113281 11.75 -16.265625 11.15625 -15.234375 C 10.5625 -14.203125 10.265625 -12.929688 10.265625 -11.421875 C 10.265625 -9.015625 10.96875 -7.179688 12.375 -5.921875 C 13.789062 -4.671875 15.753906 -4.046875 18.265625 -4.046875 Z M 18.265625 -4.046875 "/></g></g></g><g fill="#000000" fill-opacity="1"><g transform="translate(163.072142, 357.410629)"><g><path d="M 27.75 -6.515625 L 29.6875 -2.15625 C 28.71875 -1.1875 27.441406 -0.457031 25.859375 0.03125 C 24.285156 0.53125 22.582031 0.78125 20.75 0.78125 C 12.914062 0.78125 9 -3.1875 9 -11.125 L 9 -36.078125 L 1.859375 -36.078125 L 1.859375 -41.0625 L 9 -41.0625 L 9 -49.734375 L 15.0625 -50.734375 L 15.0625 -41.0625 L 28.265625 -41.0625 L 28.265625 -36.078125 L 15.0625 -36.078125 L 15.0625 -11.71875 C 15.0625 -7.007812 17.109375 -4.65625 21.203125 -4.65625 C 23.429688 -4.65625 25.351562 -5.273438 26.96875 -6.515625 Z M 27.75 -6.515625 "/></g></g></g><g fill="#000000" fill-opacity="1"><g transform="translate(194.315526, 357.410629)"><g><path d="M 18.703125 0.78125 C 16.128906 0.78125 13.742188 0.441406 11.546875 -0.234375 C 9.347656 -0.921875 7.492188 -1.859375 5.984375 -3.046875 C 4.472656 -4.234375 3.410156 -5.570312 2.796875 -7.0625 L 6.359375 -10.78125 L 7.140625 -10.78125 C 8.484375 -8.75 10.09375 -7.21875 11.96875 -6.1875 C 13.851562 -5.164062 16.097656 -4.65625 18.703125 -4.65625 C 21.734375 -4.65625 24.035156 -5.242188 25.609375 -6.421875 C 27.179688 -7.597656 27.96875 -9.238281 27.96875 -11.34375 C 27.96875 -12.957031 27.488281 -14.289062 26.53125 -15.34375 C 25.582031 -16.394531 24.039062 -17.179688 21.90625 -17.703125 L 14.984375 -19.421875 C 11.296875 -20.304688 8.601562 -21.71875 6.90625 -23.65625 C 5.207031 -25.59375 4.359375 -27.984375 4.359375 -30.828125 C 4.359375 -33.066406 4.925781 -35.007812 6.0625 -36.65625 C 7.195312 -38.300781 8.835938 -39.570312 10.984375 -40.46875 C 13.128906 -41.363281 15.679688 -41.8125 18.640625 -41.8125 C 22.398438 -41.8125 25.363281 -41.28125 27.53125 -40.21875 C 29.707031 -39.164062 31.40625 -37.695312 32.625 -35.8125 L 29.203125 -32.46875 L 28.453125 -32.46875 C 27.140625 -33.976562 25.707031 -35.066406 24.15625 -35.734375 C 22.601562 -36.410156 20.765625 -36.75 18.640625 -36.75 C 15.929688 -36.75 13.859375 -36.265625 12.421875 -35.296875 C 10.984375 -34.328125 10.265625 -32.925781 10.265625 -31.09375 C 10.265625 -29.4375 10.769531 -28.097656 11.78125 -27.078125 C 12.800781 -26.054688 14.578125 -25.238281 17.109375 -24.625 L 23.921875 -22.984375 C 27.484375 -22.140625 30.054688 -20.738281 31.640625 -18.78125 C 33.234375 -16.820312 34.03125 -14.367188 34.03125 -11.421875 C 34.03125 -9.015625 33.457031 -6.894531 32.3125 -5.0625 C 31.175781 -3.226562 29.453125 -1.796875 27.140625 -0.765625 C 24.835938 0.265625 22.023438 0.78125 18.703125 0.78125 Z M 18.703125 0.78125 "/></g></g></g><g fill="#000000" fill-opacity="1"><g transform="translate(232.25392, 357.410629)"><g><path d="M 16.921875 0.78125 C 12.878906 0.78125 9.722656 -0.269531 7.453125 -2.375 C 5.179688 -4.488281 4.046875 -7.503906 4.046875 -11.421875 C 4.046875 -13.847656 4.546875 -15.894531 5.546875 -17.5625 C 6.554688 -19.238281 8.113281 -20.601562 10.21875 -21.65625 C 12.332031 -22.71875 15.085938 -23.53125 18.484375 -24.09375 C 21.460938 -24.59375 23.722656 -25.148438 25.265625 -25.765625 C 26.816406 -26.390625 27.859375 -27.085938 28.390625 -27.859375 C 28.929688 -28.628906 29.203125 -29.597656 29.203125 -30.765625 C 29.203125 -32.617188 28.5625 -34.039062 27.28125 -35.03125 C 26 -36.03125 23.945312 -36.53125 21.125 -36.53125 C 18.46875 -36.53125 16.191406 -36.015625 14.296875 -34.984375 C 12.398438 -33.953125 10.660156 -32.421875 9.078125 -30.390625 L 8.328125 -30.390625 L 5.359375 -34.59375 C 7.085938 -36.800781 9.289062 -38.554688 11.96875 -39.859375 C 14.65625 -41.160156 17.707031 -41.8125 21.125 -41.8125 C 25.957031 -41.8125 29.519531 -40.75 31.8125 -38.625 C 34.113281 -36.5 35.265625 -33.566406 35.265625 -29.828125 L 35.265625 -8.078125 C 35.265625 -5.796875 36.226562 -4.65625 38.15625 -4.65625 C 38.800781 -4.65625 39.421875 -4.765625 40.015625 -4.984375 L 40.546875 -4.828125 L 41.25 -0.625 C 40.800781 -0.332031 40.210938 -0.109375 39.484375 0.046875 C 38.753906 0.210938 38.003906 0.296875 37.234375 0.296875 C 34.972656 0.296875 33.265625 -0.195312 32.109375 -1.1875 C 30.960938 -2.175781 30.226562 -3.640625 29.90625 -5.578125 L 29.125 -5.65625 C 27.957031 -3.5 26.378906 -1.882812 24.390625 -0.8125 C 22.410156 0.25 19.921875 0.78125 16.921875 0.78125 Z M 18.265625 -4.046875 C 20.546875 -4.046875 22.519531 -4.570312 24.1875 -5.625 C 25.863281 -6.6875 27.144531 -8.171875 28.03125 -10.078125 C 28.925781 -11.984375 29.375 -14.191406 29.375 -16.703125 L 29.375 -21.90625 L 28.671875 -22.0625 C 27.753906 -21.414062 26.640625 -20.875 25.328125 -20.4375 C 24.015625 -20 22.179688 -19.609375 19.828125 -19.265625 C 17.441406 -18.941406 15.546875 -18.445312 14.140625 -17.78125 C 12.742188 -17.113281 11.75 -16.265625 11.15625 -15.234375 C 10.5625 -14.203125 10.265625 -12.929688 10.265625 -11.421875 C 10.265625 -9.015625 10.96875 -7.179688 12.375 -5.921875 C 13.789062 -4.671875 15.753906 -4.046875 18.265625 -4.046875 Z M 18.265625 -4.046875 "/></g></g></g><g fill="#000000" fill-opacity="1"><g transform="translate(274.692862, 357.410629)"><g><path d="M 7.140625 16.625 L 7.140625 -41.03125 L 13.203125 -41.03125 L 13.203125 -34.890625 L 13.984375 -34.734375 C 17.035156 -39.453125 21.507812 -41.8125 27.40625 -41.8125 C 30.832031 -41.8125 33.820312 -41.03125 36.375 -39.46875 C 38.925781 -37.90625 40.910156 -35.53125 42.328125 -32.34375 C 43.742188 -29.15625 44.453125 -25.207031 44.453125 -20.5 C 44.453125 -15.8125 43.707031 -11.878906 42.21875 -8.703125 C 40.726562 -5.523438 38.664062 -3.148438 36.03125 -1.578125 C 33.40625 -0.00390625 30.382812 0.78125 26.96875 0.78125 C 24.1875 0.78125 21.71875 0.296875 19.5625 -0.671875 C 17.40625 -1.640625 15.546875 -3.226562 13.984375 -5.4375 L 13.203125 -5.28125 L 13.203125 16.625 Z M 25.625 -4.65625 C 33.9375 -4.65625 38.09375 -9.9375 38.09375 -20.5 C 38.09375 -31.082031 33.9375 -36.375 25.625 -36.375 C 23.195312 -36.375 21.050781 -35.816406 19.1875 -34.703125 C 17.332031 -33.585938 15.867188 -31.84375 14.796875 -29.46875 C 13.734375 -27.101562 13.203125 -24.113281 13.203125 -20.5 C 13.203125 -16.894531 13.734375 -13.910156 14.796875 -11.546875 C 15.867188 -9.179688 17.332031 -7.441406 19.1875 -6.328125 C 21.050781 -5.210938 23.195312 -4.65625 25.625 -4.65625 Z M 25.625 -4.65625 "/></g></g></g><g fill="#000000" fill-opacity="1"><g transform="translate(323.64083, 357.410629)"><g><path d="M 7.140625 16.625 L 7.140625 -41.03125 L 13.203125 -41.03125 L 13.203125 -34.890625 L 13.984375 -34.734375 C 17.035156 -39.453125 21.507812 -41.8125 27.40625 -41.8125 C 30.832031 -41.8125 33.820312 -41.03125 36.375 -39.46875 C 38.925781 -37.90625 40.910156 -35.53125 42.328125 -32.34375 C 43.742188 -29.15625 44.453125 -25.207031 44.453125 -20.5 C 44.453125 -15.8125 43.707031 -11.878906 42.21875 -8.703125 C 40.726562 -5.523438 38.664062 -3.148438 36.03125 -1.578125 C 33.40625 -0.00390625 30.382812 0.78125 26.96875 0.78125 C 24.1875 0.78125 21.71875 0.296875 19.5625 -0.671875 C 17.40625 -1.640625 15.546875 -3.226562 13.984375 -5.4375 L 13.203125 -5.28125 L 13.203125 16.625 Z M 25.625 -4.65625 C 33.9375 -4.65625 38.09375 -9.9375 38.09375 -20.5 C 38.09375 -31.082031 33.9375 -36.375 25.625 -36.375 C 23.195312 -36.375 21.050781 -35.816406 19.1875 -34.703125 C 17.332031 -33.585938 15.867188 -31.84375 14.796875 -29.46875 C 13.734375 -27.101562 13.203125 -24.113281 13.203125 -20.5 C 13.203125 -16.894531 13.734375 -13.910156 14.796875 -11.546875 C 15.867188 -9.179688 17.332031 -7.441406 19.1875 -6.328125 C 21.050781 -5.210938 23.195312 -4.65625 25.625 -4.65625 Z M 25.625 -4.65625 "/></g></g></g></svg>