<svg version="1.1" id="Layer_1" xmlns="http://www.w3.org/2000/svg" xmlns:xlink="http://www.w3.org/1999/xlink" x="0px" y="0px"
	 width="100%" viewBox="0 0 1418 304" enable-background="new 0 0 1418 304" xml:space="preserve">
<path fill="#010101" opacity="1.000000" stroke="none" 
	d="
M930.000000,305.000000 
	C620.000061,305.000000 310.500061,305.000000 1.000083,305.000000 
	C1.000055,203.666718 1.000055,102.333435 1.000028,1.000110 
	C473.666534,1.000074 946.333069,1.000074 1418.999756,1.000037 
	C1418.999756,102.333214 1418.999756,203.666428 1418.999878,304.999817 
	C1256.166626,305.000000 1093.333374,305.000000 930.000000,305.000000 
M465.349915,180.500198 
	C465.349915,167.197662 465.349915,153.895142 465.349915,140.364105 
	C455.913757,140.364105 446.857208,140.364105 438.186584,140.364105 
	C438.186584,178.484650 438.186584,216.325974 438.186584,254.200012 
	C437.476990,252.973022 436.667358,251.590652 435.874146,250.198914 
	C415.700775,214.803665 395.545288,179.398132 375.302887,144.042389 
	C374.416229,142.493729 372.765991,140.301987 371.421417,140.265778 
	C360.151642,139.962173 348.870148,140.093079 337.501862,140.093079 
	C337.501862,190.352875 337.501862,240.072250 337.501862,289.665955 
	C346.912262,289.665955 355.994171,289.665955 364.495728,289.665955 
	C364.495728,252.037277 364.495728,214.747269 364.495728,176.996414 
	C365.518677,178.774399 366.338928,180.179291 367.139801,181.595154 
	C386.869476,216.477020 406.579376,251.370148 426.384796,286.208984 
	C427.247772,287.726990 428.957733,289.802216 430.317444,289.836090 
	C441.930237,290.124939 453.553345,290.001556 465.349915,290.001556 
	C465.349915,253.474716 465.349915,217.487473 465.349915,180.500198 
M237.508469,137.967239 
	C232.531082,138.312836 227.530014,138.456589 222.580215,139.037384 
	C194.332718,142.351883 173.199448,160.413391 165.760117,187.861115 
	C160.772110,206.264465 160.839828,224.869919 166.292984,243.078979 
	C173.461273,267.015228 189.120300,283.220886 213.700027,288.971985 
	C224.074982,291.399445 235.152100,292.097046 245.837067,291.685577 
	C275.674164,290.536591 299.325531,272.921570 308.736389,245.888016 
	C313.922119,230.991562 314.703033,215.652313 312.940063,200.051468 
	C309.707397,171.444916 291.869019,149.053726 265.069183,141.674179 
	C256.517822,139.319489 247.367096,139.141312 237.508469,137.967239 
M1391.561768,209.912003 
	C1381.370361,206.938034 1371.190552,203.923950 1360.984253,201.001877 
	C1351.576782,198.308487 1341.914062,196.318924 1332.785767,192.894226 
	C1324.746704,189.878113 1321.723633,183.893738 1322.443237,176.486145 
	C1323.161255,169.094650 1327.360718,164.143784 1335.604736,162.136612 
	C1340.413696,160.965775 1345.460938,160.306854 1350.408691,160.261566 
	C1364.552979,160.132126 1376.674194,163.693359 1380.938232,179.645874 
	C1391.082520,178.271942 1400.936401,176.937332 1410.767456,175.605835 
	C1410.164185,161.706543 1399.975586,147.790894 1385.594604,143.061920 
	C1362.970703,135.622406 1339.981812,135.556335 1317.435547,143.353561 
	C1300.847900,149.090088 1292.353638,161.539810 1291.882324,178.394287 
	C1291.364136,196.923660 1298.519897,209.074432 1315.683472,215.978302 
	C1325.483032,219.920090 1336.005737,222.068146 1346.210693,224.996475 
	C1355.292725,227.602539 1364.581177,229.643097 1373.413208,232.918411 
	C1380.839355,235.672394 1385.176514,241.550583 1384.603638,250.009964 
	C1384.020264,258.625183 1378.949341,264.156311 1370.995850,265.819763 
	C1362.949951,267.502533 1354.547241,268.272919 1346.322632,268.135590 
	C1331.270142,267.884216 1319.393921,262.154602 1315.076172,245.926361 
	C1304.884155,247.626205 1294.942993,249.284241 1284.989014,250.944366 
	C1288.148926,266.885437 1297.247559,279.136414 1311.945068,285.012817 
	C1337.052246,295.051331 1362.734985,294.928497 1388.090454,286.082031 
	C1404.456787,280.371887 1413.903320,268.441986 1415.073242,250.675217 
	C1416.289185,232.206207 1409.578613,218.200775 1391.561768,209.912003 
M1231.907349,245.099792 
	C1229.028076,254.349197 1223.535400,261.419098 1214.300781,264.844940 
	C1204.804565,268.367889 1195.052124,268.444672 1185.385620,265.387787 
	C1177.436768,262.874054 1171.510498,257.648834 1169.103638,249.752151 
	C1167.195435,243.491486 1166.052368,236.759232 1165.975708,230.219879 
	C1165.645630,202.060654 1165.833984,173.895370 1165.833496,145.732285 
	C1165.833496,143.961716 1165.833618,142.191147 1165.833618,140.412231 
	C1154.985352,140.412231 1144.754272,140.412231 1134.616577,140.412231 
	C1134.424805,141.038971 1134.248779,141.345810 1134.248657,141.652679 
	C1134.241455,173.480988 1133.762573,205.319000 1134.398315,237.134705 
	C1134.958008,265.151703 1149.103271,282.978912 1174.943848,289.445465 
	C1192.056885,293.728058 1209.339600,293.389832 1226.266724,288.185608 
	C1244.506104,282.577972 1257.399170,271.006744 1262.506714,252.290970 
	C1264.406616,245.329590 1265.008789,237.842560 1265.080688,230.584091 
	C1265.362427,202.090515 1265.200684,173.592499 1265.186646,145.096130 
	C1265.185913,143.504150 1265.032104,141.912216 1264.950439,140.337387 
	C1254.425171,140.337387 1244.336304,140.337387 1233.877197,140.337387 
	C1233.877197,142.379761 1233.877075,144.177689 1233.877075,145.975616 
	C1233.876953,173.305466 1233.973999,200.635956 1233.794434,227.964630 
	C1233.758667,233.412399 1232.666748,238.853241 1231.907349,245.099792 
M619.236511,289.778137 
	C629.500427,289.778137 639.764404,289.778137 650.151123,289.778137 
	C654.582581,277.061493 658.941467,264.553040 663.368958,251.847763 
	C681.705566,251.847763 699.850464,251.775360 717.991516,252.004272 
	C719.253723,252.020203 721.102783,254.050369 721.637024,255.522079 
	C725.762878,266.887939 729.631653,278.347046 733.586731,289.796448 
	C743.965576,289.796448 754.044128,289.796448 764.636108,289.796448 
	C763.360718,286.204559 762.225159,282.943665 761.047119,279.698120 
	C744.670654,234.582977 728.294556,189.467636 711.887573,144.363541 
	C711.147766,142.329803 711.058228,139.931015 707.577026,140.002869 
	C696.262024,140.236435 684.939209,140.090240 673.291443,140.090240 
	C655.189148,189.765625 637.119751,239.350601 619.236511,289.778137 
M46.183609,251.227005 
	C43.750454,245.444168 40.653919,239.841278 39.025871,233.840027 
	C35.889252,222.277954 36.258781,210.412323 38.084042,198.633835 
	C41.213581,178.438812 53.245510,165.683884 71.890465,163.229446 
	C93.959656,160.324249 111.559723,169.149826 117.892586,186.463623 
	C117.977379,186.695450 118.418777,186.796829 118.821915,187.034744 
	C127.612572,184.601303 136.493530,182.142883 145.628235,179.614212 
	C140.288620,163.658005 130.913986,151.806503 115.946259,145.084076 
	C96.340446,136.278549 75.840027,135.966309 55.292461,140.679489 
	C30.896822,146.275345 15.406148,161.687210 8.779467,185.766220 
	C3.682482,204.286850 3.587047,223.031082 8.447209,241.564926 
	C14.274171,263.785583 27.668535,279.726440 49.738457,287.307587 
	C68.181137,293.642761 87.055679,294.084137 105.763855,288.651031 
	C126.120560,282.739197 139.568832,269.108704 147.505829,249.230820 
	C138.268188,245.742828 129.341095,242.372101 120.243149,238.936874 
	C113.969177,254.338547 104.041603,265.143616 87.116920,266.923737 
	C71.289162,268.588531 56.861958,265.561584 46.183609,251.227005 
M837.564575,139.026688 
	C809.924622,143.144226 791.041565,157.836884 783.189758,185.078262 
	C777.924561,203.345566 777.803101,222.002808 782.388794,240.413666 
	C788.492737,264.919617 803.553284,281.445862 828.049866,288.718964 
	C839.523926,292.125641 851.361206,292.837311 863.203979,291.811707 
	C891.008667,289.403900 910.953430,275.875214 921.798645,249.263397 
	C912.719299,245.823883 903.750122,242.426102 894.586182,238.954559 
	C893.577332,241.101059 892.724792,243.064941 891.749695,244.965942 
	C883.111267,261.806641 868.982178,268.936493 848.154114,266.994354 
	C831.516052,265.442932 818.933044,254.859390 814.121643,237.715179 
	C809.849854,222.493423 809.746582,207.072021 813.985535,191.817032 
	C818.338989,176.150040 828.340454,166.145569 844.703796,163.479446 
	C868.134460,159.661850 886.497437,169.716324 892.104065,186.545135 
	C892.172974,186.751862 892.661621,186.818695 893.102844,187.017883 
	C901.901428,184.589371 910.814392,182.129272 919.874695,179.628525 
	C913.991272,161.885605 902.906372,149.565552 885.729919,143.145294 
	C870.398132,137.414520 854.509949,136.951462 837.564575,139.026688 
M562.515625,215.500275 
	C562.515625,198.586624 562.515625,181.672974 562.515625,164.394012 
	C579.058655,164.394012 594.838562,164.394012 610.662842,164.394012 
	C610.662842,156.122818 610.662842,148.231415 610.662842,140.338501 
	C567.930542,140.338501 525.514099,140.338501 483.085388,140.338501 
	C483.085388,148.463501 483.085388,156.332016 483.085388,164.584244 
	C499.201874,164.584244 514.948547,164.584244 531.109253,164.584244 
	C531.109253,206.548477 531.109253,248.119995 531.109253,289.707092 
	C541.755310,289.707092 551.976868,289.707092 562.515625,289.707092 
	C562.515625,265.107422 562.515625,240.803864 562.515625,215.500275 
M1009.974548,284.391815 
	C1009.974548,244.584137 1009.974548,204.776459 1009.974548,164.466431 
	C1026.210327,164.466431 1042.137817,164.466431 1058.139160,164.466431 
	C1058.139160,156.066956 1058.139160,148.175705 1058.139160,140.369141 
	C1015.338928,140.369141 972.908752,140.369141 930.490662,140.369141 
	C930.490662,148.515106 930.490662,156.378052 930.490662,164.672195 
	C946.634644,164.672195 962.394653,164.672195 978.640015,164.672195 
	C978.640015,206.655533 978.640015,248.197754 978.640015,289.843628 
	C989.249878,289.843628 999.362610,289.843628 1009.974548,289.843628 
	C1009.974548,288.251160 1009.974548,286.808899 1009.974548,284.391815 
M484.828735,35.510670 
	C490.465057,45.114433 496.090393,54.724689 501.742218,64.319313 
	C504.695190,69.332283 505.816925,69.366470 508.675873,64.486656 
	C514.641113,54.304932 520.557007,44.094345 526.519043,33.910774 
	C527.086609,32.941391 527.836792,32.078926 529.272949,30.110418 
	C529.272949,45.965340 529.272949,60.399368 529.272949,75.073074 
	C531.342773,74.971390 533.075989,74.886246 534.790771,74.802010 
	C534.790771,55.608513 534.790771,36.831913 534.790771,18.221157 
	C531.020996,16.872183 529.274658,18.603254 527.561829,21.645088 
	C520.424805,34.319946 513.010376,46.838600 505.348846,60.014366 
	C497.522552,46.655632 489.972504,33.964577 482.659302,21.138456 
	C480.971588,18.178524 479.075989,17.071077 475.786530,18.267792 
	C475.786530,37.089184 475.786530,55.946465 475.786530,74.864151 
	C477.766357,74.864151 479.403290,74.864151 481.511810,74.864151 
	C481.511810,60.495689 481.511810,46.279289 481.511810,30.529947 
	C483.032074,32.825775 483.704346,33.840984 484.828735,35.510670 
M627.636230,20.884598 
	C620.141663,33.755272 612.647034,46.625950 604.842834,60.028343 
	C597.073242,46.782654 589.593262,34.269714 582.399719,21.594231 
	C580.667053,18.541077 578.858948,16.983372 575.292236,18.166277 
	C575.292236,37.040352 575.292236,55.942230 575.292236,75.066696 
	C577.317200,74.959335 579.049194,74.867508 581.233521,74.751694 
	C581.233521,60.029354 581.233521,45.718761 581.233521,30.312124 
	C588.488586,42.639881 595.101990,53.949989 601.796448,65.211952 
	C604.057129,69.015068 605.450012,69.006523 607.704529,65.267235 
	C610.192078,61.141338 612.543884,56.933743 614.976501,52.774452 
	C619.108582,45.709385 623.257812,38.654324 627.399902,31.595062 
	C627.788330,31.694904 628.176819,31.794746 628.565308,31.894590 
	C628.565308,46.198811 628.565308,60.503029 628.565308,74.849258 
	C630.846008,74.849258 632.480225,74.849258 634.144043,74.849258 
	C634.144043,55.819855 634.144043,36.955833 634.144043,16.507105 
	C631.475464,18.105738 629.733948,19.149025 627.636230,20.884598 
M387.868561,60.496582 
	C387.868561,65.273499 387.868561,70.050407 387.868561,75.088844 
	C390.161194,74.962463 391.889923,74.867165 393.537781,74.776329 
	C393.537781,55.590233 393.537781,36.851864 393.537781,18.139238 
	C388.673859,17.777893 388.662750,17.771399 386.596069,21.307878 
	C384.079681,25.614014 381.585907,29.933374 379.079468,34.245338 
	C374.209503,42.623463 369.337524,51.000439 364.090881,60.023617 
	C356.282501,46.681725 348.818085,34.139339 341.606781,21.453079 
	C339.861450,18.382656 337.983917,16.925539 334.349792,18.316935 
	C334.349792,37.009220 334.349792,55.772587 334.349792,74.778793 
	C336.274689,74.778793 338.002655,74.778793 340.174011,74.778793 
	C340.174011,60.273033 340.174011,45.913113 340.174011,30.233688 
	C341.749847,32.707020 342.639923,34.017063 343.443054,35.378437 
	C349.271820,45.259384 355.052795,55.168674 360.914307,65.030106 
	C363.376190,69.171944 364.622955,69.171051 367.061859,65.028999 
	C373.135956,54.713131 379.128082,44.349037 385.185791,34.023464 
	C385.768524,33.030151 386.580078,32.171078 387.868561,30.487850 
	C387.868561,40.889172 387.868561,50.193192 387.868561,60.496582 
M1007.711365,21.697258 
	C1007.711365,27.188070 1007.711365,32.678883 1007.711365,38.862141 
	C996.226135,29.607393 983.466919,29.656456 975.542542,38.262871 
	C968.001770,46.452698 968.046509,60.726822 975.638550,68.906143 
	C983.792542,77.690971 996.463074,77.454674 1007.756653,68.118332 
	C1007.904358,70.485832 1008.041504,72.684158 1008.191101,75.081017 
	C1010.138672,74.981102 1011.734070,74.899261 1013.445984,74.811440 
	C1013.445984,54.592800 1013.445984,34.667107 1013.445984,14.528131 
	C1011.474792,14.528131 1009.760437,14.528131 1007.711426,14.528131 
	C1007.711426,16.802294 1007.711426,18.782608 1007.711365,21.697258 
M407.142365,45.618858 
	C407.274078,57.388969 411.914825,66.716461 422.664520,72.032791 
	C433.746735,77.513580 444.861084,76.760078 455.482727,70.395027 
	C456.659363,69.689903 458.220398,68.337379 458.261047,67.235573 
	C458.515900,60.331837 458.389862,53.414051 458.389862,46.531746 
	C456.079651,46.531746 454.487366,46.531746 452.443237,46.531746 
	C452.443237,51.431232 452.082977,56.097572 452.544281,60.681232 
	C453.008057,65.289558 450.930695,67.449997 446.916687,68.526405 
	C445.473114,68.913506 444.039948,69.364487 442.574677,69.641685 
	C429.264862,72.159569 416.455658,64.152779 413.923737,51.762787 
	C411.132812,38.105530 418.847748,26.008390 432.320099,23.361246 
	C440.714844,21.711788 448.435791,23.592819 455.130402,29.440790 
	C456.440674,27.941153 457.476715,26.755369 458.707275,25.346960 
	C449.031616,16.818060 438.237274,15.314819 426.776642,19.080853 
	C414.615814,23.076981 408.360931,32.092506 407.142365,45.618858 
M856.995361,70.019264 
	C848.629639,70.870163 840.981262,68.948143 834.033752,63.453571 
	C833.166138,65.395805 832.528442,66.823357 831.769592,68.522247 
	C842.569519,76.022186 853.743713,77.714241 865.601013,73.028313 
	C871.604675,70.655739 874.476624,65.790230 874.351868,59.253529 
	C874.230591,52.893658 870.566895,49.153339 865.041809,47.009743 
	C861.804321,45.753685 858.375854,44.997917 855.059631,43.935066 
	C851.278137,42.723110 847.280029,41.884747 843.815918,40.052441 
	C837.939331,36.944080 837.573547,29.499620 843.022339,25.672922 
	C845.091980,24.219463 847.938538,22.932447 850.342041,23.074429 
	C856.948181,23.464664 863.507202,24.651932 870.667297,25.601002 
	C870.467529,26.027891 870.835754,25.304535 871.147034,24.557444 
	C871.441467,23.850872 871.676270,23.119438 872.034790,22.129976 
	C861.967590,16.848469 851.980835,15.267825 841.632141,19.938463 
	C835.946777,22.504427 833.087036,27.213284 833.140930,33.460117 
	C833.194885,39.701748 836.695862,43.709866 842.228333,45.929737 
	C845.601685,47.283306 849.199341,48.068439 852.666077,49.201305 
	C856.441162,50.434891 860.431396,51.311790 863.880859,53.172764 
	C869.763611,56.346466 869.895020,63.757961 864.296692,67.463127 
	C862.424255,68.702301 860.020203,69.138184 856.995361,70.019264 
M690.699646,61.487442 
	C690.699646,51.729618 690.699646,41.971798 690.699646,31.919823 
	C688.306641,32.042580 686.587769,32.130753 684.261719,32.250072 
	C684.261719,41.164974 684.521912,49.656139 684.165466,58.121334 
	C683.946716,63.314739 680.991455,67.136757 675.992737,69.065163 
	C665.947021,72.940582 657.767151,67.696327 657.335449,56.784603 
	C657.013489,48.647007 657.271912,40.486450 657.271912,32.215263 
	C655.188782,32.215263 653.423462,32.215263 651.817810,32.215263 
	C651.817810,42.226192 651.278809,52.047859 651.988403,61.778473 
	C652.555115,69.549736 658.086243,74.077370 665.845886,75.163666 
	C673.210022,76.194588 679.573059,74.381874 684.974426,67.821510 
	C684.974426,70.761047 684.974426,72.693291 684.974426,74.716797 
	C686.970764,74.716797 688.680786,74.716797 690.699646,74.716797 
	C690.699646,70.433411 690.699646,66.457550 690.699646,61.487442 
M1047.735718,50.190071 
	C1048.047363,53.799030 1047.747803,57.595074 1048.784424,60.982216 
	C1052.029053,71.585037 1062.472046,77.118820 1074.249878,74.978981 
	C1085.035889,73.019333 1091.824707,63.480999 1091.071655,51.344627 
	C1090.416748,40.790249 1082.415405,32.679764 1071.855591,31.866302 
	C1059.238037,30.894331 1050.454712,37.306744 1047.735718,50.190071 
M953.013428,74.832634 
	C954.602478,74.832634 956.191528,74.832634 958.043457,74.832634 
	C958.043457,61.075195 958.046631,47.623093 958.033264,34.171013 
	C958.032593,33.540909 957.883789,32.910954 957.804871,32.287956 
	C955.865479,32.287956 954.142761,32.287956 952.080688,32.287956 
	C952.080688,40.029076 952.187439,47.489586 952.054138,54.945805 
	C951.879700,64.699249 946.458801,70.192574 937.401123,70.053223 
	C928.798828,69.920891 924.932922,65.339554 924.875000,55.099087 
	C924.831970,47.496639 924.866516,39.893753 924.866516,32.297520 
	C922.590576,32.297520 920.866638,32.297520 919.021362,32.297520 
	C919.021362,41.722424 918.749878,50.862736 919.100586,59.979115 
	C919.427551,68.475571 925.097229,74.036041 933.499573,75.176086 
	C940.657898,76.147331 946.849792,74.301491 952.146606,68.390373 
	C952.271057,70.892357 952.353149,72.543045 953.013428,74.832634 
M705.648743,36.157005 
	C699.437561,44.251495 702.012512,52.183792 711.828308,54.830246 
	C716.472473,56.082352 721.351318,56.611641 725.826782,58.270115 
	C727.650574,58.945930 729.797058,61.764362 729.772156,63.580215 
	C729.746521,65.449890 727.508728,67.598938 725.751099,69.024063 
	C724.617493,69.943192 722.543884,70.230347 720.997803,70.019920 
	C715.056885,69.211288 709.158813,68.087593 702.630249,66.976868 
	C702.429443,67.361015 701.701172,68.754501 700.997742,70.100410 
	C708.684570,75.490738 720.683472,77.013580 728.427979,73.767960 
	C733.592896,71.603401 736.205322,67.791512 736.041565,62.658504 
	C735.883789,57.712345 733.309692,54.592140 727.587708,52.991234 
	C723.435669,51.829575 719.162720,51.107349 714.973328,50.069431 
	C711.414490,49.187744 708.021729,47.740707 708.416382,43.290127 
	C708.789062,39.087479 712.162964,37.142780 715.770203,37.193871 
	C721.257629,37.271599 726.731323,38.314987 732.853027,39.022457 
	C733.077026,38.547222 733.745850,37.128223 734.628174,35.256283 
	C724.721375,31.317434 715.444763,29.416096 705.648743,36.157005 
M773.809937,35.137733 
	C765.454407,41.539429 762.464905,49.857956 764.984924,59.694073 
	C767.073792,67.847809 773.739563,73.904114 782.101929,75.039589 
	C790.454773,76.173759 797.863281,74.701210 803.248047,66.930550 
	C801.605164,65.842407 800.283508,64.967033 799.018494,64.129173 
	C791.461914,71.528664 781.297668,72.082535 774.862793,65.656845 
	C768.697144,59.500019 768.612915,47.887081 774.688110,41.583637 
	C781.054626,34.977924 790.922180,35.468460 799.195251,42.968582 
	C800.434509,42.089581 801.716431,41.180370 802.991028,40.276295 
	C796.864807,31.181713 785.767578,29.141771 773.809937,35.137733 
M897.258240,75.187393 
	C899.889404,74.994698 902.603699,75.142601 905.131165,74.525398 
	C908.492737,73.704544 910.110962,71.846092 906.821533,68.829453 
	C905.005920,69.292511 903.290344,69.961655 901.525879,70.136299 
	C896.379028,70.645752 893.382812,68.360283 893.230225,63.241169 
	C892.973877,54.642368 893.160095,46.030373 893.160095,37.017876 
	C897.609436,37.017876 901.698914,37.017876 905.966614,37.017876 
	C905.966614,35.208111 905.966614,33.809586 905.966614,31.829384 
	C901.594788,31.829384 897.382202,31.829384 892.885864,31.829384 
	C892.885864,28.475431 892.885864,25.703051 892.885864,22.958588 
	C890.829895,22.958588 889.085754,22.958588 887.054565,22.958588 
	C887.054565,26.068136 887.054565,28.845850 887.054565,32.007004 
	C884.523438,32.007004 882.273621,32.007004 879.835938,32.007004 
	C879.835938,33.814018 879.835938,35.228512 879.835938,37.034203 
	C882.299438,37.034203 884.548889,37.034203 887.163635,37.034203 
	C887.163635,45.702492 887.073364,53.985760 887.190308,62.266106 
	C887.296936,69.813301 889.728088,73.016762 897.258240,75.187393 
M746.440979,64.458221 
	C746.440979,67.897392 746.440979,71.336571 746.440979,74.741798 
	C748.730103,74.741798 750.467285,74.741798 752.204651,74.741798 
	C752.204651,60.379162 752.204651,46.316559 752.204651,32.288387 
	C750.204102,32.288387 748.471008,32.288387 746.441101,32.288387 
	C746.441101,42.888210 746.441101,53.178665 746.440979,64.458221 
M1035.796265,41.554131 
	C1035.796265,38.449638 1035.796265,35.345142 1035.796265,32.313152 
	C1033.469849,32.313152 1031.741943,32.313152 1030.086182,32.313152 
	C1030.086182,46.685188 1030.086182,60.735737 1030.086182,75.067719 
	C1032.091431,74.963303 1033.814697,74.873566 1035.796265,74.770386 
	C1035.796265,63.758251 1035.796265,53.147858 1035.796265,41.554131 
M747.391846,22.138279 
	C749.428528,21.435480 751.668274,21.023212 753.366516,19.836220 
	C753.820557,19.518852 753.086365,16.027657 752.063721,15.436691 
	C750.720459,14.660465 748.103943,14.643236 746.833313,15.493114 
	C744.360596,17.146984 744.642822,19.623949 747.391846,22.138279 
M1028.771240,17.132267 
	C1028.022461,20.720596 1029.761475,22.964060 1033.108521,22.520308 
	C1034.585205,22.324528 1036.738281,19.507240 1036.784424,17.830568 
	C1036.885132,14.181114 1032.807007,13.541148 1028.771240,17.132267 
z"/>
<path fill="#FCFCFC" opacity="1.000000" stroke="none" 
	d="
M465.349915,181.000214 
	C465.349915,217.487473 465.349915,253.474716 465.349915,290.001556 
	C453.553345,290.001556 441.930237,290.124939 430.317444,289.836090 
	C428.957733,289.802216 427.247772,287.726990 426.384796,286.208984 
	C406.579376,251.370148 386.869476,216.477020 367.139801,181.595154 
	C366.338928,180.179291 365.518677,178.774399 364.495728,176.996414 
	C364.495728,214.747269 364.495728,252.037277 364.495728,289.665955 
	C355.994171,289.665955 346.912262,289.665955 337.501862,289.665955 
	C337.501862,240.072250 337.501862,190.352875 337.501862,140.093079 
	C348.870148,140.093079 360.151642,139.962173 371.421417,140.265778 
	C372.765991,140.301987 374.416229,142.493729 375.302887,144.042389 
	C395.545288,179.398132 415.700775,214.803665 435.874146,250.198914 
	C436.667358,251.590652 437.476990,252.973022 438.186584,254.200012 
	C438.186584,216.325974 438.186584,178.484650 438.186584,140.364105 
	C446.857208,140.364105 455.913757,140.364105 465.349915,140.364105 
	C465.349915,153.895142 465.349915,167.197662 465.349915,181.000214 
z"/>
<path fill="#FDFDFD" opacity="1.000000" stroke="none" 
	d="
M237.999542,137.967255 
	C247.367096,139.141312 256.517822,139.319489 265.069183,141.674179 
	C291.869019,149.053726 309.707397,171.444916 312.940063,200.051468 
	C314.703033,215.652313 313.922119,230.991562 308.736389,245.888016 
	C299.325531,272.921570 275.674164,290.536591 245.837067,291.685577 
	C235.152100,292.097046 224.074982,291.399445 213.700027,288.971985 
	C189.120300,283.220886 173.461273,267.015228 166.292984,243.078979 
	C160.839828,224.869919 160.772110,206.264465 165.760117,187.861115 
	C173.199448,160.413391 194.332718,142.351883 222.580215,139.037384 
	C227.530014,138.456589 232.531082,138.312836 237.999542,137.967255 
M272.788239,250.187225 
	C283.133820,232.448807 283.791321,213.487915 279.029175,194.201126 
	C274.028564,173.948456 259.278656,162.911972 238.409027,162.772507 
	C216.953995,162.629135 202.447769,173.286499 196.785416,193.595688 
	C192.803497,207.877563 192.856232,222.298828 197.107803,236.445999 
	C201.968246,252.619156 212.164093,264.000671 229.463211,266.613342 
	C246.363846,269.165771 261.671875,265.832672 272.788239,250.187225 
z"/>
<path fill="#FCFCFC" opacity="1.000000" stroke="none" 
	d="
M1391.916260,210.034912 
	C1409.578613,218.200775 1416.289185,232.206207 1415.073242,250.675217 
	C1413.903320,268.441986 1404.456787,280.371887 1388.090454,286.082031 
	C1362.734985,294.928497 1337.052246,295.051331 1311.945068,285.012817 
	C1297.247559,279.136414 1288.148926,266.885437 1284.989014,250.944366 
	C1294.942993,249.284241 1304.884155,247.626205 1315.076172,245.926361 
	C1319.393921,262.154602 1331.270142,267.884216 1346.322632,268.135590 
	C1354.547241,268.272919 1362.949951,267.502533 1370.995850,265.819763 
	C1378.949341,264.156311 1384.020264,258.625183 1384.603638,250.009964 
	C1385.176514,241.550583 1380.839355,235.672394 1373.413208,232.918411 
	C1364.581177,229.643097 1355.292725,227.602539 1346.210693,224.996475 
	C1336.005737,222.068146 1325.483032,219.920090 1315.683472,215.978302 
	C1298.519897,209.074432 1291.364136,196.923660 1291.882324,178.394287 
	C1292.353638,161.539810 1300.847900,149.090088 1317.435547,143.353561 
	C1339.981812,135.556335 1362.970703,135.622406 1385.594604,143.061920 
	C1399.975586,147.790894 1410.164185,161.706543 1410.767456,175.605835 
	C1400.936401,176.937332 1391.082520,178.271942 1380.938232,179.645874 
	C1376.674194,163.693359 1364.552979,160.132126 1350.408691,160.261566 
	C1345.460938,160.306854 1340.413696,160.965775 1335.604736,162.136612 
	C1327.360718,164.143784 1323.161255,169.094650 1322.443237,176.486145 
	C1321.723633,183.893738 1324.746704,189.878113 1332.785767,192.894226 
	C1341.914062,196.318924 1351.576782,198.308487 1360.984253,201.001877 
	C1371.190552,203.923950 1381.370361,206.938034 1391.916260,210.034912 
z"/>
<path fill="#FCFCFC" opacity="1.000000" stroke="none" 
	d="
M1231.984619,244.698547 
	C1232.666748,238.853241 1233.758667,233.412399 1233.794434,227.964630 
	C1233.973999,200.635956 1233.876953,173.305466 1233.877075,145.975616 
	C1233.877075,144.177689 1233.877197,142.379761 1233.877197,140.337387 
	C1244.336304,140.337387 1254.425171,140.337387 1264.950439,140.337387 
	C1265.032104,141.912216 1265.185913,143.504150 1265.186646,145.096130 
	C1265.200684,173.592499 1265.362427,202.090515 1265.080688,230.584091 
	C1265.008789,237.842560 1264.406616,245.329590 1262.506714,252.290970 
	C1257.399170,271.006744 1244.506104,282.577972 1226.266724,288.185608 
	C1209.339600,293.389832 1192.056885,293.728058 1174.943848,289.445465 
	C1149.103271,282.978912 1134.958008,265.151703 1134.398315,237.134705 
	C1133.762573,205.319000 1134.241455,173.480988 1134.248657,141.652679 
	C1134.248779,141.345810 1134.424805,141.038971 1134.616577,140.412231 
	C1144.754272,140.412231 1154.985352,140.412231 1165.833618,140.412231 
	C1165.833618,142.191147 1165.833496,143.961716 1165.833496,145.732285 
	C1165.833984,173.895370 1165.645630,202.060654 1165.975708,230.219879 
	C1166.052368,236.759232 1167.195435,243.491486 1169.103638,249.752151 
	C1171.510498,257.648834 1177.436768,262.874054 1185.385620,265.387787 
	C1195.052124,268.444672 1204.804565,268.367889 1214.300781,264.844940 
	C1223.535400,261.419098 1229.028076,254.349197 1231.984619,244.698547 
z"/>
<path fill="#FDFDFD" opacity="1.000000" stroke="none" 
	d="
M619.143433,289.356873 
	C637.119751,239.350601 655.189148,189.765625 673.291443,140.090240 
	C684.939209,140.090240 696.262024,140.236435 707.577026,140.002869 
	C711.058228,139.931015 711.147766,142.329803 711.887573,144.363541 
	C728.294556,189.467636 744.670654,234.582977 761.047119,279.698120 
	C762.225159,282.943665 763.360718,286.204559 764.636108,289.796448 
	C754.044128,289.796448 743.965576,289.796448 733.586731,289.796448 
	C729.631653,278.347046 725.762878,266.887939 721.637024,255.522079 
	C721.102783,254.050369 719.253723,252.020203 717.991516,252.004272 
	C699.850464,251.775360 681.705566,251.847763 663.368958,251.847763 
	C658.941467,264.553040 654.582581,277.061493 650.151123,289.778137 
	C639.764404,289.778137 629.500427,289.778137 619.143433,289.356873 
M697.630859,181.896622 
	C695.816467,176.281586 694.002075,170.666550 691.986389,164.428711 
	C684.695190,186.049759 677.683472,206.841843 670.625732,227.770615 
	C685.041199,227.770615 698.930237,227.770615 713.171326,227.770615 
	C707.995239,212.493820 702.940369,197.575043 697.630859,181.896622 
z"/>
<path fill="#FCFCFC" opacity="1.000000" stroke="none" 
	d="
M46.407806,251.510071 
	C56.861958,265.561584 71.289162,268.588531 87.116920,266.923737 
	C104.041603,265.143616 113.969177,254.338547 120.243149,238.936874 
	C129.341095,242.372101 138.268188,245.742828 147.505829,249.230820 
	C139.568832,269.108704 126.120560,282.739197 105.763855,288.651031 
	C87.055679,294.084137 68.181137,293.642761 49.738457,287.307587 
	C27.668535,279.726440 14.274171,263.785583 8.447209,241.564926 
	C3.587047,223.031082 3.682482,204.286850 8.779467,185.766220 
	C15.406148,161.687210 30.896822,146.275345 55.292461,140.679489 
	C75.840027,135.966309 96.340446,136.278549 115.946259,145.084076 
	C130.913986,151.806503 140.288620,163.658005 145.628235,179.614212 
	C136.493530,182.142883 127.612572,184.601303 118.821915,187.034744 
	C118.418777,186.796829 117.977379,186.695450 117.892586,186.463623 
	C111.559723,169.149826 93.959656,160.324249 71.890465,163.229446 
	C53.245510,165.683884 41.213581,178.438812 38.084042,198.633835 
	C36.258781,210.412323 35.889252,222.277954 39.025871,233.840027 
	C40.653919,239.841278 43.750454,245.444168 46.407806,251.510071 
z"/>
<path fill="#FCFCFC" opacity="1.000000" stroke="none" 
	d="
M838.005615,138.989136 
	C854.509949,136.951462 870.398132,137.414520 885.729919,143.145294 
	C902.906372,149.565552 913.991272,161.885605 919.874695,179.628525 
	C910.814392,182.129272 901.901428,184.589371 893.102844,187.017883 
	C892.661621,186.818695 892.172974,186.751862 892.104065,186.545135 
	C886.497437,169.716324 868.134460,159.661850 844.703796,163.479446 
	C828.340454,166.145569 818.338989,176.150040 813.985535,191.817032 
	C809.746582,207.072021 809.849854,222.493423 814.121643,237.715179 
	C818.933044,254.859390 831.516052,265.442932 848.154114,266.994354 
	C868.982178,268.936493 883.111267,261.806641 891.749695,244.965942 
	C892.724792,243.064941 893.577332,241.101059 894.586182,238.954559 
	C903.750122,242.426102 912.719299,245.823883 921.798645,249.263397 
	C910.953430,275.875214 891.008667,289.403900 863.203979,291.811707 
	C851.361206,292.837311 839.523926,292.125641 828.049866,288.718964 
	C803.553284,281.445862 788.492737,264.919617 782.388794,240.413666 
	C777.803101,222.002808 777.924561,203.345566 783.189758,185.078262 
	C791.041565,157.836884 809.924622,143.144226 838.005615,138.989136 
z"/>
<path fill="#FCFCFC" opacity="1.000000" stroke="none" 
	d="
M562.515625,216.000275 
	C562.515625,240.803864 562.515625,265.107422 562.515625,289.707092 
	C551.976868,289.707092 541.755310,289.707092 531.109253,289.707092 
	C531.109253,248.119995 531.109253,206.548477 531.109253,164.584244 
	C514.948547,164.584244 499.201874,164.584244 483.085388,164.584244 
	C483.085388,156.332016 483.085388,148.463501 483.085388,140.338501 
	C525.514099,140.338501 567.930542,140.338501 610.662842,140.338501 
	C610.662842,148.231415 610.662842,156.122818 610.662842,164.394012 
	C594.838562,164.394012 579.058655,164.394012 562.515625,164.394012 
	C562.515625,181.672974 562.515625,198.586624 562.515625,216.000275 
z"/>
<path fill="#FDFDFD" opacity="1.000000" stroke="none" 
	d="
M1009.974548,284.879242 
	C1009.974548,286.808899 1009.974548,288.251160 1009.974548,289.843628 
	C999.362610,289.843628 989.249878,289.843628 978.640015,289.843628 
	C978.640015,248.197754 978.640015,206.655533 978.640015,164.672195 
	C962.394653,164.672195 946.634644,164.672195 930.490662,164.672195 
	C930.490662,156.378052 930.490662,148.515106 930.490662,140.369141 
	C972.908752,140.369141 1015.338928,140.369141 1058.139160,140.369141 
	C1058.139160,148.175705 1058.139160,156.066956 1058.139160,164.466431 
	C1042.137817,164.466431 1026.210327,164.466431 1009.974548,164.466431 
	C1009.974548,204.776459 1009.974548,244.584137 1009.974548,284.879242 
z"/>
<path fill="#F2F2F2" opacity="1.000000" stroke="none" 
	d="
M484.602661,35.183434 
	C483.704346,33.840984 483.032074,32.825775 481.511810,30.529947 
	C481.511810,46.279289 481.511810,60.495689 481.511810,74.864151 
	C479.403290,74.864151 477.766357,74.864151 475.786530,74.864151 
	C475.786530,55.946465 475.786530,37.089184 475.786530,18.267792 
	C479.075989,17.071077 480.971588,18.178524 482.659302,21.138456 
	C489.972504,33.964577 497.522552,46.655632 505.348846,60.014366 
	C513.010376,46.838600 520.424805,34.319946 527.561829,21.645088 
	C529.274658,18.603254 531.020996,16.872183 534.790771,18.221157 
	C534.790771,36.831913 534.790771,55.608513 534.790771,74.802010 
	C533.075989,74.886246 531.342773,74.971390 529.272949,75.073074 
	C529.272949,60.399368 529.272949,45.965340 529.272949,30.110418 
	C527.836792,32.078926 527.086609,32.941391 526.519043,33.910774 
	C520.557007,44.094345 514.641113,54.304932 508.675873,64.486656 
	C505.816925,69.366470 504.695190,69.332283 501.742218,64.319313 
	C496.090393,54.724689 490.465057,45.114433 484.602661,35.183434 
z"/>
<path fill="#F7F7F7" opacity="1.000000" stroke="none" 
	d="
M627.814331,20.538456 
	C629.733948,19.149025 631.475464,18.105738 634.144043,16.507105 
	C634.144043,36.955833 634.144043,55.819855 634.144043,74.849258 
	C632.480225,74.849258 630.846008,74.849258 628.565308,74.849258 
	C628.565308,60.503029 628.565308,46.198811 628.565308,31.894590 
	C628.176819,31.794746 627.788330,31.694904 627.399902,31.595062 
	C623.257812,38.654324 619.108582,45.709385 614.976501,52.774452 
	C612.543884,56.933743 610.192078,61.141338 607.704529,65.267235 
	C605.450012,69.006523 604.057129,69.015068 601.796448,65.211952 
	C595.101990,53.949989 588.488586,42.639881 581.233521,30.312124 
	C581.233521,45.718761 581.233521,60.029354 581.233521,74.751694 
	C579.049194,74.867508 577.317200,74.959335 575.292236,75.066696 
	C575.292236,55.942230 575.292236,37.040352 575.292236,18.166277 
	C578.858948,16.983372 580.667053,18.541077 582.399719,21.594231 
	C589.593262,34.269714 597.073242,46.782654 604.842834,60.028343 
	C612.647034,46.625950 620.141663,33.755272 627.814331,20.538456 
z"/>
<path fill="#F3F3F3" opacity="1.000000" stroke="none" 
	d="
M387.868561,59.996899 
	C387.868561,50.193192 387.868561,40.889172 387.868561,30.487850 
	C386.580078,32.171078 385.768524,33.030151 385.185791,34.023464 
	C379.128082,44.349037 373.135956,54.713131 367.061859,65.028999 
	C364.622955,69.171051 363.376190,69.171944 360.914307,65.030106 
	C355.052795,55.168674 349.271820,45.259384 343.443054,35.378437 
	C342.639923,34.017063 341.749847,32.707020 340.174011,30.233688 
	C340.174011,45.913113 340.174011,60.273033 340.174011,74.778793 
	C338.002655,74.778793 336.274689,74.778793 334.349792,74.778793 
	C334.349792,55.772587 334.349792,37.009220 334.349792,18.316935 
	C337.983917,16.925539 339.861450,18.382656 341.606781,21.453079 
	C348.818085,34.139339 356.282501,46.681725 364.090881,60.023617 
	C369.337524,51.000439 374.209503,42.623463 379.079468,34.245338 
	C381.585907,29.933374 384.079681,25.614014 386.596069,21.307878 
	C388.662750,17.771399 388.673859,17.777893 393.537781,18.139238 
	C393.537781,36.851864 393.537781,55.590233 393.537781,74.776329 
	C391.889923,74.867165 390.161194,74.962463 387.868561,75.088844 
	C387.868561,70.050407 387.868561,65.273499 387.868561,59.996899 
z"/>
<path fill="#F0F0F0" opacity="1.000000" stroke="none" 
	d="
M1007.711426,21.230091 
	C1007.711426,18.782608 1007.711426,16.802294 1007.711426,14.528131 
	C1009.760437,14.528131 1011.474792,14.528131 1013.445984,14.528131 
	C1013.445984,34.667107 1013.445984,54.592800 1013.445984,74.811440 
	C1011.734070,74.899261 1010.138672,74.981102 1008.191101,75.081017 
	C1008.041504,72.684158 1007.904358,70.485832 1007.756653,68.118332 
	C996.463074,77.454674 983.792542,77.690971 975.638550,68.906143 
	C968.046509,60.726822 968.001770,46.452698 975.542542,38.262871 
	C983.466919,29.656456 996.226135,29.607393 1007.711365,38.862141 
	C1007.711365,32.678883 1007.711365,27.188070 1007.711426,21.230091 
M983.786987,38.963947 
	C976.089661,44.553970 973.748596,53.635033 977.895691,61.816521 
	C981.314453,68.561157 989.108887,71.778740 996.580200,69.529686 
	C1005.474854,66.852165 1010.067017,56.716770 1006.715576,47.160236 
	C1003.608154,38.299866 994.473022,34.786789 983.786987,38.963947 
z"/>
<path fill="#F1F1F1" opacity="1.000000" stroke="none" 
	d="
M407.162048,45.176437 
	C408.360931,32.092506 414.615814,23.076981 426.776642,19.080853 
	C438.237274,15.314819 449.031616,16.818060 458.707275,25.346960 
	C457.476715,26.755369 456.440674,27.941153 455.130402,29.440790 
	C448.435791,23.592819 440.714844,21.711788 432.320099,23.361246 
	C418.847748,26.008390 411.132812,38.105530 413.923737,51.762787 
	C416.455658,64.152779 429.264862,72.159569 442.574677,69.641685 
	C444.039948,69.364487 445.473114,68.913506 446.916687,68.526405 
	C450.930695,67.449997 453.008057,65.289558 452.544281,60.681232 
	C452.082977,56.097572 452.443237,51.431232 452.443237,46.531746 
	C454.487366,46.531746 456.079651,46.531746 458.389862,46.531746 
	C458.389862,53.414051 458.515900,60.331837 458.261047,67.235573 
	C458.220398,68.337379 456.659363,69.689903 455.482727,70.395027 
	C444.861084,76.760078 433.746735,77.513580 422.664520,72.032791 
	C411.914825,66.716461 407.274078,57.388969 407.162048,45.176437 
z"/>
<path fill="#F2F2F2" opacity="1.000000" stroke="none" 
	d="
M857.427246,69.980255 
	C860.020203,69.138184 862.424255,68.702301 864.296692,67.463127 
	C869.895020,63.757961 869.763611,56.346466 863.880859,53.172764 
	C860.431396,51.311790 856.441162,50.434891 852.666077,49.201305 
	C849.199341,48.068439 845.601685,47.283306 842.228333,45.929737 
	C836.695862,43.709866 833.194885,39.701748 833.140930,33.460117 
	C833.087036,27.213284 835.946777,22.504427 841.632141,19.938463 
	C851.980835,15.267825 861.967590,16.848469 872.034790,22.129976 
	C871.676270,23.119438 871.441467,23.850872 871.147034,24.557444 
	C870.835754,25.304535 870.467529,26.027891 870.667297,25.601002 
	C863.507202,24.651932 856.948181,23.464664 850.342041,23.074429 
	C847.938538,22.932447 845.091980,24.219463 843.022339,25.672922 
	C837.573547,29.499620 837.939331,36.944080 843.815918,40.052441 
	C847.280029,41.884747 851.278137,42.723110 855.059631,43.935066 
	C858.375854,44.997917 861.804321,45.753685 865.041809,47.009743 
	C870.566895,49.153339 874.230591,52.893658 874.351868,59.253529 
	C874.476624,65.790230 871.604675,70.655739 865.601013,73.028313 
	C853.743713,77.714241 842.569519,76.022186 831.769592,68.522247 
	C832.528442,66.823357 833.166138,65.395805 834.033752,63.453571 
	C840.981262,68.948143 848.629639,70.870163 857.427246,69.980255 
z"/>
<path fill="#EFEFEF" opacity="1.000000" stroke="none" 
	d="
M690.699646,61.984566 
	C690.699646,66.457550 690.699646,70.433411 690.699646,74.716797 
	C688.680786,74.716797 686.970764,74.716797 684.974426,74.716797 
	C684.974426,72.693291 684.974426,70.761047 684.974426,67.821510 
	C679.573059,74.381874 673.210022,76.194588 665.845886,75.163666 
	C658.086243,74.077370 652.555115,69.549736 651.988403,61.778473 
	C651.278809,52.047859 651.817810,42.226192 651.817810,32.215263 
	C653.423462,32.215263 655.188782,32.215263 657.271912,32.215263 
	C657.271912,40.486450 657.013489,48.647007 657.335449,56.784603 
	C657.767151,67.696327 665.947021,72.940582 675.992737,69.065163 
	C680.991455,67.136757 683.946716,63.314739 684.165466,58.121334 
	C684.521912,49.656139 684.261719,41.164974 684.261719,32.250072 
	C686.587769,32.130753 688.306641,32.042580 690.699646,31.919823 
	C690.699646,41.971798 690.699646,51.729618 690.699646,61.984566 
z"/>
<path fill="#F3F3F3" opacity="1.000000" stroke="none" 
	d="
M1047.802490,49.783970 
	C1050.454712,37.306744 1059.238037,30.894331 1071.855591,31.866302 
	C1082.415405,32.679764 1090.416748,40.790249 1091.071655,51.344627 
	C1091.824707,63.480999 1085.035889,73.019333 1074.249878,74.978981 
	C1062.472046,77.118820 1052.029053,71.585037 1048.784424,60.982216 
	C1047.747803,57.595074 1048.047363,53.799030 1047.802490,49.783970 
M1083.459106,61.607765 
	C1087.345947,51.039497 1084.113525,41.415749 1075.531616,38.005123 
	C1067.601807,34.853642 1058.746338,38.128876 1055.191162,45.528111 
	C1051.327759,53.568832 1054.024414,63.848640 1061.085571,67.997765 
	C1068.826294,72.546158 1077.768555,70.227982 1083.459106,61.607765 
z"/>
<path fill="#F5F5F5" opacity="1.000000" stroke="none" 
	d="
M952.724365,74.513184 
	C952.353149,72.543045 952.271057,70.892357 952.146606,68.390373 
	C946.849792,74.301491 940.657898,76.147331 933.499573,75.176086 
	C925.097229,74.036041 919.427551,68.475571 919.100586,59.979115 
	C918.749878,50.862736 919.021362,41.722424 919.021362,32.297520 
	C920.866638,32.297520 922.590576,32.297520 924.866516,32.297520 
	C924.866516,39.893753 924.831970,47.496639 924.875000,55.099087 
	C924.932922,65.339554 928.798828,69.920891 937.401123,70.053223 
	C946.458801,70.192574 951.879700,64.699249 952.054138,54.945805 
	C952.187439,47.489586 952.080688,40.029076 952.080688,32.287956 
	C954.142761,32.287956 955.865479,32.287956 957.804871,32.287956 
	C957.883789,32.910954 958.032593,33.540909 958.033264,34.171013 
	C958.046631,47.623093 958.043457,61.075195 958.043457,74.832634 
	C956.191528,74.832634 954.602478,74.832634 952.724365,74.513184 
z"/>
<path fill="#F2F2F2" opacity="1.000000" stroke="none" 
	d="
M705.929443,35.910416 
	C715.444763,29.416096 724.721375,31.317434 734.628174,35.256283 
	C733.745850,37.128223 733.077026,38.547222 732.853027,39.022457 
	C726.731323,38.314987 721.257629,37.271599 715.770203,37.193871 
	C712.162964,37.142780 708.789062,39.087479 708.416382,43.290127 
	C708.021729,47.740707 711.414490,49.187744 714.973328,50.069431 
	C719.162720,51.107349 723.435669,51.829575 727.587708,52.991234 
	C733.309692,54.592140 735.883789,57.712345 736.041565,62.658504 
	C736.205322,67.791512 733.592896,71.603401 728.427979,73.767960 
	C720.683472,77.013580 708.684570,75.490738 700.997742,70.100410 
	C701.701172,68.754501 702.429443,67.361015 702.630249,66.976868 
	C709.158813,68.087593 715.056885,69.211288 720.997803,70.019920 
	C722.543884,70.230347 724.617493,69.943192 725.751099,69.024063 
	C727.508728,67.598938 729.746521,65.449890 729.772156,63.580215 
	C729.797058,61.764362 727.650574,58.945930 725.826782,58.270115 
	C721.351318,56.611641 716.472473,56.082352 711.828308,54.830246 
	C702.012512,52.183792 699.437561,44.251495 705.929443,35.910416 
z"/>
<path fill="#F4F4F4" opacity="1.000000" stroke="none" 
	d="
M774.143066,34.965782 
	C785.767578,29.141771 796.864807,31.181713 802.991028,40.276295 
	C801.716431,41.180370 800.434509,42.089581 799.195251,42.968582 
	C790.922180,35.468460 781.054626,34.977924 774.688110,41.583637 
	C768.612915,47.887081 768.697144,59.500019 774.862793,65.656845 
	C781.297668,72.082535 791.461914,71.528664 799.018494,64.129173 
	C800.283508,64.967033 801.605164,65.842407 803.248047,66.930550 
	C797.863281,74.701210 790.454773,76.173759 782.101929,75.039589 
	C773.739563,73.904114 767.073792,67.847809 764.984924,59.694073 
	C762.464905,49.857956 765.454407,41.539429 774.143066,34.965782 
z"/>
<path fill="#F5F5F5" opacity="1.000000" stroke="none" 
	d="
M896.873230,75.133850 
	C889.728088,73.016762 887.296936,69.813301 887.190308,62.266106 
	C887.073364,53.985760 887.163635,45.702492 887.163635,37.034203 
	C884.548889,37.034203 882.299438,37.034203 879.835938,37.034203 
	C879.835938,35.228512 879.835938,33.814018 879.835938,32.007004 
	C882.273621,32.007004 884.523438,32.007004 887.054565,32.007004 
	C887.054565,28.845850 887.054565,26.068136 887.054565,22.958588 
	C889.085754,22.958588 890.829895,22.958588 892.885864,22.958588 
	C892.885864,25.703051 892.885864,28.475431 892.885864,31.829384 
	C897.382202,31.829384 901.594788,31.829384 905.966614,31.829384 
	C905.966614,33.809586 905.966614,35.208111 905.966614,37.017876 
	C901.698914,37.017876 897.609436,37.017876 893.160095,37.017876 
	C893.160095,46.030373 892.973877,54.642368 893.230225,63.241169 
	C893.382812,68.360283 896.379028,70.645752 901.525879,70.136299 
	C903.290344,69.961655 905.005920,69.292511 906.821533,68.829453 
	C910.110962,71.846092 908.492737,73.704544 905.131165,74.525398 
	C902.603699,75.142601 899.889404,74.994698 896.873230,75.133850 
z"/>
<path fill="#E9E9E9" opacity="1.000000" stroke="none" 
	d="
M746.441040,63.963673 
	C746.441101,53.178665 746.441101,42.888210 746.441101,32.288387 
	C748.471008,32.288387 750.204102,32.288387 752.204651,32.288387 
	C752.204651,46.316559 752.204651,60.379162 752.204651,74.741798 
	C750.467285,74.741798 748.730103,74.741798 746.440979,74.741798 
	C746.440979,71.336571 746.440979,67.897392 746.441040,63.963673 
z"/>
<path fill="#F1F1F1" opacity="1.000000" stroke="none" 
	d="
M1035.796265,42.045799 
	C1035.796265,53.147858 1035.796265,63.758251 1035.796265,74.770386 
	C1033.814697,74.873566 1032.091431,74.963303 1030.086182,75.067719 
	C1030.086182,60.735737 1030.086182,46.685188 1030.086182,32.313152 
	C1031.741943,32.313152 1033.469849,32.313152 1035.796265,32.313152 
	C1035.796265,35.345142 1035.796265,38.449638 1035.796265,42.045799 
z"/>
<path fill="#E9E9E9" opacity="1.000000" stroke="none" 
	d="
M747.075745,21.944098 
	C744.642822,19.623949 744.360596,17.146984 746.833313,15.493114 
	C748.103943,14.643236 750.720459,14.660465 752.063721,15.436691 
	C753.086365,16.027657 753.820557,19.518852 753.366516,19.836220 
	C751.668274,21.023212 749.428528,21.435480 747.075745,21.944098 
z"/>
<path fill="#E9E9E9" opacity="1.000000" stroke="none" 
	d="
M1028.896362,16.791077 
	C1032.807007,13.541148 1036.885132,14.181114 1036.784424,17.830568 
	C1036.738281,19.507240 1034.585205,22.324528 1033.108521,22.520308 
	C1029.761475,22.964060 1028.022461,20.720596 1028.896362,16.791077 
z"/>
<path fill="#010101" opacity="1.000000" stroke="none" 
	d="
M272.563965,250.474121 
	C261.671875,265.832672 246.363846,269.165771 229.463211,266.613342 
	C212.164093,264.000671 201.968246,252.619156 197.107803,236.445999 
	C192.856232,222.298828 192.803497,207.877563 196.785416,193.595688 
	C202.447769,173.286499 216.953995,162.629135 238.409027,162.772507 
	C259.278656,162.911972 274.028564,173.948456 279.029175,194.201126 
	C283.791321,213.487915 283.133820,232.448807 272.563965,250.474121 
z"/>
<path fill="#030303" opacity="1.000000" stroke="none" 
	d="
M697.758179,182.276459 
	C702.940369,197.575043 707.995239,212.493820 713.171326,227.770615 
	C698.930237,227.770615 685.041199,227.770615 670.625732,227.770615 
	C677.683472,206.841843 684.695190,186.049759 691.986389,164.428711 
	C694.002075,170.666550 695.816467,176.281586 697.758179,182.276459 
z"/>
<path fill="#030303" opacity="1.000000" stroke="none" 
	d="
M984.134521,38.786942 
	C994.473022,34.786789 1003.608154,38.299866 1006.715576,47.160236 
	C1010.067017,56.716770 1005.474854,66.852165 996.580200,69.529686 
	C989.108887,71.778740 981.314453,68.561157 977.895691,61.816521 
	C973.748596,53.635033 976.089661,44.553970 984.134521,38.786942 
z"/>
<path fill="#030303" opacity="1.000000" stroke="none" 
	d="
M1083.278076,61.949623 
	C1077.768555,70.227982 1068.826294,72.546158 1061.085571,67.997765 
	C1054.024414,63.848640 1051.327759,53.568832 1055.191162,45.528111 
	C1058.746338,38.128876 1067.601807,34.853642 1075.531616,38.005123 
	C1084.113525,41.415749 1087.345947,51.039497 1083.278076,61.949623 
z"/>
</svg>