<svg xmlns="http://www.w3.org/2000/svg" xmlns:xlink="http://www.w3.org/1999/xlink" width="500" zoomAndPan="magnify" viewBox="0 0 375 374.999991" height="500" preserveAspectRatio="xMidYMid meet" version="1.0"><defs><g/><clipPath id="174e8403c2"><path d="M 20.964844 182.585938 L 354.105469 182.585938 L 354.105469 353.546875 L 20.964844 353.546875 Z M 20.964844 182.585938 " clip-rule="nonzero"/></clipPath></defs><g fill="#ffffff" fill-opacity="1"><g transform="translate(102.266872, 267.109974)"><g><path d="M 33.074219 0.644531 C 34.542969 0.644531 35.371094 -0.09375 35.644531 -1.46875 C 37.484375 -11.574219 39.320312 -19.386719 40.792969 -26.277344 C 42.261719 -33.351562 43.824219 -38.679688 44.375 -40.976562 L 44.464844 -40.054688 C 44.648438 -37.484375 44.832031 -34.910156 44.832031 -32.15625 C 44.832031 -19.292969 42.996094 -7.441406 41.984375 -2.203125 C 41.617188 -0.277344 42.535156 0.460938 44.28125 0.183594 C 46.027344 -0.09375 48.050781 -0.277344 51.082031 -0.277344 C 55.03125 -0.277344 55.582031 -0.09375 58.246094 0.277344 C 59.902344 0.550781 60.910156 -0.367188 60.542969 -2.296875 C 59.625 -7.351562 57.789062 -19.203125 57.789062 -32.15625 C 57.789062 -45.109375 59.625 -56.960938 60.542969 -62.015625 C 60.910156 -63.941406 59.902344 -64.863281 58.246094 -64.585938 C 55.582031 -64.21875 55.03125 -64.035156 51.082031 -64.035156 C 47.128906 -64.035156 44.007812 -64.3125 41.34375 -64.585938 C 40.054688 -64.769531 39.046875 -64.125 38.863281 -62.65625 C 37.941406 -54.664062 34.359375 -40.882812 30.960938 -25.082031 C 27.5625 -41.800781 24.070312 -55.125 23.152344 -62.65625 C 22.96875 -64.125 22.140625 -64.863281 20.671875 -64.679688 C 17.640625 -64.3125 14.054688 -64.035156 10.472656 -64.035156 C 7.351562 -64.035156 5.421875 -64.21875 3.582031 -64.496094 C 1.929688 -64.769531 1.101562 -63.851562 1.378906 -62.105469 C 2.296875 -56.867188 4.132812 -45.015625 4.132812 -32.15625 C 4.132812 -19.203125 2.296875 -7.441406 1.378906 -2.296875 C 1.011719 -0.367188 1.929688 0.460938 3.582031 0.183594 C 5.421875 -0.09375 7.351562 -0.277344 10.472656 -0.277344 C 14.238281 -0.277344 15.34375 -0.09375 17.640625 0.277344 C 19.476562 0.550781 20.210938 -0.550781 19.9375 -2.203125 C 18.925781 -7.351562 17.089844 -19.292969 17.089844 -32.15625 C 17.089844 -35.003906 17.273438 -37.667969 17.546875 -40.332031 L 17.546875 -40.609375 C 18.832031 -36.839844 20.121094 -32.339844 21.40625 -26.277344 C 22.691406 -20.578125 24.898438 -9.832031 26.277344 -1.5625 C 26.550781 -0.09375 27.285156 0.644531 28.847656 0.644531 Z M 33.074219 0.644531 "/></g></g></g><g fill="#ffffff" fill-opacity="1"><g transform="translate(164.186836, 267.109974)"><g><path d="M 23.609375 1.378906 C 28.847656 1.378906 33.257812 -0.183594 36.566406 -0.183594 C 39.046875 -0.183594 39.871094 -0.09375 42.8125 0.277344 C 44.742188 0.460938 45.570312 -0.460938 45.109375 -2.203125 C 43.457031 -7.808594 42.8125 -13.6875 42.8125 -20.855469 C 42.8125 -24.714844 43.546875 -28.664062 44.648438 -31.238281 C 45.292969 -32.890625 45.015625 -33.535156 43.179688 -33.351562 C 41.160156 -33.074219 39.046875 -32.980469 36.839844 -32.980469 C 34.542969 -32.980469 31.789062 -33.257812 29.214844 -33.441406 C 27.46875 -33.625 27.195312 -32.890625 28.019531 -31.421875 C 29.398438 -28.664062 30.683594 -24.4375 30.683594 -20.855469 C 30.683594 -18.464844 29.582031 -11.484375 23.609375 -11.484375 L 23.425781 -11.484375 C 18.925781 -11.484375 15.984375 -20.488281 15.984375 -31.878906 C 15.984375 -44.558594 20.761719 -52.828125 26.460938 -52.828125 L 26.644531 -52.828125 C 30.5 -52.828125 34.359375 -50.621094 37.851562 -46.671875 C 39.230469 -45.015625 40.238281 -45.292969 40.148438 -47.40625 C 40.054688 -52.183594 40.332031 -57.789062 40.792969 -62.382812 C 40.976562 -64.035156 40.148438 -64.769531 38.496094 -64.679688 C 34.085938 -64.496094 30.867188 -65.6875 24.347656 -65.6875 L 24.253906 -65.6875 C 10.199219 -65.6875 1.195312 -53.195312 1.195312 -32.246094 C 1.195312 -9.371094 9.460938 1.378906 23.519531 1.378906 Z M 23.609375 1.378906 "/></g></g></g><g fill="#ffffff" fill-opacity="1"><g transform="translate(210.764623, 267.109974)"><g><path d="M 33.074219 0.644531 C 34.542969 0.644531 35.371094 -0.09375 35.644531 -1.46875 C 37.484375 -11.574219 39.320312 -19.386719 40.792969 -26.277344 C 42.261719 -33.351562 43.824219 -38.679688 44.375 -40.976562 L 44.464844 -40.054688 C 44.648438 -37.484375 44.832031 -34.910156 44.832031 -32.15625 C 44.832031 -19.292969 42.996094 -7.441406 41.984375 -2.203125 C 41.617188 -0.277344 42.535156 0.460938 44.28125 0.183594 C 46.027344 -0.09375 48.050781 -0.277344 51.082031 -0.277344 C 55.03125 -0.277344 55.582031 -0.09375 58.246094 0.277344 C 59.902344 0.550781 60.910156 -0.367188 60.542969 -2.296875 C 59.625 -7.351562 57.789062 -19.203125 57.789062 -32.15625 C 57.789062 -45.109375 59.625 -56.960938 60.542969 -62.015625 C 60.910156 -63.941406 59.902344 -64.863281 58.246094 -64.585938 C 55.582031 -64.21875 55.03125 -64.035156 51.082031 -64.035156 C 47.128906 -64.035156 44.007812 -64.3125 41.34375 -64.585938 C 40.054688 -64.769531 39.046875 -64.125 38.863281 -62.65625 C 37.941406 -54.664062 34.359375 -40.882812 30.960938 -25.082031 C 27.5625 -41.800781 24.070312 -55.125 23.152344 -62.65625 C 22.96875 -64.125 22.140625 -64.863281 20.671875 -64.679688 C 17.640625 -64.3125 14.054688 -64.035156 10.472656 -64.035156 C 7.351562 -64.035156 5.421875 -64.21875 3.582031 -64.496094 C 1.929688 -64.769531 1.101562 -63.851562 1.378906 -62.105469 C 2.296875 -56.867188 4.132812 -45.015625 4.132812 -32.15625 C 4.132812 -19.203125 2.296875 -7.441406 1.378906 -2.296875 C 1.011719 -0.367188 1.929688 0.460938 3.582031 0.183594 C 5.421875 -0.09375 7.351562 -0.277344 10.472656 -0.277344 C 14.238281 -0.277344 15.34375 -0.09375 17.640625 0.277344 C 19.476562 0.550781 20.210938 -0.550781 19.9375 -2.203125 C 18.925781 -7.351562 17.089844 -19.292969 17.089844 -32.15625 C 17.089844 -35.003906 17.273438 -37.667969 17.546875 -40.332031 L 17.546875 -40.609375 C 18.832031 -36.839844 20.121094 -32.339844 21.40625 -26.277344 C 22.691406 -20.578125 24.898438 -9.832031 26.277344 -1.5625 C 26.550781 -0.09375 27.285156 0.644531 28.847656 0.644531 Z M 33.074219 0.644531 "/></g></g></g><g fill="#ffffff" fill-opacity="1"><g transform="translate(82.685028, 157.60684)"><g><path d="M 10.546875 -11.59375 C 10.203125 -11.96875 9.832031 -12.253906 9.4375 -12.453125 C 9.050781 -12.648438 8.488281 -12.75 7.75 -12.75 C 7.007812 -12.75 6.460938 -12.640625 6.109375 -12.421875 C 5.753906 -12.210938 5.578125 -11.957031 5.578125 -11.65625 C 5.578125 -11.144531 6.03125 -10.785156 6.9375 -10.578125 L 10.484375 -9.65625 C 11.785156 -9.320312 12.757812 -8.742188 13.40625 -7.921875 C 14.0625 -7.109375 14.390625 -6.132812 14.390625 -5 C 14.390625 -3.945312 14.113281 -3.023438 13.5625 -2.234375 C 13.007812 -1.453125 12.21875 -0.847656 11.1875 -0.421875 C 10.15625 0.00390625 8.945312 0.21875 7.5625 0.21875 C 6 0.21875 4.570312 -0.0390625 3.28125 -0.5625 C 1.988281 -1.082031 1.09375 -1.765625 0.59375 -2.609375 C 0.519531 -2.742188 0.484375 -2.847656 0.484375 -2.921875 C 0.484375 -3.066406 0.5625 -3.195312 0.71875 -3.3125 L 2.921875 -4.828125 C 3.078125 -4.929688 3.222656 -4.984375 3.359375 -4.984375 C 3.515625 -4.984375 3.640625 -4.914062 3.734375 -4.78125 C 4.222656 -4.15625 4.710938 -3.710938 5.203125 -3.453125 C 5.703125 -3.203125 6.367188 -3.078125 7.203125 -3.078125 C 7.992188 -3.078125 8.617188 -3.1875 9.078125 -3.40625 C 9.546875 -3.625 9.78125 -3.925781 9.78125 -4.3125 C 9.78125 -4.582031 9.664062 -4.816406 9.4375 -5.015625 C 9.207031 -5.210938 8.875 -5.363281 8.4375 -5.46875 L 5.1875 -6.265625 C 3.90625 -6.578125 2.882812 -7.160156 2.125 -8.015625 C 1.375 -8.878906 1 -9.875 1 -11 C 1 -11.925781 1.269531 -12.773438 1.8125 -13.546875 C 2.351562 -14.328125 3.125 -14.941406 4.125 -15.390625 C 5.125 -15.835938 6.273438 -16.0625 7.578125 -16.0625 C 8.859375 -16.0625 10.046875 -15.847656 11.140625 -15.421875 C 12.242188 -15.003906 13.035156 -14.445312 13.515625 -13.75 C 13.617188 -13.625 13.671875 -13.503906 13.671875 -13.390625 C 13.671875 -13.296875 13.617188 -13.203125 13.515625 -13.109375 L 11.1875 -11.421875 C 11.113281 -11.367188 11.035156 -11.34375 10.953125 -11.34375 C 10.859375 -11.34375 10.722656 -11.425781 10.546875 -11.59375 Z M 10.546875 -11.59375 "/></g></g></g><g fill="#ffffff" fill-opacity="1"><g transform="translate(97.657313, 157.60684)"><g><path d="M 5.578125 -15.84375 C 5.828125 -15.84375 5.953125 -15.695312 5.953125 -15.40625 L 5.953125 -0.625 C 5.953125 -0.394531 5.894531 -0.234375 5.78125 -0.140625 C 5.675781 -0.046875 5.5 0 5.25 0 L 1.6875 0 C 1.46875 0 1.316406 -0.0390625 1.234375 -0.125 C 1.148438 -0.207031 1.109375 -0.34375 1.109375 -0.53125 L 1.109375 -15.359375 C 1.109375 -15.515625 1.144531 -15.632812 1.21875 -15.71875 C 1.289062 -15.800781 1.390625 -15.84375 1.515625 -15.84375 Z M 5.578125 -15.84375 "/></g></g></g><g fill="#ffffff" fill-opacity="1"><g transform="translate(104.726957, 157.60684)"><g><path d="M 14.828125 -15.84375 C 15.035156 -15.84375 15.140625 -15.722656 15.140625 -15.484375 L 15.140625 -0.390625 C 15.140625 -0.273438 15.09375 -0.179688 15 -0.109375 C 14.90625 -0.0351562 14.789062 0 14.65625 0 L 11.71875 0 C 11.59375 0 11.488281 -0.0195312 11.40625 -0.0625 C 11.332031 -0.101562 11.25 -0.191406 11.15625 -0.328125 L 5.28125 -8.28125 C 5.21875 -8.351562 5.164062 -8.378906 5.125 -8.359375 C 5.082031 -8.347656 5.0625 -8.3125 5.0625 -8.25 L 5.0625 -0.46875 C 5.070312 -0.300781 5.035156 -0.179688 4.953125 -0.109375 C 4.878906 -0.0351562 4.742188 0 4.546875 0 L 1.640625 0 C 1.285156 0 1.109375 -0.140625 1.109375 -0.421875 L 1.109375 -15.359375 C 1.109375 -15.679688 1.265625 -15.84375 1.578125 -15.84375 L 5.0625 -15.84375 C 5.25 -15.84375 5.390625 -15.816406 5.484375 -15.765625 C 5.578125 -15.722656 5.675781 -15.625 5.78125 -15.46875 L 10.921875 -8.328125 C 11.003906 -8.203125 11.082031 -8.140625 11.15625 -8.140625 C 11.21875 -8.140625 11.25 -8.234375 11.25 -8.421875 L 11.25 -15.40625 C 11.25 -15.695312 11.40625 -15.84375 11.71875 -15.84375 Z M 14.828125 -15.84375 "/></g></g></g><g fill="#ffffff" fill-opacity="1"><g transform="translate(120.980746, 157.60684)"><g><path d="M 8.21875 -16.0625 C 9.40625 -16.0625 10.472656 -15.847656 11.421875 -15.421875 C 12.378906 -15.003906 13.160156 -14.425781 13.765625 -13.6875 C 14.378906 -12.945312 14.78125 -12.101562 14.96875 -11.15625 C 15.007812 -10.976562 15.03125 -10.84375 15.03125 -10.75 C 15.03125 -10.613281 15.003906 -10.523438 14.953125 -10.484375 C 14.910156 -10.441406 14.820312 -10.414062 14.6875 -10.40625 L 10.953125 -10.171875 C 10.816406 -10.171875 10.722656 -10.191406 10.671875 -10.234375 C 10.628906 -10.285156 10.585938 -10.398438 10.546875 -10.578125 C 10.421875 -11.253906 10.1875 -11.785156 9.84375 -12.171875 C 9.5 -12.566406 9 -12.765625 8.34375 -12.765625 C 7.507812 -12.765625 6.863281 -12.394531 6.40625 -11.65625 C 5.945312 -10.914062 5.71875 -9.710938 5.71875 -8.046875 C 5.71875 -6.328125 5.925781 -5.101562 6.34375 -4.375 C 6.769531 -3.65625 7.429688 -3.296875 8.328125 -3.296875 C 9.085938 -3.296875 9.734375 -3.484375 10.265625 -3.859375 C 10.796875 -4.242188 11.238281 -4.882812 11.59375 -5.78125 C 11.632812 -5.914062 11.757812 -5.984375 11.96875 -5.984375 C 12.0625 -5.984375 12.140625 -5.972656 12.203125 -5.953125 L 14.859375 -5.421875 C 15.078125 -5.347656 15.1875 -5.1875 15.1875 -4.9375 C 15.1875 -4.539062 14.941406 -3.925781 14.453125 -3.09375 C 13.960938 -2.257812 13.191406 -1.5 12.140625 -0.8125 C 11.097656 -0.125 9.78125 0.21875 8.1875 0.21875 C 6.675781 0.21875 5.347656 -0.140625 4.203125 -0.859375 C 3.066406 -1.578125 2.1875 -2.566406 1.5625 -3.828125 C 0.945312 -5.085938 0.640625 -6.523438 0.640625 -8.140625 C 0.640625 -9.734375 0.945312 -11.128906 1.5625 -12.328125 C 2.1875 -13.523438 3.070312 -14.445312 4.21875 -15.09375 C 5.363281 -15.738281 6.695312 -16.0625 8.21875 -16.0625 Z M 8.21875 -16.0625 "/></g></g></g><g fill="#ffffff" fill-opacity="1"><g transform="translate(136.721913, 157.60684)"><g><path d="M 1.109375 -15.359375 C 1.109375 -15.679688 1.242188 -15.84375 1.515625 -15.84375 L 13.046875 -15.84375 C 13.304688 -15.84375 13.4375 -15.695312 13.4375 -15.40625 L 13.40625 -12.921875 C 13.40625 -12.535156 13.222656 -12.34375 12.859375 -12.34375 L 6.453125 -12.34375 C 6.117188 -12.34375 5.953125 -12.207031 5.953125 -11.9375 L 5.953125 -10.125 C 5.953125 -9.976562 5.988281 -9.863281 6.0625 -9.78125 C 6.132812 -9.707031 6.226562 -9.671875 6.34375 -9.671875 L 10.1875 -9.671875 C 10.488281 -9.671875 10.640625 -9.53125 10.640625 -9.25 L 10.640625 -6.59375 C 10.640625 -6.351562 10.507812 -6.234375 10.25 -6.234375 L 6.296875 -6.234375 C 6.203125 -6.234375 6.117188 -6.203125 6.046875 -6.140625 C 5.984375 -6.085938 5.953125 -6.019531 5.953125 -5.9375 L 5.953125 -3.796875 C 5.953125 -3.679688 5.96875 -3.601562 6 -3.5625 C 6.039062 -3.519531 6.113281 -3.5 6.21875 -3.5 L 13.15625 -3.5 C 13.46875 -3.5 13.625 -3.363281 13.625 -3.09375 L 13.625 -0.46875 C 13.625 -0.320312 13.582031 -0.207031 13.5 -0.125 C 13.414062 -0.0390625 13.285156 0 13.109375 0 L 1.6875 0 C 1.46875 0 1.316406 -0.0390625 1.234375 -0.125 C 1.148438 -0.207031 1.109375 -0.34375 1.109375 -0.53125 Z M 1.109375 -15.359375 "/></g></g></g><g fill="#ffffff" fill-opacity="1"><g transform="translate(230.008995, 157.60684)"><g><path d="M 10.375 -3.5 C 10.707031 -3.5 10.875 -3.363281 10.875 -3.09375 L 10.875 -0.46875 C 10.875 -0.320312 10.828125 -0.207031 10.734375 -0.125 C 10.640625 -0.0390625 10.507812 0 10.34375 0 L 1.265625 0 C 0.921875 0 0.75 -0.148438 0.75 -0.453125 L 0.75 -3.09375 C 0.75 -3.363281 0.90625 -3.5 1.21875 -3.5 L 3.125 -3.5 C 3.1875 -3.5 3.242188 -3.515625 3.296875 -3.546875 C 3.347656 -3.585938 3.375 -3.632812 3.375 -3.6875 L 3.375 -10.828125 C 3.375 -10.953125 3.347656 -11.035156 3.296875 -11.078125 C 3.242188 -11.128906 3.148438 -11.140625 3.015625 -11.109375 L 1.296875 -10.71875 C 1.253906 -10.707031 1.191406 -10.703125 1.109375 -10.703125 C 0.847656 -10.703125 0.71875 -10.875 0.71875 -11.21875 L 0.71875 -13.015625 C 0.71875 -13.179688 0.742188 -13.304688 0.796875 -13.390625 C 0.847656 -13.472656 0.953125 -13.550781 1.109375 -13.625 L 4.953125 -15.546875 C 5.191406 -15.660156 5.382812 -15.738281 5.53125 -15.78125 C 5.675781 -15.820312 5.835938 -15.84375 6.015625 -15.84375 L 7.84375 -15.84375 C 7.957031 -15.84375 8.046875 -15.800781 8.109375 -15.71875 C 8.179688 -15.644531 8.21875 -15.539062 8.21875 -15.40625 L 8.21875 -3.765625 C 8.21875 -3.585938 8.296875 -3.5 8.453125 -3.5 Z M 10.375 -3.5 "/></g></g></g><g fill="#ffffff" fill-opacity="1"><g transform="translate(241.478491, 157.60684)"><g><path d="M 7 0.171875 C 5.988281 0.171875 5.066406 -0.0078125 4.234375 -0.375 C 3.398438 -0.738281 2.726562 -1.1875 2.21875 -1.71875 C 1.71875 -2.25 1.425781 -2.757812 1.34375 -3.25 C 1.332031 -3.289062 1.328125 -3.351562 1.328125 -3.4375 C 1.328125 -3.632812 1.421875 -3.765625 1.609375 -3.828125 L 4.65625 -4.71875 C 4.6875 -4.726562 4.722656 -4.734375 4.765625 -4.734375 C 4.890625 -4.734375 4.976562 -4.6875 5.03125 -4.59375 C 5.09375 -4.507812 5.125 -4.457031 5.125 -4.4375 C 5.40625 -3.988281 5.675781 -3.65625 5.9375 -3.4375 C 6.195312 -3.226562 6.550781 -3.125 7 -3.125 C 7.757812 -3.125 8.363281 -3.398438 8.8125 -3.953125 C 9.269531 -4.503906 9.5 -5.242188 9.5 -6.171875 C 9.5 -6.359375 9.484375 -6.488281 9.453125 -6.5625 C 9.429688 -6.644531 9.378906 -6.6875 9.296875 -6.6875 C 9.203125 -6.6875 9.09375 -6.65625 8.96875 -6.59375 C 8.445312 -6.382812 7.992188 -6.234375 7.609375 -6.140625 C 7.234375 -6.046875 6.773438 -6 6.234375 -6 C 5.140625 -6 4.164062 -6.195312 3.3125 -6.59375 C 2.457031 -7 1.785156 -7.5625 1.296875 -8.28125 C 0.816406 -9 0.578125 -9.8125 0.578125 -10.71875 C 0.578125 -11.71875 0.867188 -12.625 1.453125 -13.4375 C 2.035156 -14.25 2.828125 -14.878906 3.828125 -15.328125 C 4.835938 -15.785156 5.960938 -16.015625 7.203125 -16.015625 C 8.640625 -16.015625 9.894531 -15.691406 10.96875 -15.046875 C 12.039062 -14.410156 12.863281 -13.507812 13.4375 -12.34375 C 14.019531 -11.1875 14.3125 -9.847656 14.3125 -8.328125 C 14.3125 -6.585938 14.003906 -5.078125 13.390625 -3.796875 C 12.773438 -2.515625 11.914062 -1.53125 10.8125 -0.84375 C 9.707031 -0.164062 8.4375 0.171875 7 0.171875 Z M 7.34375 -9.078125 C 7.675781 -9.078125 8.03125 -9.132812 8.40625 -9.25 C 8.78125 -9.363281 9.0625 -9.492188 9.25 -9.640625 C 9.332031 -9.703125 9.390625 -9.769531 9.421875 -9.84375 C 9.453125 -9.914062 9.46875 -10.046875 9.46875 -10.234375 C 9.46875 -11.066406 9.273438 -11.722656 8.890625 -12.203125 C 8.503906 -12.691406 8 -12.9375 7.375 -12.9375 C 6.800781 -12.9375 6.320312 -12.742188 5.9375 -12.359375 C 5.550781 -11.984375 5.359375 -11.503906 5.359375 -10.921875 C 5.359375 -10.328125 5.550781 -9.867188 5.9375 -9.546875 C 6.332031 -9.234375 6.800781 -9.078125 7.34375 -9.078125 Z M 7.34375 -9.078125 "/></g></g></g><g fill="#ffffff" fill-opacity="1"><g transform="translate(256.450775, 157.60684)"><g><path d="M 7 0.171875 C 5.988281 0.171875 5.066406 -0.0078125 4.234375 -0.375 C 3.398438 -0.738281 2.726562 -1.1875 2.21875 -1.71875 C 1.71875 -2.25 1.425781 -2.757812 1.34375 -3.25 C 1.332031 -3.289062 1.328125 -3.351562 1.328125 -3.4375 C 1.328125 -3.632812 1.421875 -3.765625 1.609375 -3.828125 L 4.65625 -4.71875 C 4.6875 -4.726562 4.722656 -4.734375 4.765625 -4.734375 C 4.890625 -4.734375 4.976562 -4.6875 5.03125 -4.59375 C 5.09375 -4.507812 5.125 -4.457031 5.125 -4.4375 C 5.40625 -3.988281 5.675781 -3.65625 5.9375 -3.4375 C 6.195312 -3.226562 6.550781 -3.125 7 -3.125 C 7.757812 -3.125 8.363281 -3.398438 8.8125 -3.953125 C 9.269531 -4.503906 9.5 -5.242188 9.5 -6.171875 C 9.5 -6.359375 9.484375 -6.488281 9.453125 -6.5625 C 9.429688 -6.644531 9.378906 -6.6875 9.296875 -6.6875 C 9.203125 -6.6875 9.09375 -6.65625 8.96875 -6.59375 C 8.445312 -6.382812 7.992188 -6.234375 7.609375 -6.140625 C 7.234375 -6.046875 6.773438 -6 6.234375 -6 C 5.140625 -6 4.164062 -6.195312 3.3125 -6.59375 C 2.457031 -7 1.785156 -7.5625 1.296875 -8.28125 C 0.816406 -9 0.578125 -9.8125 0.578125 -10.71875 C 0.578125 -11.71875 0.867188 -12.625 1.453125 -13.4375 C 2.035156 -14.25 2.828125 -14.878906 3.828125 -15.328125 C 4.835938 -15.785156 5.960938 -16.015625 7.203125 -16.015625 C 8.640625 -16.015625 9.894531 -15.691406 10.96875 -15.046875 C 12.039062 -14.410156 12.863281 -13.507812 13.4375 -12.34375 C 14.019531 -11.1875 14.3125 -9.847656 14.3125 -8.328125 C 14.3125 -6.585938 14.003906 -5.078125 13.390625 -3.796875 C 12.773438 -2.515625 11.914062 -1.53125 10.8125 -0.84375 C 9.707031 -0.164062 8.4375 0.171875 7 0.171875 Z M 7.34375 -9.078125 C 7.675781 -9.078125 8.03125 -9.132812 8.40625 -9.25 C 8.78125 -9.363281 9.0625 -9.492188 9.25 -9.640625 C 9.332031 -9.703125 9.390625 -9.769531 9.421875 -9.84375 C 9.453125 -9.914062 9.46875 -10.046875 9.46875 -10.234375 C 9.46875 -11.066406 9.273438 -11.722656 8.890625 -12.203125 C 8.503906 -12.691406 8 -12.9375 7.375 -12.9375 C 6.800781 -12.9375 6.320312 -12.742188 5.9375 -12.359375 C 5.550781 -11.984375 5.359375 -11.503906 5.359375 -10.921875 C 5.359375 -10.328125 5.550781 -9.867188 5.9375 -9.546875 C 6.332031 -9.234375 6.800781 -9.078125 7.34375 -9.078125 Z M 7.34375 -9.078125 "/></g></g></g><g fill="#ffffff" fill-opacity="1"><g transform="translate(271.42306, 157.60684)"><g><path d="M 7.234375 -16.0625 C 8.410156 -16.0625 9.476562 -15.863281 10.4375 -15.46875 C 11.394531 -15.082031 12.144531 -14.550781 12.6875 -13.875 C 13.238281 -13.195312 13.515625 -12.445312 13.515625 -11.625 C 13.515625 -11.0625 13.34375 -10.546875 13 -10.078125 C 12.664062 -9.617188 12.175781 -9.234375 11.53125 -8.921875 C 11.40625 -8.859375 11.34375 -8.796875 11.34375 -8.734375 C 11.34375 -8.660156 11.398438 -8.582031 11.515625 -8.5 C 12.554688 -7.875 13.265625 -7.269531 13.640625 -6.6875 C 14.023438 -6.113281 14.21875 -5.441406 14.21875 -4.671875 C 14.21875 -3.648438 13.921875 -2.769531 13.328125 -2.03125 C 12.734375 -1.300781 11.898438 -0.742188 10.828125 -0.359375 C 9.765625 0.0234375 8.523438 0.21875 7.109375 0.21875 C 5.160156 0.21875 3.585938 -0.140625 2.390625 -0.859375 C 1.191406 -1.578125 0.59375 -2.585938 0.59375 -3.890625 C 0.59375 -4.597656 0.773438 -5.210938 1.140625 -5.734375 C 1.503906 -6.265625 2.148438 -6.765625 3.078125 -7.234375 C 3.191406 -7.285156 3.25 -7.335938 3.25 -7.390625 C 3.25 -7.441406 3.207031 -7.5 3.125 -7.5625 C 2.644531 -7.925781 2.269531 -8.238281 2 -8.5 C 1.738281 -8.769531 1.507812 -9.109375 1.3125 -9.515625 C 1.125 -9.929688 1.03125 -10.425781 1.03125 -11 C 1.03125 -11.90625 1.273438 -12.742188 1.765625 -13.515625 C 2.265625 -14.296875 2.984375 -14.914062 3.921875 -15.375 C 4.867188 -15.832031 5.972656 -16.0625 7.234375 -16.0625 Z M 7.328125 -12.96875 C 6.816406 -12.96875 6.390625 -12.84375 6.046875 -12.59375 C 5.703125 -12.351562 5.53125 -12.03125 5.53125 -11.625 C 5.53125 -11.332031 5.617188 -11.078125 5.796875 -10.859375 C 5.972656 -10.648438 6.226562 -10.488281 6.5625 -10.375 L 7.921875 -9.90625 C 8.035156 -9.882812 8.128906 -9.875 8.203125 -9.875 C 8.546875 -9.875 8.847656 -10.046875 9.109375 -10.390625 C 9.367188 -10.742188 9.5 -11.097656 9.5 -11.453125 C 9.5 -11.859375 9.304688 -12.210938 8.921875 -12.515625 C 8.535156 -12.816406 8.003906 -12.96875 7.328125 -12.96875 Z M 7.40625 -2.890625 C 8.050781 -2.890625 8.546875 -3.007812 8.890625 -3.25 C 9.242188 -3.488281 9.421875 -3.820312 9.421875 -4.25 C 9.421875 -4.5625 9.320312 -4.832031 9.125 -5.0625 C 8.9375 -5.300781 8.570312 -5.515625 8.03125 -5.703125 L 6.515625 -6.234375 C 6.390625 -6.273438 6.269531 -6.296875 6.15625 -6.296875 C 5.769531 -6.296875 5.421875 -6.132812 5.109375 -5.8125 C 4.804688 -5.5 4.65625 -5.113281 4.65625 -4.65625 C 4.65625 -4.082031 4.867188 -3.644531 5.296875 -3.34375 C 5.734375 -3.039062 6.4375 -2.890625 7.40625 -2.890625 Z M 7.40625 -2.890625 "/></g></g></g><g fill="#ffffff" fill-opacity="1"><g transform="translate(108.82356, 311.916296)"><g><path d="M 1.34375 1 C 1.195312 0.894531 1.117188 0.765625 1.109375 0.609375 C 1.097656 0.460938 1.144531 0.320312 1.25 0.1875 L 10.078125 -11.640625 C 10.179688 -11.773438 10.285156 -11.847656 10.390625 -11.859375 C 10.492188 -11.878906 10.609375 -11.84375 10.734375 -11.75 L 15.53125 -8.171875 C 15.675781 -8.066406 15.765625 -7.972656 15.796875 -7.890625 C 15.835938 -7.804688 15.832031 -7.679688 15.78125 -7.515625 L 13.484375 -0.75 C 13.453125 -0.632812 13.460938 -0.554688 13.515625 -0.515625 C 13.546875 -0.492188 13.613281 -0.515625 13.71875 -0.578125 L 19.234375 -4.640625 C 19.566406 -4.898438 19.84375 -4.945312 20.0625 -4.78125 L 25 -1.09375 C 25.207031 -0.9375 25.222656 -0.742188 25.046875 -0.515625 L 16.203125 11.328125 C 16.066406 11.515625 15.925781 11.613281 15.78125 11.625 C 15.644531 11.632812 15.476562 11.566406 15.28125 11.421875 L 12.390625 9.265625 C 12.210938 9.128906 12.117188 9.003906 12.109375 8.890625 C 12.097656 8.773438 12.144531 8.644531 12.25 8.5 L 18 0.8125 C 18.0625 0.71875 18.070312 0.65625 18.03125 0.625 C 17.976562 0.582031 17.894531 0.597656 17.78125 0.671875 L 9.515625 6.625 C 9.273438 6.769531 9.054688 6.769531 8.859375 6.625 L 7.078125 5.28125 C 6.867188 5.125 6.804688 4.914062 6.890625 4.65625 L 10.140625 -4.8125 C 10.179688 -4.957031 10.175781 -5.046875 10.125 -5.078125 C 10.082031 -5.117188 10.015625 -5.078125 9.921875 -4.953125 L 4.28125 2.609375 C 4.164062 2.753906 4.066406 2.832031 3.984375 2.84375 C 3.898438 2.863281 3.773438 2.8125 3.609375 2.6875 Z M 1.34375 1 "/></g></g></g><g fill="#ffffff" fill-opacity="1"><g transform="translate(126.573707, 324.804257)"><g><path d="M 15.859375 1.171875 C 14.773438 3.253906 13.476562 4.457031 11.96875 4.78125 C 10.46875 5.113281 8.75 4.773438 6.8125 3.765625 C 4.625 2.628906 3.320312 1.316406 2.90625 -0.171875 C 2.5 -1.660156 2.832031 -3.4375 3.90625 -5.5 L 7.90625 -13.203125 C 7.976562 -13.335938 8.066406 -13.425781 8.171875 -13.46875 C 8.273438 -13.507812 8.378906 -13.5 8.484375 -13.4375 L 12.09375 -11.578125 C 12.3125 -11.460938 12.351562 -11.273438 12.21875 -11.015625 L 7.96875 -2.828125 C 7.476562 -1.890625 7.304688 -1.117188 7.453125 -0.515625 C 7.609375 0.0859375 8.019531 0.566406 8.6875 0.921875 C 9.34375 1.265625 9.976562 1.332031 10.59375 1.125 C 11.21875 0.914062 11.785156 0.328125 12.296875 -0.640625 L 16.5 -8.75 C 16.644531 -9.03125 16.835938 -9.109375 17.078125 -8.984375 L 19.921875 -7.515625 C 20.148438 -7.390625 20.195312 -7.195312 20.0625 -6.9375 Z M 15.859375 1.171875 "/></g></g></g><g fill="#ffffff" fill-opacity="1"><g transform="translate(141.208607, 332.307225)"><g><path d="M 13.828125 -7.390625 C 13.628906 -7.859375 13.378906 -8.25 13.078125 -8.5625 C 12.773438 -8.882812 12.273438 -9.171875 11.578125 -9.421875 C 10.878906 -9.660156 10.328125 -9.738281 9.921875 -9.65625 C 9.515625 -9.570312 9.257812 -9.390625 9.15625 -9.109375 C 8.988281 -8.628906 9.296875 -8.140625 10.078125 -7.640625 L 13.109375 -5.578125 C 14.234375 -4.828125 14.960938 -3.957031 15.296875 -2.96875 C 15.640625 -1.976562 15.617188 -0.945312 15.234375 0.125 C 14.878906 1.113281 14.3125 1.882812 13.53125 2.4375 C 12.75 2.988281 11.796875 3.289062 10.671875 3.34375 C 9.554688 3.40625 8.347656 3.203125 7.046875 2.734375 C 5.578125 2.210938 4.320312 1.488281 3.28125 0.5625 C 2.238281 -0.351562 1.625 -1.289062 1.4375 -2.25 C 1.40625 -2.414062 1.40625 -2.53125 1.4375 -2.59375 C 1.476562 -2.726562 1.59375 -2.828125 1.78125 -2.890625 L 4.375 -3.5625 C 4.550781 -3.613281 4.707031 -3.617188 4.84375 -3.578125 C 4.988281 -3.523438 5.082031 -3.414062 5.125 -3.25 C 5.375 -2.5 5.6875 -1.921875 6.0625 -1.515625 C 6.445312 -1.109375 7.03125 -0.765625 7.8125 -0.484375 C 8.5625 -0.222656 9.191406 -0.113281 9.703125 -0.15625 C 10.210938 -0.207031 10.535156 -0.414062 10.671875 -0.78125 C 10.753906 -1.039062 10.71875 -1.300781 10.5625 -1.5625 C 10.414062 -1.820312 10.15625 -2.078125 9.78125 -2.328125 L 7 -4.171875 C 5.894531 -4.890625 5.128906 -5.78125 4.703125 -6.84375 C 4.273438 -7.90625 4.25 -8.96875 4.625 -10.03125 C 4.9375 -10.90625 5.476562 -11.613281 6.25 -12.15625 C 7.019531 -12.707031 7.953125 -13.023438 9.046875 -13.109375 C 10.140625 -13.191406 11.300781 -13.015625 12.53125 -12.578125 C 13.738281 -12.148438 14.789062 -11.550781 15.6875 -10.78125 C 16.582031 -10.019531 17.132812 -9.234375 17.34375 -8.421875 C 17.394531 -8.273438 17.398438 -8.144531 17.359375 -8.03125 C 17.328125 -7.945312 17.25 -7.875 17.125 -7.8125 L 14.375 -7.015625 C 14.289062 -6.984375 14.207031 -6.984375 14.125 -7.015625 C 14.039062 -7.046875 13.941406 -7.171875 13.828125 -7.390625 Z M 13.828125 -7.390625 "/></g></g></g><g fill="#ffffff" fill-opacity="1"><g transform="translate(155.984924, 337.326363)"><g><path d="M 9.21875 -14.03125 C 9.46875 -13.96875 9.5625 -13.796875 9.5 -13.515625 L 5.9375 0.828125 C 5.875 1.054688 5.773438 1.203125 5.640625 1.265625 C 5.515625 1.328125 5.332031 1.328125 5.09375 1.265625 L 1.640625 0.40625 C 1.421875 0.351562 1.28125 0.273438 1.21875 0.171875 C 1.164062 0.0664062 1.160156 -0.0703125 1.203125 -0.25 L 4.78125 -14.640625 C 4.820312 -14.796875 4.882812 -14.90625 4.96875 -14.96875 C 5.050781 -15.03125 5.15625 -15.046875 5.28125 -15.015625 Z M 9.21875 -14.03125 "/></g></g></g><g fill="#ffffff" fill-opacity="1"><g transform="translate(163.456798, 339.375945)"><g><path d="M 10.40625 -14.75 C 11.582031 -14.582031 12.609375 -14.222656 13.484375 -13.671875 C 14.367188 -13.117188 15.0625 -12.429688 15.5625 -11.609375 C 16.0625 -10.796875 16.335938 -9.90625 16.390625 -8.9375 C 16.398438 -8.757812 16.398438 -8.625 16.390625 -8.53125 C 16.367188 -8.394531 16.332031 -8.304688 16.28125 -8.265625 C 16.226562 -8.234375 16.140625 -8.222656 16.015625 -8.234375 L 12.28125 -8.53125 C 12.144531 -8.550781 12.054688 -8.582031 12.015625 -8.625 C 11.972656 -8.675781 11.941406 -8.796875 11.921875 -8.984375 C 11.890625 -9.679688 11.734375 -10.242188 11.453125 -10.671875 C 11.171875 -11.109375 10.707031 -11.375 10.0625 -11.46875 C 9.226562 -11.582031 8.53125 -11.300781 7.96875 -10.625 C 7.414062 -9.957031 7.023438 -8.800781 6.796875 -7.15625 C 6.546875 -5.457031 6.582031 -4.21875 6.90625 -3.4375 C 7.226562 -2.664062 7.832031 -2.21875 8.71875 -2.09375 C 9.46875 -1.988281 10.128906 -2.082031 10.703125 -2.375 C 11.285156 -2.675781 11.816406 -3.25 12.296875 -4.09375 C 12.359375 -4.21875 12.488281 -4.265625 12.6875 -4.234375 C 12.78125 -4.222656 12.859375 -4.203125 12.921875 -4.171875 L 15.484375 -3.28125 C 15.679688 -3.175781 15.765625 -3 15.734375 -2.75 C 15.671875 -2.351562 15.335938 -1.773438 14.734375 -1.015625 C 14.140625 -0.265625 13.273438 0.375 12.140625 0.90625 C 11.003906 1.4375 9.648438 1.59375 8.078125 1.375 C 6.578125 1.15625 5.3125 0.613281 4.28125 -0.25 C 3.25 -1.125 2.519531 -2.226562 2.09375 -3.5625 C 1.664062 -4.894531 1.5625 -6.363281 1.78125 -7.96875 C 2.007812 -9.539062 2.507812 -10.875 3.28125 -11.96875 C 4.0625 -13.070312 5.066406 -13.863281 6.296875 -14.34375 C 7.523438 -14.820312 8.894531 -14.957031 10.40625 -14.75 Z M 10.40625 -14.75 "/></g></g></g><g fill="#ffffff" fill-opacity="1"><g transform="translate(179.644916, 341.393556)"><g/></g></g><g fill="#ffffff" fill-opacity="1"><g transform="translate(184.467871, 341.849855)"><g><path d="M 10.140625 -11.953125 C 9.785156 -12.316406 9.410156 -12.59375 9.015625 -12.78125 C 8.617188 -12.96875 8.050781 -13.046875 7.3125 -13.015625 C 6.570312 -12.992188 6.023438 -12.867188 5.671875 -12.640625 C 5.328125 -12.410156 5.160156 -12.144531 5.171875 -11.84375 C 5.191406 -11.332031 5.660156 -10.988281 6.578125 -10.8125 L 10.15625 -10.015625 C 11.46875 -9.722656 12.457031 -9.179688 13.125 -8.390625 C 13.800781 -7.597656 14.160156 -6.632812 14.203125 -5.5 C 14.234375 -4.445312 13.988281 -3.515625 13.46875 -2.703125 C 12.957031 -1.898438 12.191406 -1.265625 11.171875 -0.796875 C 10.148438 -0.335938 8.945312 -0.0859375 7.5625 -0.046875 C 6 0.015625 4.5625 -0.191406 3.25 -0.671875 C 1.945312 -1.148438 1.03125 -1.800781 0.5 -2.625 C 0.425781 -2.757812 0.390625 -2.863281 0.390625 -2.9375 C 0.378906 -3.082031 0.453125 -3.21875 0.609375 -3.34375 L 2.75 -4.921875 C 2.90625 -5.035156 3.050781 -5.09375 3.1875 -5.09375 C 3.34375 -5.101562 3.46875 -5.039062 3.5625 -4.90625 C 4.082031 -4.300781 4.59375 -3.878906 5.09375 -3.640625 C 5.59375 -3.398438 6.257812 -3.296875 7.09375 -3.328125 C 7.882812 -3.347656 8.507812 -3.476562 8.96875 -3.71875 C 9.425781 -3.957031 9.648438 -4.269531 9.640625 -4.65625 C 9.628906 -4.925781 9.503906 -5.15625 9.265625 -5.34375 C 9.023438 -5.53125 8.6875 -5.671875 8.25 -5.765625 L 4.96875 -6.4375 C 3.675781 -6.707031 2.632812 -7.257812 1.84375 -8.09375 C 1.0625 -8.925781 0.65625 -9.90625 0.625 -11.03125 C 0.59375 -11.957031 0.832031 -12.816406 1.34375 -13.609375 C 1.863281 -14.398438 2.613281 -15.035156 3.59375 -15.515625 C 4.582031 -15.992188 5.726562 -16.257812 7.03125 -16.3125 C 8.3125 -16.351562 9.503906 -16.179688 10.609375 -15.796875 C 11.722656 -15.410156 12.53125 -14.878906 13.03125 -14.203125 C 13.132812 -14.078125 13.191406 -13.957031 13.203125 -13.84375 C 13.203125 -13.75 13.148438 -13.660156 13.046875 -13.578125 L 10.796875 -11.8125 C 10.722656 -11.75 10.644531 -11.71875 10.5625 -11.71875 C 10.46875 -11.71875 10.328125 -11.796875 10.140625 -11.953125 Z M 10.140625 -11.953125 "/></g></g></g><g fill="#ffffff" fill-opacity="1"><g transform="translate(200.31162, 341.248115)"><g><path d="M -2 -15.234375 C -2.019531 -15.378906 -1.988281 -15.503906 -1.90625 -15.609375 C -1.832031 -15.710938 -1.710938 -15.78125 -1.546875 -15.8125 L 11.046875 -17.953125 C 11.210938 -17.984375 11.347656 -17.960938 11.453125 -17.890625 C 11.566406 -17.816406 11.632812 -17.707031 11.65625 -17.5625 L 12.078125 -15.046875 C 12.128906 -14.785156 12 -14.628906 11.6875 -14.578125 L 7.96875 -13.9375 C 7.800781 -13.914062 7.726562 -13.835938 7.75 -13.703125 L 9.71875 -2.140625 C 9.738281 -1.984375 9.71875 -1.859375 9.65625 -1.765625 C 9.601562 -1.671875 9.515625 -1.613281 9.390625 -1.59375 L 5.390625 -0.921875 C 5.128906 -0.878906 4.972656 -1 4.921875 -1.28125 L 2.96875 -12.796875 C 2.9375 -12.992188 2.847656 -13.078125 2.703125 -13.046875 L -1 -12.421875 C -1.332031 -12.359375 -1.523438 -12.457031 -1.578125 -12.71875 Z M -2 -15.234375 "/></g></g></g><g fill="#ffffff" fill-opacity="1"><g transform="translate(216.015625, 338.526999)"><g><path d="M 12.046875 -10.359375 C 12.753906 -8.128906 12.691406 -6.363281 11.859375 -5.0625 C 11.023438 -3.769531 9.566406 -2.796875 7.484375 -2.140625 C 5.128906 -1.398438 3.28125 -1.410156 1.9375 -2.171875 C 0.59375 -2.941406 -0.425781 -4.4375 -1.125 -6.65625 L -3.734375 -14.921875 C -3.773438 -15.078125 -3.769531 -15.203125 -3.71875 -15.296875 C -3.675781 -15.398438 -3.597656 -15.472656 -3.484375 -15.515625 L 0.390625 -16.734375 C 0.628906 -16.804688 0.789062 -16.703125 0.875 -16.421875 L 3.65625 -7.625 C 3.976562 -6.613281 4.398438 -5.945312 4.921875 -5.625 C 5.453125 -5.3125 6.082031 -5.269531 6.8125 -5.5 C 7.519531 -5.71875 8.019531 -6.113281 8.3125 -6.6875 C 8.601562 -7.269531 8.582031 -8.085938 8.25 -9.140625 L 5.5 -17.828125 C 5.40625 -18.140625 5.484375 -18.335938 5.734375 -18.421875 L 8.796875 -19.390625 C 9.046875 -19.460938 9.210938 -19.359375 9.296875 -19.078125 Z M 12.046875 -10.359375 "/></g></g></g><g fill="#ffffff" fill-opacity="1"><g transform="translate(231.736878, 333.531801)"><g><path d="M -3.09375 -16.109375 C -1.5625 -16.835938 -0.609375 -17.289062 -0.234375 -17.46875 C 2.316406 -18.570312 4.535156 -18.800781 6.421875 -18.15625 C 8.316406 -17.507812 9.773438 -16.132812 10.796875 -14.03125 C 11.472656 -12.625 11.78125 -11.242188 11.71875 -9.890625 C 11.664062 -8.535156 11.210938 -7.273438 10.359375 -6.109375 C 9.503906 -4.953125 8.253906 -3.976562 6.609375 -3.1875 L 1.5625 -0.75 C 1.363281 -0.65625 1.195312 -0.628906 1.0625 -0.671875 C 0.9375 -0.722656 0.820312 -0.851562 0.71875 -1.0625 L -5.640625 -14.28125 C -5.734375 -14.457031 -5.757812 -14.597656 -5.71875 -14.703125 C -5.675781 -14.816406 -5.554688 -14.921875 -5.359375 -15.015625 Z M 0.140625 -13.9375 C 0.078125 -13.90625 0.0351562 -13.859375 0.015625 -13.796875 C 0.00390625 -13.742188 0.0195312 -13.671875 0.0625 -13.578125 L 3.765625 -5.890625 C 3.816406 -5.773438 3.875 -5.707031 3.9375 -5.6875 C 4 -5.675781 4.082031 -5.695312 4.1875 -5.75 L 4.3125 -5.8125 C 5.582031 -6.425781 6.390625 -7.21875 6.734375 -8.1875 C 7.078125 -9.164062 6.890625 -10.398438 6.171875 -11.890625 C 5.546875 -13.171875 4.832031 -14.003906 4.03125 -14.390625 C 3.238281 -14.785156 2.335938 -14.789062 1.328125 -14.40625 Z M 0.140625 -13.9375 "/></g></g></g><g fill="#ffffff" fill-opacity="1"><g transform="translate(247.056812, 325.839907)"><g><path d="M -3.59375 -16.40625 C -3.382812 -16.539062 -3.203125 -16.484375 -3.046875 -16.234375 L 4.734375 -3.671875 C 4.859375 -3.472656 4.894531 -3.300781 4.84375 -3.15625 C 4.800781 -3.019531 4.675781 -2.890625 4.46875 -2.765625 L 1.4375 -0.890625 C 1.25 -0.773438 1.097656 -0.726562 0.984375 -0.75 C 0.867188 -0.78125 0.757812 -0.875 0.65625 -1.03125 L -7.140625 -13.640625 C -7.222656 -13.773438 -7.253906 -13.894531 -7.234375 -14 C -7.222656 -14.113281 -7.164062 -14.203125 -7.0625 -14.265625 Z M -3.59375 -16.40625 "/></g></g></g><g fill="#ffffff" fill-opacity="1"><g transform="translate(253.78276, 321.933075)"><g><path d="M 6.734375 -4.953125 C 5.503906 -3.992188 4.226562 -3.421875 2.90625 -3.234375 C 1.59375 -3.046875 0.3125 -3.238281 -0.9375 -3.8125 C -2.1875 -4.394531 -3.3125 -5.332031 -4.3125 -6.625 C -5.320312 -7.925781 -5.953125 -9.253906 -6.203125 -10.609375 C -6.453125 -11.972656 -6.328125 -13.273438 -5.828125 -14.515625 C -5.328125 -15.765625 -4.472656 -16.863281 -3.265625 -17.8125 C -2.054688 -18.75 -0.789062 -19.300781 0.53125 -19.46875 C 1.851562 -19.632812 3.144531 -19.425781 4.40625 -18.84375 C 5.664062 -18.269531 6.800781 -17.332031 7.8125 -16.03125 C 8.800781 -14.757812 9.425781 -13.445312 9.6875 -12.09375 C 9.945312 -10.738281 9.820312 -9.441406 9.3125 -8.203125 C 8.8125 -6.972656 7.953125 -5.890625 6.734375 -4.953125 Z M 4.671875 -7.59375 C 5.171875 -7.976562 5.472656 -8.40625 5.578125 -8.875 C 5.691406 -9.34375 5.601562 -9.898438 5.3125 -10.546875 C 5.03125 -11.191406 4.535156 -11.96875 3.828125 -12.875 C 2.742188 -14.269531 1.804688 -15.144531 1.015625 -15.5 C 0.234375 -15.863281 -0.515625 -15.765625 -1.234375 -15.203125 C -1.960938 -14.640625 -2.25 -13.929688 -2.09375 -13.078125 C -1.945312 -12.222656 -1.332031 -11.097656 -0.25 -9.703125 C 0.457031 -8.796875 1.085938 -8.125 1.640625 -7.6875 C 2.203125 -7.25 2.722656 -7.023438 3.203125 -7.015625 C 3.679688 -7.003906 4.171875 -7.195312 4.671875 -7.59375 Z M 4.671875 -7.59375 "/></g></g></g><path fill="#ffffff" d="M 68.761719 167.175781 L 168.09375 167.175781 L 168.09375 173.285156 L 68.761719 173.285156 Z M 210.679688 167.175781 L 308.546875 167.175781 L 308.546875 173.285156 L 210.679688 173.285156 L 210.679688 167.175781 " fill-opacity="1" fill-rule="nonzero"/><g clip-path="url(#174e8403c2)"><path fill="#ffffff" d="M 210.71875 182.835938 L 343.832031 182.835938 L 343.832031 185.894531 C 343.832031 187.871094 344.644531 189.671875 345.953125 190.976562 C 347.261719 192.289062 349.0625 193.101562 351.046875 193.101562 L 354.105469 193.101562 L 354.105469 272.890625 L 351.046875 272.890625 C 349.0625 272.890625 347.261719 273.703125 345.953125 275.011719 C 344.644531 276.316406 343.832031 278.121094 343.832031 280.101562 L 343.832031 283.15625 L 311.847656 283.15625 C 299.121094 304.363281 281.097656 322.054688 259.617188 334.394531 C 238.371094 346.597656 213.761719 353.578125 187.53125 353.578125 C 161.308594 353.578125 136.691406 346.597656 115.453125 334.394531 C 93.964844 322.054688 75.949219 304.363281 63.222656 283.15625 L 31.234375 283.15625 L 31.234375 280.101562 C 31.234375 278.121094 30.421875 276.316406 29.113281 275.011719 C 27.804688 273.703125 26.003906 272.890625 24.023438 272.890625 L 20.964844 272.890625 L 20.964844 193.101562 L 24.023438 193.101562 C 26.003906 193.101562 27.804688 192.289062 29.113281 190.976562 C 30.421875 189.671875 31.234375 187.871094 31.234375 185.894531 L 31.234375 182.835938 L 167.796875 182.835938 L 167.796875 188.945312 L 36.996094 188.945312 C 36.417969 191.390625 35.160156 193.578125 33.4375 195.300781 C 31.71875 197.023438 29.523438 198.277344 27.082031 198.855469 L 27.082031 267.132812 C 29.523438 267.710938 31.71875 268.972656 33.4375 270.691406 C 35.160156 272.410156 36.417969 274.597656 36.996094 277.042969 L 338.070312 277.042969 C 338.652344 274.597656 339.910156 272.410156 341.628906 270.691406 C 343.351562 268.972656 345.539062 267.710938 347.988281 267.132812 L 347.988281 198.855469 C 345.539062 198.277344 343.351562 197.023438 341.628906 195.300781 C 339.910156 193.578125 338.652344 191.390625 338.070312 188.945312 L 210.71875 188.945312 Z M 304.675781 283.15625 L 70.390625 283.15625 C 82.449219 302.09375 98.972656 317.910156 118.484375 329.117188 C 138.804688 340.789062 162.375 347.46875 187.53125 347.46875 C 212.691406 347.46875 236.265625 340.789062 256.582031 329.117188 C 276.09375 317.910156 292.613281 302.09375 304.675781 283.15625 " fill-opacity="1" fill-rule="nonzero"/></g><path fill="#ffffff" d="M 186.761719 166.640625 L 183.34375 166.640625 L 183.320312 164.863281 L 186.753906 164.863281 L 186.761719 166.640625 " fill-opacity="1" fill-rule="nonzero"/><path fill="#ffffff" d="M 187.292969 164.863281 L 191.171875 164.863281 L 190.84375 140.183594 L 187.171875 140.183594 L 187.292969 164.863281 " fill-opacity="1" fill-rule="nonzero"/><path fill="#ffffff" d="M 191.710938 164.863281 L 195.730469 164.863281 L 195.339844 140.183594 L 191.378906 140.183594 L 191.710938 164.863281 " fill-opacity="1" fill-rule="nonzero"/><path fill="#ffffff" d="M 178.855469 164.863281 L 182.78125 164.863281 L 182.503906 140.183594 L 178.855469 140.183594 L 178.855469 164.863281 " fill-opacity="1" fill-rule="nonzero"/><path fill="#ffffff" d="M 196.269531 164.863281 L 199.402344 164.863281 L 198.996094 140.183594 L 195.875 140.183594 L 196.269531 164.863281 " fill-opacity="1" fill-rule="nonzero"/><path fill="#ffffff" d="M 186.753906 164.863281 L 183.320312 164.863281 L 183.042969 140.183594 L 186.632812 140.183594 L 186.753906 164.863281 " fill-opacity="1" fill-rule="nonzero"/><path fill="#ffffff" d="M 201.792969 140.183594 L 199.535156 140.183594 L 199.941406 164.863281 L 201.714844 164.863281 L 201.71875 166.640625 L 199.972656 166.640625 L 200.328125 188.246094 L 200.050781 188.25 L 201.777344 188.25 L 201.714844 164.558594 L 201.792969 140.164062 L 201.792969 140.183594 " fill-opacity="1" fill-rule="nonzero"/><path fill="#ffffff" d="M 178.855469 166.640625 L 178.855469 188.25 L 183.046875 188.25 L 182.804688 166.640625 L 178.855469 166.640625 " fill-opacity="1" fill-rule="nonzero"/><path fill="#ffffff" d="M 196.296875 166.640625 L 196.640625 188.246094 L 196.363281 188.25 L 199.789062 188.25 L 199.433594 166.640625 L 196.296875 166.640625 " fill-opacity="1" fill-rule="nonzero"/><path fill="#ffffff" d="M 187.300781 166.640625 L 187.40625 188.25 L 187.070312 188.25 L 191.492188 188.25 L 191.199219 166.640625 L 187.300781 166.640625 " fill-opacity="1" fill-rule="nonzero"/><path fill="#ffffff" d="M 191.738281 166.640625 L 192.023438 188.25 L 191.703125 188.25 L 196.101562 188.25 L 195.757812 166.640625 L 191.738281 166.640625 " fill-opacity="1" fill-rule="nonzero"/><path fill="#ffffff" d="M 183.238281 188.25 L 183.585938 188.25 L 183.34375 166.640625 L 186.761719 166.640625 L 186.871094 188.25 L 183.238281 188.25 " fill-opacity="1" fill-rule="nonzero"/><path fill="#ffffff" d="M 177.117188 166.640625 L 176.703125 188.25 L 178.316406 188.25 L 178.316406 166.640625 L 177.117188 166.640625 " fill-opacity="1" fill-rule="nonzero"/><path fill="#ffffff" d="M 212.222656 61.476562 C 215.3125 53.992188 224.546875 54.289062 225.175781 42.445312 C 225.5625 35.152344 221.878906 27.234375 214.988281 24.714844 C 205.707031 21.324219 196.035156 26.140625 192.273438 35.105469 C 191.777344 36.292969 191.265625 37.667969 190.800781 38.96875 L 186.976562 37.449219 C 187.515625 35.015625 186.8125 32.777344 185.214844 32.222656 C 183.421875 31.597656 181.179688 33.34375 180.210938 36.125 C 179.242188 38.90625 179.910156 41.667969 181.703125 42.292969 C 183.3125 42.851562 185.28125 41.507812 186.367188 39.21875 L 190.1875 40.734375 C 188.832031 44.710938 187.769531 48.707031 186.636719 52.746094 L 182.527344 51.121094 C 183.066406 48.679688 182.359375 46.441406 180.769531 45.886719 C 178.976562 45.261719 176.734375 47.011719 175.765625 49.789062 C 174.792969 52.570312 175.460938 55.332031 177.253906 55.960938 C 178.863281 56.515625 180.832031 55.171875 181.921875 52.882812 L 186.128906 54.554688 L 182.652344 66.925781 L 178.664062 65.34375 C 179.203125 62.910156 178.496094 60.671875 176.902344 60.117188 C 175.109375 59.492188 172.867188 61.238281 171.902344 64.019531 C 170.929688 66.800781 171.597656 69.558594 173.390625 70.1875 C 175 70.746094 176.96875 69.398438 178.054688 67.113281 L 182.144531 68.730469 L 178.820312 80.546875 L 174.667969 78.898438 C 175.207031 76.460938 174.503906 74.222656 172.914062 73.667969 C 171.121094 73.042969 168.878906 74.792969 167.910156 77.570312 C 166.941406 80.355469 167.605469 83.113281 169.398438 83.738281 C 171.007812 84.296875 172.976562 82.953125 174.066406 80.664062 L 178.3125 82.351562 L 174.90625 94.472656 L 170.824219 92.855469 C 171.363281 90.414062 170.660156 88.179688 169.070312 87.625 C 167.273438 87 165.03125 88.75 164.0625 91.527344 C 163.09375 94.304688 163.757812 97.066406 165.554688 97.691406 C 167.160156 98.253906 169.128906 96.90625 170.21875 94.617188 L 174.398438 96.277344 L 170.800781 109.070312 L 166.648438 107.417969 C 167.1875 104.984375 166.484375 102.746094 164.886719 102.191406 C 163.09375 101.566406 160.855469 103.3125 159.882812 106.089844 C 158.914062 108.875 159.582031 111.636719 161.378906 112.261719 C 162.984375 112.820312 164.953125 111.476562 166.039062 109.1875 L 170.292969 110.871094 L 167.496094 120.835938 C 165.800781 126.851562 166.003906 128.378906 172.066406 131.390625 C 175.734375 133.21875 176.828125 135.167969 177.148438 138.035156 L 178.316406 138.035156 L 178.316406 116.046875 C 177.773438 116.722656 176.941406 117.160156 176.007812 117.160156 C 174.378906 117.160156 173.058594 115.839844 173.058594 114.210938 C 173.058594 112.582031 174.378906 111.261719 176.007812 111.261719 C 177.636719 111.261719 178.957031 112.582031 178.957031 114.210938 C 178.957031 114.480469 178.917969 114.738281 178.855469 114.992188 L 178.855469 138.035156 L 182.484375 138.035156 L 182.078125 102.347656 C 181.542969 103.109375 180.65625 103.605469 179.65625 103.605469 C 178.027344 103.605469 176.707031 102.285156 176.707031 100.660156 C 176.707031 99.03125 178.027344 97.710938 179.65625 97.710938 C 181.289062 97.710938 182.609375 99.03125 182.609375 100.660156 C 182.609375 100.742188 182.605469 100.824219 182.601562 100.902344 L 183.015625 138.035156 L 186.625 138.035156 L 186.375 88.066406 C 185.835938 88.800781 184.96875 89.277344 183.992188 89.277344 C 182.359375 89.277344 181.039062 87.957031 181.039062 86.328125 C 181.039062 84.703125 182.359375 83.382812 183.992188 83.382812 C 185.621094 83.382812 186.941406 84.703125 186.941406 86.328125 C 186.941406 86.484375 186.929688 86.632812 186.90625 86.78125 L 187.15625 138.035156 L 190.8125 138.035156 L 189.953125 74.246094 C 189.421875 75.023438 188.527344 75.53125 187.515625 75.53125 C 185.886719 75.53125 184.5625 74.210938 184.5625 72.582031 C 184.5625 70.953125 185.886719 69.632812 187.515625 69.632812 C 188.980469 69.632812 190.195312 70.703125 190.425781 72.105469 L 190.460938 72.105469 L 191.351562 138.035156 L 195.304688 138.035156 L 194.0625 59.824219 C 193.53125 60.59375 192.644531 61.09375 191.640625 61.09375 C 190.011719 61.09375 188.691406 59.773438 188.691406 58.144531 C 188.691406 56.515625 190.011719 55.195312 191.640625 55.195312 C 193.273438 55.195312 194.59375 56.515625 194.59375 58.144531 C 194.59375 58.246094 194.589844 58.339844 194.578125 58.4375 L 195.84375 138.035156 L 198.960938 138.035156 L 197.4375 46.175781 C 196.90625 46.945312 196.019531 47.449219 195.011719 47.449219 C 193.378906 47.449219 192.058594 46.128906 192.058594 44.503906 C 192.058594 42.875 193.378906 41.554688 195.011719 41.554688 C 196.640625 41.554688 197.960938 42.875 197.960938 44.503906 C 197.960938 44.566406 197.957031 44.636719 197.953125 44.699219 L 199.5 138.035156 L 201.800781 138.035156 L 201.816406 132.96875 C 203.527344 118.261719 216.890625 116.394531 226.3125 114.839844 C 227 94.851562 207.355469 73.265625 212.222656 61.476562 " fill-opacity="1" fill-rule="nonzero"/><path fill="#ffffff" d="M 178.316406 140.183594 L 177.265625 140.183594 C 177.273438 140.65625 177.273438 141.152344 177.273438 141.667969 L 177.191406 162.859375 L 177.152344 164.863281 L 178.316406 164.863281 L 178.316406 140.183594 " fill-opacity="1" fill-rule="nonzero"/><path fill="#ffffff" d="M 241.136719 298.773438 C 234.164062 305.382812 225.980469 310.714844 216.949219 314.398438 C 207.867188 318.105469 197.9375 320.148438 187.53125 320.148438 C 177.128906 320.148438 167.199219 318.105469 158.117188 314.398438 C 149.089844 310.714844 140.902344 305.382812 133.933594 298.773438 L 36.585938 298.773438 L 36.585938 292.660156 L 165.425781 292.660156 L 165.425781 298.773438 L 143.253906 298.773438 C 148.441406 302.84375 154.207031 306.214844 160.414062 308.742188 C 168.773438 312.152344 177.933594 314.039062 187.53125 314.039062 C 197.136719 314.039062 206.292969 312.152344 214.65625 308.742188 C 220.855469 306.214844 226.625 302.84375 231.816406 298.773438 L 209.640625 298.773438 L 209.640625 292.660156 L 338.484375 292.660156 L 338.484375 298.773438 L 241.136719 298.773438 " fill-opacity="1" fill-rule="nonzero"/><path fill="#ffffff" d="M 187.523438 284.722656 L 191.460938 293.453125 L 200.984375 294.5 L 193.898438 300.9375 L 195.84375 310.3125 L 187.523438 305.5625 L 179.203125 310.3125 L 181.148438 300.9375 L 174.0625 294.5 L 183.582031 293.453125 L 187.523438 284.722656 " fill-opacity="1" fill-rule="evenodd"/></svg>