<svg version="1.1" id="Layer_1" xmlns="http://www.w3.org/2000/svg" xmlns:xlink="http://www.w3.org/1999/xlink" x="0px" y="0px"
	 width="100%" viewBox="0 0 1105 207" enable-background="new 0 0 1105 207" xml:space="preserve">
<path fill="#010101" opacity="1.000000" stroke="none" 
	d="
M1.000000,59.000000 
	C1.000000,39.669857 1.000000,20.339712 1.000000,1.007177 
	C369.269379,1.004785 737.538757,1.004785 1105.904053,1.004785 
	C1105.904053,69.924538 1105.904053,138.849258 1105.904053,207.886993 
	C737.666687,207.886993 369.333344,207.886993 1.000000,207.886993 
	C1.000000,172.914032 1.000000,137.919662 1.467323,102.500519 
	C128.273911,102.075768 254.613174,102.075768 380.847839,102.075768 
	C380.847839,87.411896 380.847839,73.467407 380.847839,59.079308 
	C378.865936,59.079308 377.080841,59.079311 375.295746,59.079311 
	C286.843323,59.079311 198.390930,59.086796 109.938522,59.075680 
	C73.625679,59.071114 37.312840,59.026432 1.000000,59.000000 
M481.170776,21.582445 
	C464.121521,28.164202 453.270477,40.651497 448.091736,57.822479 
	C441.666412,79.126556 442.125214,100.657158 449.197144,121.697350 
	C455.776581,141.272293 469.242523,153.574509 490.245850,156.301651 
	C508.300842,158.645996 524.270569,155.759476 533.529602,137.548508 
	C533.740234,137.134232 534.568481,137.033981 535.768127,136.486038 
	C535.768127,142.911194 535.768127,148.780273 535.768127,154.653564 
	C544.669373,154.653564 553.038025,154.653564 561.316101,154.653564 
	C561.316101,129.577454 561.316101,104.853691 561.316101,80.248108 
	C541.589355,80.248108 522.206543,80.248108 502.811249,80.248108 
	C502.811249,87.556274 502.811249,94.503891 502.811249,102.028656 
	C513.580933,102.028656 524.122986,102.028656 535.126709,102.028656 
	C534.737793,106.764641 534.632324,110.921692 534.005920,114.998688 
	C533.085632,120.988342 530.257324,125.974495 525.078674,129.392990 
	C507.336121,141.105133 481.272461,132.156448 475.063568,111.995338 
	C470.714172,97.872154 470.795349,83.384148 473.401733,68.983528 
	C475.976807,54.755524 483.374268,44.017666 498.368683,41.263042 
	C514.128357,38.367836 528.756958,40.058323 537.897888,55.947788 
	C538.404785,56.828854 540.890442,57.569828 541.741272,57.095490 
	C548.097961,53.551746 554.274658,49.685112 560.414490,45.975998 
	C556.519104,34.936459 548.512573,26.680271 536.608887,22.078625 
	C518.523621,15.087304 500.209930,15.199319 481.170776,21.582445 
M1024.773682,57.700176 
	C1023.460938,55.859516 1022.241943,52.515175 1020.819824,52.426468 
	C1012.646240,51.916603 1004.424500,52.178223 995.728027,52.178223 
	C996.497437,54.299564 996.975403,55.693428 997.505310,57.067295 
	C1009.931335,89.283005 1022.373169,121.492661 1034.767212,153.720718 
	C1035.463257,155.530762 1036.335327,157.540329 1036.166260,159.368195 
	C1035.550171,166.019821 1029.042603,174.077026 1022.413635,174.848587 
	C1016.148987,175.577744 1009.673157,174.370926 1003.286011,174.265228 
	C1001.919250,174.242599 999.518616,175.052780 999.320374,175.888611 
	C997.836975,182.143997 996.787109,188.502167 995.578857,194.948837 
	C1004.089478,198.376678 1012.438049,198.985275 1021.001343,198.374069 
	C1034.486450,197.411545 1044.724243,191.064285 1051.560669,179.580750 
	C1054.855469,174.046494 1057.706055,168.155426 1060.011353,162.139847 
	C1073.437134,127.105774 1086.644165,91.987892 1099.910278,56.892662 
	C1100.422852,55.536674 1100.782227,54.122784 1101.315796,52.404640 
	C1092.467896,52.404640 1084.048950,52.404640 1075.293335,52.404640 
	C1066.958496,76.219795 1058.590576,100.129616 1050.222778,124.039436 
	C1049.605713,123.977875 1048.988647,123.916313 1048.371704,123.854752 
	C1040.574585,102.056206 1032.777588,80.257668 1024.773682,57.700176 
M864.415527,156.965622 
	C884.300171,157.171112 899.915955,145.841934 904.096497,132.351562 
	C899.250366,129.245605 894.302612,126.192848 889.489258,122.941078 
	C886.966431,121.236710 885.641296,121.726555 883.942566,124.267876 
	C877.490845,133.919357 865.845337,137.445801 853.393494,133.861359 
	C843.527954,131.021423 837.746399,122.435013 837.389465,109.594337 
	C839.014526,109.594337 840.631226,109.594337 842.247864,109.594337 
	C860.908447,109.594307 879.569031,109.597458 898.229614,109.592560 
	C904.933167,109.590805 905.115173,109.586777 905.297546,102.712624 
	C905.442993,97.231293 905.405518,91.703918 904.872498,86.253387 
	C903.194519,69.095749 892.948669,56.697784 876.945312,52.380001 
	C873.114075,51.346306 869.102966,50.828480 865.138611,50.463520 
	C839.057495,48.062492 818.057617,62.312859 812.650208,87.053383 
	C810.832825,95.368469 810.685608,104.298912 811.284363,112.842308 
	C812.762817,133.935303 825.202209,149.520111 844.219238,154.545853 
	C850.413147,156.182739 857.032043,156.211655 864.415527,156.965622 
M618.852112,94.330292 
	C613.707031,95.653229 608.435547,96.614960 603.439697,98.364059 
	C585.544189,104.629471 579.166077,117.833092 584.593506,137.418106 
	C587.971436,149.607498 597.431763,155.303696 609.402832,156.625351 
	C621.872253,158.002060 633.405701,156.009460 641.143372,144.534592 
	C642.001770,143.261688 642.838257,141.974060 643.685913,140.691742 
	C646.589783,144.670609 648.621826,148.596863 651.682190,151.400558 
	C657.321228,156.566559 672.638306,157.470093 679.330750,153.594467 
	C680.066711,153.168213 681.021301,152.159622 680.971924,151.487442 
	C680.551697,145.766617 679.922485,140.061172 679.355713,134.348892 
	C668.850281,135.798203 667.554871,134.650238 667.515930,124.775803 
	C667.457520,109.954544 667.831360,95.113388 667.182495,80.317482 
	C666.453552,63.695156 657.810608,54.403900 641.561646,51.336296 
	C639.113892,50.874195 636.611938,50.621941 634.122925,50.468029 
	C615.210754,49.298584 598.682129,54.574593 585.088501,68.680847 
	C587.997192,73.073318 591.071716,77.220543 593.597229,81.678787 
	C595.818481,85.599976 597.409546,85.398453 600.606689,82.446945 
	C610.135010,73.650681 621.306885,69.328201 634.466797,71.939659 
	C638.785889,72.796722 641.621643,75.235680 642.156738,79.890427 
	C642.700256,84.617477 641.041138,88.336205 636.515564,89.825256 
	C631.022949,91.632500 625.305786,92.757202 618.852112,94.330292 
M709.560791,153.068085 
	C719.409180,158.141693 729.403137,158.164886 739.746704,154.614014 
	C738.843323,147.407776 738.028259,140.905411 737.180542,134.143112 
	C735.606750,134.457962 734.825989,134.652222 734.033630,134.766708 
	C727.045349,135.776505 724.064514,133.377899 723.597290,126.320702 
	C723.487427,124.661499 723.524414,122.991386 723.524231,121.326294 
	C723.520691,86.348282 723.521606,51.370277 723.521606,16.392267 
	C723.521606,14.659986 723.521545,12.927707 723.521545,11.291307 
	C714.469788,11.291307 706.216003,11.291307 697.640747,11.291307 
	C697.640747,13.367595 697.640747,15.180627 697.640747,16.993658 
	C697.640747,49.639801 697.623291,82.285957 697.656555,114.932068 
	C697.662659,120.924950 697.599182,126.938782 698.058105,132.905228 
	C698.684021,141.042923 701.777344,148.045380 709.560791,153.068085 
M794.415710,134.369568 
	C785.944946,136.036896 782.851379,133.673538 782.534363,125.267128 
	C782.484131,123.936699 782.521851,122.602898 782.521851,121.270653 
	C782.521545,86.465660 782.521606,51.660664 782.521606,16.855669 
	C782.521606,15.056196 782.521545,13.256724 782.521545,11.305077 
	C773.697388,11.305077 765.325012,11.305077 756.640747,11.305077 
	C756.640747,13.395811 756.640747,15.209496 756.640747,17.023182 
	C756.640747,50.662460 756.626343,84.301750 756.656372,117.941002 
	C756.660828,122.933563 756.621948,127.947006 757.035950,132.914703 
	C758.688477,152.747177 781.001953,164.142593 798.590149,154.063278 
	C798.202393,150.677750 797.948120,147.195297 797.368469,143.767853 
	C796.834473,140.611008 795.950684,137.513321 794.415710,134.369568 
M936.530457,155.004623 
	C942.137939,155.004623 947.745483,155.004623 953.735718,155.004623 
	C953.735718,139.375504 953.614929,124.261169 953.798279,109.150528 
	C953.866638,103.520073 954.080750,97.781578 955.213318,92.295685 
	C957.951599,79.031616 968.454224,72.691261 981.737488,75.716545 
	C982.867615,75.973923 984.049683,76.740158 985.071899,76.547958 
	C986.360107,76.305756 988.376343,75.517982 988.579468,74.624710 
	C990.113892,67.876869 991.280579,61.045403 992.563354,54.232864 
	C985.845825,50.898132 979.298889,50.776062 972.634277,52.066601 
	C963.544312,53.826778 958.206970,60.131622 954.451660,68.294807 
	C954.000916,68.117050 953.550232,67.939293 953.099487,67.761536 
	C953.099487,62.650517 953.099487,57.539505 953.099487,52.509457 
	C944.171875,52.509457 936.107056,52.509457 928.000916,52.509457 
	C928.000916,86.753029 928.000916,120.662277 928.000916,155.004623 
	C930.633728,155.004623 933.088501,155.004623 936.530457,155.004623 
z"/>
<path fill="#FEFEFE" opacity="1.000000" stroke="none" 
	d="
M1.000000,59.468658 
	C37.312840,59.026432 73.625679,59.071114 109.938522,59.075680 
	C198.390930,59.086796 286.843323,59.079311 375.295746,59.079311 
	C377.080841,59.079311 378.865936,59.079308 380.847839,59.079308 
	C380.847839,73.467407 380.847839,87.411896 380.847839,102.075768 
	C254.613174,102.075768 128.273911,102.075768 1.467323,102.037888 
	C1.000000,87.979103 1.000000,73.958214 1.000000,59.468658 
z"/>
<path fill="#FCFCFC" opacity="1.000000" stroke="none" 
	d="
M481.516541,21.404079 
	C500.209930,15.199319 518.523621,15.087304 536.608887,22.078625 
	C548.512573,26.680271 556.519104,34.936459 560.414490,45.975998 
	C554.274658,49.685112 548.097961,53.551746 541.741272,57.095490 
	C540.890442,57.569828 538.404785,56.828854 537.897888,55.947788 
	C528.756958,40.058323 514.128357,38.367836 498.368683,41.263042 
	C483.374268,44.017666 475.976807,54.755524 473.401733,68.983528 
	C470.795349,83.384148 470.714172,97.872154 475.063568,111.995338 
	C481.272461,132.156448 507.336121,141.105133 525.078674,129.392990 
	C530.257324,125.974495 533.085632,120.988342 534.005920,114.998688 
	C534.632324,110.921692 534.737793,106.764641 535.126709,102.028656 
	C524.122986,102.028656 513.580933,102.028656 502.811249,102.028656 
	C502.811249,94.503891 502.811249,87.556274 502.811249,80.248108 
	C522.206543,80.248108 541.589355,80.248108 561.316101,80.248108 
	C561.316101,104.853691 561.316101,129.577454 561.316101,154.653564 
	C553.038025,154.653564 544.669373,154.653564 535.768127,154.653564 
	C535.768127,148.780273 535.768127,142.911194 535.768127,136.486038 
	C534.568481,137.033981 533.740234,137.134232 533.529602,137.548508 
	C524.270569,155.759476 508.300842,158.645996 490.245850,156.301651 
	C469.242523,153.574509 455.776581,141.272293 449.197144,121.697350 
	C442.125214,100.657158 441.666412,79.126556 448.091736,57.822479 
	C453.270477,40.651497 464.121521,28.164202 481.516541,21.404079 
z"/>
<path fill="#FCFCFC" opacity="1.000000" stroke="none" 
	d="
M1024.877075,58.079651 
	C1032.777588,80.257668 1040.574585,102.056206 1048.371704,123.854752 
	C1048.988647,123.916313 1049.605713,123.977875 1050.222778,124.039436 
	C1058.590576,100.129616 1066.958496,76.219795 1075.293335,52.404640 
	C1084.048950,52.404640 1092.467896,52.404640 1101.315796,52.404640 
	C1100.782227,54.122784 1100.422852,55.536674 1099.910278,56.892662 
	C1086.644165,91.987892 1073.437134,127.105774 1060.011353,162.139847 
	C1057.706055,168.155426 1054.855469,174.046494 1051.560669,179.580750 
	C1044.724243,191.064285 1034.486450,197.411545 1021.001343,198.374069 
	C1012.438049,198.985275 1004.089478,198.376678 995.578857,194.948837 
	C996.787109,188.502167 997.836975,182.143997 999.320374,175.888611 
	C999.518616,175.052780 1001.919250,174.242599 1003.286011,174.265228 
	C1009.673157,174.370926 1016.148987,175.577744 1022.413635,174.848587 
	C1029.042603,174.077026 1035.550171,166.019821 1036.166260,159.368195 
	C1036.335327,157.540329 1035.463257,155.530762 1034.767212,153.720718 
	C1022.373169,121.492661 1009.931335,89.283005 997.505310,57.067295 
	C996.975403,55.693428 996.497437,54.299564 995.728027,52.178223 
	C1004.424500,52.178223 1012.646240,51.916603 1020.819824,52.426468 
	C1022.241943,52.515175 1023.460938,55.859516 1024.877075,58.079651 
z"/>
<path fill="#FBFBFB" opacity="1.000000" stroke="none" 
	d="
M863.936035,156.970795 
	C857.032043,156.211655 850.413147,156.182739 844.219238,154.545853 
	C825.202209,149.520111 812.762817,133.935303 811.284363,112.842308 
	C810.685608,104.298912 810.832825,95.368469 812.650208,87.053383 
	C818.057617,62.312859 839.057495,48.062492 865.138611,50.463520 
	C869.102966,50.828480 873.114075,51.346306 876.945312,52.380001 
	C892.948669,56.697784 903.194519,69.095749 904.872498,86.253387 
	C905.405518,91.703918 905.442993,97.231293 905.297546,102.712624 
	C905.115173,109.586777 904.933167,109.590805 898.229614,109.592560 
	C879.569031,109.597458 860.908447,109.594307 842.247864,109.594337 
	C840.631226,109.594337 839.014526,109.594337 837.389465,109.594337 
	C837.746399,122.435013 843.527954,131.021423 853.393494,133.861359 
	C865.845337,137.445801 877.490845,133.919357 883.942566,124.267876 
	C885.641296,121.726555 886.966431,121.236710 889.489258,122.941078 
	C894.302612,126.192848 899.250366,129.245605 904.096497,132.351562 
	C899.915955,145.841934 884.300171,157.171112 863.936035,156.970795 
M879.133850,82.639420 
	C875.103149,72.414902 865.794495,68.195747 853.810059,71.161400 
	C844.649536,73.428253 837.499084,83.424759 838.445312,92.526398 
	C852.497131,92.526398 866.536438,92.526398 881.030090,92.526398 
	C880.424500,89.227730 879.889771,86.314880 879.133850,82.639420 
z"/>
<path fill="#FBFBFB" opacity="1.000000" stroke="none" 
	d="
M619.268921,94.253754 
	C625.305786,92.757202 631.022949,91.632500 636.515564,89.825256 
	C641.041138,88.336205 642.700256,84.617477 642.156738,79.890427 
	C641.621643,75.235680 638.785889,72.796722 634.466797,71.939659 
	C621.306885,69.328201 610.135010,73.650681 600.606689,82.446945 
	C597.409546,85.398453 595.818481,85.599976 593.597229,81.678787 
	C591.071716,77.220543 587.997192,73.073318 585.088501,68.680847 
	C598.682129,54.574593 615.210754,49.298584 634.122925,50.468029 
	C636.611938,50.621941 639.113892,50.874195 641.561646,51.336296 
	C657.810608,54.403900 666.453552,63.695156 667.182495,80.317482 
	C667.831360,95.113388 667.457520,109.954544 667.515930,124.775803 
	C667.554871,134.650238 668.850281,135.798203 679.355713,134.348892 
	C679.922485,140.061172 680.551697,145.766617 680.971924,151.487442 
	C681.021301,152.159622 680.066711,153.168213 679.330750,153.594467 
	C672.638306,157.470093 657.321228,156.566559 651.682190,151.400558 
	C648.621826,148.596863 646.589783,144.670609 643.685913,140.691742 
	C642.838257,141.974060 642.001770,143.261688 641.143372,144.534592 
	C633.405701,156.009460 621.872253,158.002060 609.402832,156.625351 
	C597.431763,155.303696 587.971436,149.607498 584.593506,137.418106 
	C579.166077,117.833092 585.544189,104.629471 603.439697,98.364059 
	C608.435547,96.614960 613.707031,95.653229 619.268921,94.253754 
M608.535034,124.467796 
	C608.705933,129.651031 610.452576,133.847519 615.532959,136.126694 
	C624.765015,140.268387 635.837585,136.410446 640.233154,127.365089 
	C643.794189,120.037331 642.911926,112.308464 642.681519,105.003647 
	C634.528687,107.070885 626.861145,108.949875 619.230896,110.969780 
	C612.791138,112.674553 608.703979,116.491539 608.535034,124.467796 
z"/>
<path fill="#FAFAFA" opacity="1.000000" stroke="none" 
	d="
M709.231201,152.900894 
	C701.777344,148.045380 698.684021,141.042923 698.058105,132.905228 
	C697.599182,126.938782 697.662659,120.924950 697.656555,114.932068 
	C697.623291,82.285957 697.640747,49.639801 697.640747,16.993658 
	C697.640747,15.180627 697.640747,13.367595 697.640747,11.291307 
	C706.216003,11.291307 714.469788,11.291307 723.521545,11.291307 
	C723.521545,12.927707 723.521606,14.659986 723.521606,16.392267 
	C723.521606,51.370277 723.520691,86.348282 723.524231,121.326294 
	C723.524414,122.991386 723.487427,124.661499 723.597290,126.320702 
	C724.064514,133.377899 727.045349,135.776505 734.033630,134.766708 
	C734.825989,134.652222 735.606750,134.457962 737.180542,134.143112 
	C738.028259,140.905411 738.843323,147.407776 739.746704,154.614014 
	C729.403137,158.164886 719.409180,158.141693 709.231201,152.900894 
z"/>
<path fill="#FAFAFA" opacity="1.000000" stroke="none" 
	d="
M794.818359,134.379578 
	C795.950684,137.513321 796.834473,140.611008 797.368469,143.767853 
	C797.948120,147.195297 798.202393,150.677750 798.590149,154.063278 
	C781.001953,164.142593 758.688477,152.747177 757.035950,132.914703 
	C756.621948,127.947006 756.660828,122.933563 756.656372,117.941002 
	C756.626343,84.301750 756.640747,50.662460 756.640747,17.023182 
	C756.640747,15.209496 756.640747,13.395811 756.640747,11.305077 
	C765.325012,11.305077 773.697388,11.305077 782.521545,11.305077 
	C782.521545,13.256724 782.521606,15.056196 782.521606,16.855669 
	C782.521606,51.660664 782.521545,86.465660 782.521851,121.270653 
	C782.521851,122.602898 782.484131,123.936699 782.534363,125.267128 
	C782.851379,133.673538 785.944946,136.036896 794.818359,134.379578 
z"/>
<path fill="#FCFCFC" opacity="1.000000" stroke="none" 
	d="
M936.036865,155.004623 
	C933.088501,155.004623 930.633728,155.004623 928.000916,155.004623 
	C928.000916,120.662277 928.000916,86.753029 928.000916,52.509457 
	C936.107056,52.509457 944.171875,52.509457 953.099487,52.509457 
	C953.099487,57.539505 953.099487,62.650517 953.099487,67.761536 
	C953.550232,67.939293 954.000916,68.117050 954.451660,68.294807 
	C958.206970,60.131622 963.544312,53.826778 972.634277,52.066601 
	C979.298889,50.776062 985.845825,50.898132 992.563354,54.232864 
	C991.280579,61.045403 990.113892,67.876869 988.579468,74.624710 
	C988.376343,75.517982 986.360107,76.305756 985.071899,76.547958 
	C984.049683,76.740158 982.867615,75.973923 981.737488,75.716545 
	C968.454224,72.691261 957.951599,79.031616 955.213318,92.295685 
	C954.080750,97.781578 953.866638,103.520073 953.798279,109.150528 
	C953.614929,124.261169 953.735718,139.375504 953.735718,155.004623 
	C947.745483,155.004623 942.137939,155.004623 936.036865,155.004623 
z"/>
<path fill="#060606" opacity="1.000000" stroke="none" 
	d="
M879.244446,83.020721 
	C879.889771,86.314880 880.424500,89.227730 881.030090,92.526398 
	C866.536438,92.526398 852.497131,92.526398 838.445312,92.526398 
	C837.499084,83.424759 844.649536,73.428253 853.810059,71.161400 
	C865.794495,68.195747 875.103149,72.414902 879.244446,83.020721 
z"/>
<path fill="#040404" opacity="1.000000" stroke="none" 
	d="
M608.550171,124.026047 
	C608.703979,116.491539 612.791138,112.674553 619.230896,110.969780 
	C626.861145,108.949875 634.528687,107.070885 642.681519,105.003647 
	C642.911926,112.308464 643.794189,120.037331 640.233154,127.365089 
	C635.837585,136.410446 624.765015,140.268387 615.532959,136.126694 
	C610.452576,133.847519 608.705933,129.651031 608.550171,124.026047 
z"/>
</svg>