<svg xmlns="http://www.w3.org/2000/svg" xmlns:xlink="http://www.w3.org/1999/xlink" width="500" zoomAndPan="magnify" viewBox="0 0 375 374.999991" height="500" preserveAspectRatio="xMidYMid meet" version="1.0"><defs><g/><clipPath id="740715c4a5"><path d="M 10.648438 182.484375 L 364 182.484375 L 364 364.25 L 10.648438 364.25 Z M 10.648438 182.484375 " clip-rule="nonzero"/></clipPath></defs><rect x="-37.5" width="450" fill="#ffffff" y="-37.499999" height="449.999989" fill-opacity="1"/><rect x="-37.5" width="450" fill="#ffffff" y="-37.499999" height="449.999989" fill-opacity="1"/><rect x="-37.5" width="450" fill="#000000" y="-37.499999" height="449.999989" fill-opacity="1"/><g fill="#ffffff" fill-opacity="1"><g transform="translate(96.986764, 272.041759)"><g><path d="M 35.121094 0.683594 C 36.683594 0.683594 37.5625 -0.0976562 37.855469 -1.5625 C 39.804688 -12.292969 41.757812 -20.585938 43.316406 -27.902344 C 44.878906 -35.414062 46.539062 -41.074219 47.125 -43.511719 L 47.222656 -42.539062 C 47.414062 -39.804688 47.609375 -37.074219 47.609375 -34.148438 C 47.609375 -20.488281 45.660156 -7.902344 44.585938 -2.339844 C 44.195312 -0.292969 45.171875 0.488281 47.027344 0.195312 C 48.878906 -0.0976562 51.027344 -0.292969 54.246094 -0.292969 C 58.441406 -0.292969 59.027344 -0.0976562 61.855469 0.292969 C 63.613281 0.585938 64.683594 -0.390625 64.292969 -2.4375 C 63.320312 -7.804688 61.367188 -20.390625 61.367188 -34.148438 C 61.367188 -47.902344 63.320312 -60.488281 64.292969 -65.855469 C 64.683594 -67.90625 63.613281 -68.878906 61.855469 -68.585938 C 59.027344 -68.195312 58.441406 -68 54.246094 -68 C 50.050781 -68 46.734375 -68.292969 43.902344 -68.585938 C 42.539062 -68.78125 41.464844 -68.097656 41.269531 -66.539062 C 40.292969 -58.050781 36.488281 -43.414062 32.878906 -26.636719 C 29.269531 -44.390625 25.5625 -58.539062 24.585938 -66.539062 C 24.390625 -68.097656 23.511719 -68.878906 21.953125 -68.683594 C 18.730469 -68.292969 14.925781 -68 11.121094 -68 C 7.804688 -68 5.757812 -68.195312 3.804688 -68.488281 C 2.050781 -68.78125 1.171875 -67.808594 1.464844 -65.953125 C 2.4375 -60.390625 4.390625 -47.804688 4.390625 -34.148438 C 4.390625 -20.390625 2.4375 -7.902344 1.464844 -2.4375 C 1.074219 -0.390625 2.050781 0.488281 3.804688 0.195312 C 5.757812 -0.0976562 7.804688 -0.292969 11.121094 -0.292969 C 15.121094 -0.292969 16.292969 -0.0976562 18.730469 0.292969 C 20.683594 0.585938 21.464844 -0.585938 21.171875 -2.339844 C 20.097656 -7.804688 18.148438 -20.488281 18.148438 -34.148438 C 18.148438 -37.171875 18.34375 -40 18.632812 -42.832031 L 18.632812 -43.125 C 20 -39.121094 21.367188 -34.34375 22.730469 -27.902344 C 24.097656 -21.855469 26.441406 -10.4375 27.902344 -1.660156 C 28.195312 -0.0976562 28.976562 0.683594 30.636719 0.683594 Z M 35.121094 0.683594 "/></g></g></g><g fill="#ffffff" fill-opacity="1"><g transform="translate(162.742617, 272.041759)"><g><path d="M 25.074219 1.464844 C 30.636719 1.464844 35.316406 -0.195312 38.832031 -0.195312 C 41.464844 -0.195312 42.34375 -0.0976562 45.464844 0.292969 C 47.511719 0.488281 48.390625 -0.488281 47.902344 -2.339844 C 46.148438 -8.292969 45.464844 -14.535156 45.464844 -22.148438 C 45.464844 -26.246094 46.246094 -30.441406 47.414062 -33.171875 C 48.097656 -34.929688 47.804688 -35.609375 45.855469 -35.414062 C 43.707031 -35.121094 41.464844 -35.023438 39.121094 -35.023438 C 36.683594 -35.023438 33.757812 -35.316406 31.023438 -35.511719 C 29.171875 -35.707031 28.878906 -34.929688 29.757812 -33.367188 C 31.21875 -30.441406 32.585938 -25.953125 32.585938 -22.148438 C 32.585938 -19.609375 31.414062 -12.195312 25.074219 -12.195312 L 24.878906 -12.195312 C 20.097656 -12.195312 16.976562 -21.757812 16.976562 -33.855469 C 16.976562 -47.320312 22.050781 -56.097656 28.097656 -56.097656 L 28.292969 -56.097656 C 32.390625 -56.097656 36.488281 -53.757812 40.195312 -49.5625 C 41.660156 -47.804688 42.734375 -48.097656 42.636719 -50.34375 C 42.539062 -55.417969 42.832031 -61.367188 43.316406 -66.246094 C 43.511719 -68 42.636719 -68.78125 40.878906 -68.683594 C 36.195312 -68.488281 32.78125 -69.757812 25.855469 -69.757812 L 25.757812 -69.757812 C 10.828125 -69.757812 1.269531 -56.488281 1.269531 -34.246094 C 1.269531 -9.953125 10.050781 1.464844 24.976562 1.464844 Z M 25.074219 1.464844 "/></g></g></g><g fill="#ffffff" fill-opacity="1"><g transform="translate(212.205859, 272.041759)"><g><path d="M 35.121094 0.683594 C 36.683594 0.683594 37.5625 -0.0976562 37.855469 -1.5625 C 39.804688 -12.292969 41.757812 -20.585938 43.316406 -27.902344 C 44.878906 -35.414062 46.539062 -41.074219 47.125 -43.511719 L 47.222656 -42.539062 C 47.414062 -39.804688 47.609375 -37.074219 47.609375 -34.148438 C 47.609375 -20.488281 45.660156 -7.902344 44.585938 -2.339844 C 44.195312 -0.292969 45.171875 0.488281 47.027344 0.195312 C 48.878906 -0.0976562 51.027344 -0.292969 54.246094 -0.292969 C 58.441406 -0.292969 59.027344 -0.0976562 61.855469 0.292969 C 63.613281 0.585938 64.683594 -0.390625 64.292969 -2.4375 C 63.320312 -7.804688 61.367188 -20.390625 61.367188 -34.148438 C 61.367188 -47.902344 63.320312 -60.488281 64.292969 -65.855469 C 64.683594 -67.90625 63.613281 -68.878906 61.855469 -68.585938 C 59.027344 -68.195312 58.441406 -68 54.246094 -68 C 50.050781 -68 46.734375 -68.292969 43.902344 -68.585938 C 42.539062 -68.78125 41.464844 -68.097656 41.269531 -66.539062 C 40.292969 -58.050781 36.488281 -43.414062 32.878906 -26.636719 C 29.269531 -44.390625 25.5625 -58.539062 24.585938 -66.539062 C 24.390625 -68.097656 23.511719 -68.878906 21.953125 -68.683594 C 18.730469 -68.292969 14.925781 -68 11.121094 -68 C 7.804688 -68 5.757812 -68.195312 3.804688 -68.488281 C 2.050781 -68.78125 1.171875 -67.808594 1.464844 -65.953125 C 2.4375 -60.390625 4.390625 -47.804688 4.390625 -34.148438 C 4.390625 -20.390625 2.4375 -7.902344 1.464844 -2.4375 C 1.074219 -0.390625 2.050781 0.488281 3.804688 0.195312 C 5.757812 -0.0976562 7.804688 -0.292969 11.121094 -0.292969 C 15.121094 -0.292969 16.292969 -0.0976562 18.730469 0.292969 C 20.683594 0.585938 21.464844 -0.585938 21.171875 -2.339844 C 20.097656 -7.804688 18.148438 -20.488281 18.148438 -34.148438 C 18.148438 -37.171875 18.34375 -40 18.632812 -42.832031 L 18.632812 -43.125 C 20 -39.121094 21.367188 -34.34375 22.730469 -27.902344 C 24.097656 -21.855469 26.441406 -10.4375 27.902344 -1.660156 C 28.195312 -0.0976562 28.976562 0.683594 30.636719 0.683594 Z M 35.121094 0.683594 "/></g></g></g><g fill="#ffffff" fill-opacity="1"><g transform="translate(76.191843, 155.75499)"><g><path d="M 11.203125 -12.3125 C 10.835938 -12.707031 10.445312 -13.007812 10.03125 -13.21875 C 9.625 -13.4375 9.023438 -13.546875 8.234375 -13.546875 C 7.453125 -13.546875 6.867188 -13.429688 6.484375 -13.203125 C 6.109375 -12.972656 5.921875 -12.703125 5.921875 -12.390625 C 5.921875 -11.847656 6.40625 -11.460938 7.375 -11.234375 L 11.140625 -10.25 C 12.515625 -9.90625 13.550781 -9.296875 14.25 -8.421875 C 14.945312 -7.554688 15.296875 -6.519531 15.296875 -5.3125 C 15.296875 -4.1875 15 -3.207031 14.40625 -2.375 C 13.8125 -1.550781 12.96875 -0.910156 11.875 -0.453125 C 10.78125 0.00390625 9.5 0.234375 8.03125 0.234375 C 6.363281 0.234375 4.84375 -0.0390625 3.46875 -0.59375 C 2.101562 -1.144531 1.160156 -1.867188 0.640625 -2.765625 C 0.554688 -2.921875 0.515625 -3.035156 0.515625 -3.109375 C 0.515625 -3.253906 0.597656 -3.390625 0.765625 -3.515625 L 3.109375 -5.125 C 3.273438 -5.226562 3.425781 -5.28125 3.5625 -5.28125 C 3.726562 -5.28125 3.863281 -5.210938 3.96875 -5.078125 C 4.476562 -4.410156 5 -3.941406 5.53125 -3.671875 C 6.0625 -3.398438 6.765625 -3.265625 7.640625 -3.265625 C 8.492188 -3.265625 9.164062 -3.378906 9.65625 -3.609375 C 10.144531 -3.847656 10.390625 -4.171875 10.390625 -4.578125 C 10.390625 -4.867188 10.269531 -5.117188 10.03125 -5.328125 C 9.789062 -5.546875 9.4375 -5.707031 8.96875 -5.8125 L 5.515625 -6.640625 C 4.148438 -6.972656 3.066406 -7.597656 2.265625 -8.515625 C 1.460938 -9.429688 1.0625 -10.488281 1.0625 -11.6875 C 1.0625 -12.664062 1.347656 -13.566406 1.921875 -14.390625 C 2.503906 -15.210938 3.320312 -15.863281 4.375 -16.34375 C 5.4375 -16.820312 6.660156 -17.0625 8.046875 -17.0625 C 9.410156 -17.0625 10.675781 -16.835938 11.84375 -16.390625 C 13.007812 -15.941406 13.847656 -15.347656 14.359375 -14.609375 C 14.460938 -14.472656 14.515625 -14.34375 14.515625 -14.21875 C 14.515625 -14.113281 14.460938 -14.019531 14.359375 -13.9375 L 11.890625 -12.140625 C 11.816406 -12.078125 11.734375 -12.046875 11.640625 -12.046875 C 11.535156 -12.046875 11.390625 -12.132812 11.203125 -12.3125 Z M 11.203125 -12.3125 "/></g></g></g><g fill="#ffffff" fill-opacity="1"><g transform="translate(92.091648, 155.75499)"><g><path d="M 5.921875 -16.828125 C 6.191406 -16.828125 6.328125 -16.671875 6.328125 -16.359375 L 6.328125 -0.65625 C 6.328125 -0.414062 6.265625 -0.242188 6.140625 -0.140625 C 6.023438 -0.046875 5.835938 0 5.578125 0 L 1.796875 0 C 1.566406 0 1.40625 -0.0390625 1.3125 -0.125 C 1.226562 -0.21875 1.1875 -0.363281 1.1875 -0.5625 L 1.1875 -16.3125 C 1.1875 -16.476562 1.222656 -16.601562 1.296875 -16.6875 C 1.367188 -16.78125 1.472656 -16.828125 1.609375 -16.828125 Z M 5.921875 -16.828125 "/></g></g></g><g fill="#ffffff" fill-opacity="1"><g transform="translate(99.59925, 155.75499)"><g><path d="M 15.75 -16.828125 C 15.96875 -16.828125 16.078125 -16.703125 16.078125 -16.453125 L 16.078125 -0.40625 C 16.078125 -0.289062 16.03125 -0.191406 15.9375 -0.109375 C 15.84375 -0.0351562 15.71875 0 15.5625 0 L 12.453125 0 C 12.316406 0 12.207031 -0.0195312 12.125 -0.0625 C 12.039062 -0.113281 11.945312 -0.207031 11.84375 -0.34375 L 5.609375 -8.796875 C 5.546875 -8.878906 5.488281 -8.910156 5.4375 -8.890625 C 5.394531 -8.878906 5.375 -8.832031 5.375 -8.75 L 5.375 -0.5 C 5.394531 -0.320312 5.363281 -0.191406 5.28125 -0.109375 C 5.195312 -0.0351562 5.046875 0 4.828125 0 L 1.75 0 C 1.375 0 1.1875 -0.148438 1.1875 -0.453125 L 1.1875 -16.3125 C 1.1875 -16.65625 1.347656 -16.828125 1.671875 -16.828125 L 5.375 -16.828125 C 5.570312 -16.828125 5.71875 -16.800781 5.8125 -16.75 C 5.914062 -16.695312 6.023438 -16.585938 6.140625 -16.421875 L 11.59375 -8.84375 C 11.6875 -8.707031 11.769531 -8.640625 11.84375 -8.640625 C 11.914062 -8.640625 11.953125 -8.738281 11.953125 -8.9375 L 11.953125 -16.359375 C 11.953125 -16.671875 12.117188 -16.828125 12.453125 -16.828125 Z M 15.75 -16.828125 "/></g></g></g><g fill="#ffffff" fill-opacity="1"><g transform="translate(116.859948, 155.75499)"><g><path d="M 8.734375 -17.0625 C 9.992188 -17.0625 11.128906 -16.835938 12.140625 -16.390625 C 13.148438 -15.941406 13.976562 -15.320312 14.625 -14.53125 C 15.28125 -13.75 15.707031 -12.851562 15.90625 -11.84375 C 15.945312 -11.664062 15.96875 -11.519531 15.96875 -11.40625 C 15.96875 -11.269531 15.941406 -11.179688 15.890625 -11.140625 C 15.835938 -11.097656 15.742188 -11.066406 15.609375 -11.046875 L 11.640625 -10.796875 C 11.484375 -10.796875 11.382812 -10.820312 11.34375 -10.875 C 11.300781 -10.925781 11.253906 -11.046875 11.203125 -11.234375 C 11.066406 -11.953125 10.816406 -12.519531 10.453125 -12.9375 C 10.097656 -13.351562 9.570312 -13.5625 8.875 -13.5625 C 7.976562 -13.5625 7.285156 -13.164062 6.796875 -12.375 C 6.316406 -11.59375 6.078125 -10.316406 6.078125 -8.546875 C 6.078125 -6.722656 6.300781 -5.425781 6.75 -4.65625 C 7.195312 -3.882812 7.894531 -3.5 8.84375 -3.5 C 9.644531 -3.5 10.328125 -3.703125 10.890625 -4.109375 C 11.460938 -4.515625 11.9375 -5.191406 12.3125 -6.140625 C 12.363281 -6.285156 12.492188 -6.359375 12.703125 -6.359375 C 12.804688 -6.359375 12.890625 -6.347656 12.953125 -6.328125 L 15.796875 -5.765625 C 16.015625 -5.691406 16.125 -5.515625 16.125 -5.234375 C 16.125 -4.816406 15.863281 -4.164062 15.34375 -3.28125 C 14.820312 -2.394531 14.003906 -1.585938 12.890625 -0.859375 C 11.785156 -0.128906 10.382812 0.234375 8.6875 0.234375 C 7.082031 0.234375 5.675781 -0.144531 4.46875 -0.90625 C 3.257812 -1.675781 2.328125 -2.726562 1.671875 -4.0625 C 1.015625 -5.40625 0.6875 -6.929688 0.6875 -8.640625 C 0.6875 -10.335938 1.015625 -11.820312 1.671875 -13.09375 C 2.328125 -14.363281 3.265625 -15.34375 4.484375 -16.03125 C 5.703125 -16.71875 7.117188 -17.0625 8.734375 -17.0625 Z M 8.734375 -17.0625 "/></g></g></g><g fill="#ffffff" fill-opacity="1"><g transform="translate(133.576267, 155.75499)"><g><path d="M 1.1875 -16.3125 C 1.1875 -16.65625 1.328125 -16.828125 1.609375 -16.828125 L 13.859375 -16.828125 C 14.128906 -16.828125 14.265625 -16.671875 14.265625 -16.359375 L 14.25 -13.71875 C 14.25 -13.3125 14.050781 -13.109375 13.65625 -13.109375 L 6.859375 -13.109375 C 6.503906 -13.109375 6.328125 -12.96875 6.328125 -12.6875 L 6.328125 -10.75 C 6.328125 -10.601562 6.363281 -10.488281 6.4375 -10.40625 C 6.519531 -10.320312 6.617188 -10.28125 6.734375 -10.28125 L 10.828125 -10.28125 C 11.140625 -10.28125 11.296875 -10.128906 11.296875 -9.828125 L 11.296875 -7.015625 C 11.296875 -6.753906 11.160156 -6.625 10.890625 -6.625 L 6.6875 -6.625 C 6.582031 -6.625 6.492188 -6.59375 6.421875 -6.53125 C 6.359375 -6.46875 6.328125 -6.394531 6.328125 -6.3125 L 6.328125 -4.03125 C 6.328125 -3.914062 6.34375 -3.832031 6.375 -3.78125 C 6.414062 -3.738281 6.492188 -3.71875 6.609375 -3.71875 L 13.96875 -3.71875 C 14.300781 -3.71875 14.46875 -3.578125 14.46875 -3.296875 L 14.46875 -0.5 C 14.46875 -0.34375 14.421875 -0.21875 14.328125 -0.125 C 14.242188 -0.0390625 14.113281 0 13.9375 0 L 1.796875 0 C 1.566406 0 1.40625 -0.0390625 1.3125 -0.125 C 1.226562 -0.21875 1.1875 -0.363281 1.1875 -0.5625 Z M 1.1875 -16.3125 "/></g></g></g><g fill="#ffffff" fill-opacity="1"><g transform="translate(232.642371, 155.75499)"><g><path d="M 11.03125 -3.71875 C 11.375 -3.71875 11.546875 -3.578125 11.546875 -3.296875 L 11.546875 -0.5 C 11.546875 -0.34375 11.492188 -0.21875 11.390625 -0.125 C 11.296875 -0.0390625 11.160156 0 10.984375 0 L 1.34375 0 C 0.976562 0 0.796875 -0.15625 0.796875 -0.46875 L 0.796875 -3.296875 C 0.796875 -3.578125 0.960938 -3.71875 1.296875 -3.71875 L 3.3125 -3.71875 C 3.382812 -3.71875 3.445312 -3.734375 3.5 -3.765625 C 3.550781 -3.804688 3.578125 -3.859375 3.578125 -3.921875 L 3.578125 -11.5 C 3.578125 -11.632812 3.550781 -11.722656 3.5 -11.765625 C 3.445312 -11.816406 3.347656 -11.828125 3.203125 -11.796875 L 1.390625 -11.390625 C 1.335938 -11.367188 1.269531 -11.359375 1.1875 -11.359375 C 0.90625 -11.359375 0.765625 -11.539062 0.765625 -11.90625 L 0.765625 -13.8125 C 0.765625 -14 0.789062 -14.132812 0.84375 -14.21875 C 0.90625 -14.3125 1.019531 -14.394531 1.1875 -14.46875 L 5.265625 -16.515625 C 5.523438 -16.640625 5.726562 -16.722656 5.875 -16.765625 C 6.03125 -16.804688 6.203125 -16.828125 6.390625 -16.828125 L 8.328125 -16.828125 C 8.441406 -16.828125 8.535156 -16.785156 8.609375 -16.703125 C 8.691406 -16.617188 8.734375 -16.503906 8.734375 -16.359375 L 8.734375 -4 C 8.734375 -3.8125 8.816406 -3.71875 8.984375 -3.71875 Z M 11.03125 -3.71875 "/></g></g></g><g fill="#ffffff" fill-opacity="1"><g transform="translate(244.822392, 155.75499)"><g><path d="M 7.4375 0.1875 C 6.363281 0.1875 5.382812 -0.00390625 4.5 -0.390625 C 3.613281 -0.773438 2.898438 -1.25 2.359375 -1.8125 C 1.828125 -2.382812 1.515625 -2.929688 1.421875 -3.453125 C 1.410156 -3.492188 1.40625 -3.5625 1.40625 -3.65625 C 1.40625 -3.863281 1.503906 -4 1.703125 -4.0625 L 4.953125 -5.015625 C 4.972656 -5.023438 5.007812 -5.03125 5.0625 -5.03125 C 5.195312 -5.03125 5.289062 -4.976562 5.34375 -4.875 C 5.40625 -4.78125 5.4375 -4.726562 5.4375 -4.71875 C 5.75 -4.238281 6.039062 -3.882812 6.3125 -3.65625 C 6.582031 -3.425781 6.957031 -3.3125 7.4375 -3.3125 C 8.238281 -3.3125 8.878906 -3.601562 9.359375 -4.1875 C 9.847656 -4.78125 10.09375 -5.570312 10.09375 -6.5625 C 10.09375 -6.757812 10.078125 -6.894531 10.046875 -6.96875 C 10.015625 -7.050781 9.957031 -7.09375 9.875 -7.09375 C 9.78125 -7.09375 9.664062 -7.066406 9.53125 -7.015625 C 8.96875 -6.785156 8.484375 -6.617188 8.078125 -6.515625 C 7.679688 -6.421875 7.195312 -6.375 6.625 -6.375 C 5.457031 -6.375 4.421875 -6.582031 3.515625 -7 C 2.609375 -7.425781 1.894531 -8.019531 1.375 -8.78125 C 0.863281 -9.550781 0.609375 -10.421875 0.609375 -11.390625 C 0.609375 -12.453125 0.914062 -13.410156 1.53125 -14.265625 C 2.15625 -15.128906 3 -15.800781 4.0625 -16.28125 C 5.132812 -16.769531 6.328125 -17.015625 7.640625 -17.015625 C 9.171875 -17.015625 10.503906 -16.671875 11.640625 -15.984375 C 12.785156 -15.304688 13.664062 -14.351562 14.28125 -13.125 C 14.894531 -11.894531 15.203125 -10.46875 15.203125 -8.84375 C 15.203125 -7 14.875 -5.394531 14.21875 -4.03125 C 13.570312 -2.675781 12.660156 -1.632812 11.484375 -0.90625 C 10.316406 -0.175781 8.96875 0.1875 7.4375 0.1875 Z M 7.796875 -9.640625 C 8.148438 -9.640625 8.523438 -9.695312 8.921875 -9.8125 C 9.328125 -9.9375 9.628906 -10.078125 9.828125 -10.234375 C 9.910156 -10.304688 9.96875 -10.378906 10 -10.453125 C 10.03125 -10.535156 10.046875 -10.675781 10.046875 -10.875 C 10.046875 -11.757812 9.84375 -12.457031 9.4375 -12.96875 C 9.03125 -13.488281 8.492188 -13.75 7.828125 -13.75 C 7.222656 -13.75 6.710938 -13.546875 6.296875 -13.140625 C 5.890625 -12.734375 5.6875 -12.21875 5.6875 -11.59375 C 5.6875 -10.96875 5.894531 -10.484375 6.3125 -10.140625 C 6.726562 -9.804688 7.222656 -9.640625 7.796875 -9.640625 Z M 7.796875 -9.640625 "/></g></g></g><g fill="#ffffff" fill-opacity="1"><g transform="translate(260.722197, 155.75499)"><g><path d="M 7.4375 0.1875 C 6.363281 0.1875 5.382812 -0.00390625 4.5 -0.390625 C 3.613281 -0.773438 2.898438 -1.25 2.359375 -1.8125 C 1.828125 -2.382812 1.515625 -2.929688 1.421875 -3.453125 C 1.410156 -3.492188 1.40625 -3.5625 1.40625 -3.65625 C 1.40625 -3.863281 1.503906 -4 1.703125 -4.0625 L 4.953125 -5.015625 C 4.972656 -5.023438 5.007812 -5.03125 5.0625 -5.03125 C 5.195312 -5.03125 5.289062 -4.976562 5.34375 -4.875 C 5.40625 -4.78125 5.4375 -4.726562 5.4375 -4.71875 C 5.75 -4.238281 6.039062 -3.882812 6.3125 -3.65625 C 6.582031 -3.425781 6.957031 -3.3125 7.4375 -3.3125 C 8.238281 -3.3125 8.878906 -3.601562 9.359375 -4.1875 C 9.847656 -4.78125 10.09375 -5.570312 10.09375 -6.5625 C 10.09375 -6.757812 10.078125 -6.894531 10.046875 -6.96875 C 10.015625 -7.050781 9.957031 -7.09375 9.875 -7.09375 C 9.78125 -7.09375 9.664062 -7.066406 9.53125 -7.015625 C 8.96875 -6.785156 8.484375 -6.617188 8.078125 -6.515625 C 7.679688 -6.421875 7.195312 -6.375 6.625 -6.375 C 5.457031 -6.375 4.421875 -6.582031 3.515625 -7 C 2.609375 -7.425781 1.894531 -8.019531 1.375 -8.78125 C 0.863281 -9.550781 0.609375 -10.421875 0.609375 -11.390625 C 0.609375 -12.453125 0.914062 -13.410156 1.53125 -14.265625 C 2.15625 -15.128906 3 -15.800781 4.0625 -16.28125 C 5.132812 -16.769531 6.328125 -17.015625 7.640625 -17.015625 C 9.171875 -17.015625 10.503906 -16.671875 11.640625 -15.984375 C 12.785156 -15.304688 13.664062 -14.351562 14.28125 -13.125 C 14.894531 -11.894531 15.203125 -10.46875 15.203125 -8.84375 C 15.203125 -7 14.875 -5.394531 14.21875 -4.03125 C 13.570312 -2.675781 12.660156 -1.632812 11.484375 -0.90625 C 10.316406 -0.175781 8.96875 0.1875 7.4375 0.1875 Z M 7.796875 -9.640625 C 8.148438 -9.640625 8.523438 -9.695312 8.921875 -9.8125 C 9.328125 -9.9375 9.628906 -10.078125 9.828125 -10.234375 C 9.910156 -10.304688 9.96875 -10.378906 10 -10.453125 C 10.03125 -10.535156 10.046875 -10.675781 10.046875 -10.875 C 10.046875 -11.757812 9.84375 -12.457031 9.4375 -12.96875 C 9.03125 -13.488281 8.492188 -13.75 7.828125 -13.75 C 7.222656 -13.75 6.710938 -13.546875 6.296875 -13.140625 C 5.890625 -12.734375 5.6875 -12.21875 5.6875 -11.59375 C 5.6875 -10.96875 5.894531 -10.484375 6.3125 -10.140625 C 6.726562 -9.804688 7.222656 -9.640625 7.796875 -9.640625 Z M 7.796875 -9.640625 "/></g></g></g><g fill="#ffffff" fill-opacity="1"><g transform="translate(276.622003, 155.75499)"><g><path d="M 7.6875 -17.0625 C 8.925781 -17.0625 10.054688 -16.851562 11.078125 -16.4375 C 12.097656 -16.019531 12.898438 -15.453125 13.484375 -14.734375 C 14.066406 -14.015625 14.359375 -13.21875 14.359375 -12.34375 C 14.359375 -11.75 14.175781 -11.207031 13.8125 -10.71875 C 13.445312 -10.226562 12.925781 -9.816406 12.25 -9.484375 C 12.113281 -9.410156 12.046875 -9.34375 12.046875 -9.28125 C 12.046875 -9.207031 12.109375 -9.125 12.234375 -9.03125 C 13.335938 -8.363281 14.09375 -7.722656 14.5 -7.109375 C 14.90625 -6.492188 15.109375 -5.78125 15.109375 -4.96875 C 15.109375 -3.875 14.789062 -2.9375 14.15625 -2.15625 C 13.519531 -1.382812 12.632812 -0.789062 11.5 -0.375 C 10.363281 0.03125 9.050781 0.234375 7.5625 0.234375 C 5.488281 0.234375 3.816406 -0.144531 2.546875 -0.90625 C 1.273438 -1.675781 0.640625 -2.75 0.640625 -4.125 C 0.640625 -4.882812 0.832031 -5.539062 1.21875 -6.09375 C 1.601562 -6.65625 2.285156 -7.1875 3.265625 -7.6875 C 3.390625 -7.738281 3.453125 -7.789062 3.453125 -7.84375 C 3.453125 -7.90625 3.40625 -7.96875 3.3125 -8.03125 C 2.8125 -8.425781 2.414062 -8.757812 2.125 -9.03125 C 1.84375 -9.3125 1.597656 -9.671875 1.390625 -10.109375 C 1.191406 -10.554688 1.09375 -11.082031 1.09375 -11.6875 C 1.09375 -12.65625 1.351562 -13.550781 1.875 -14.375 C 2.40625 -15.195312 3.171875 -15.847656 4.171875 -16.328125 C 5.171875 -16.816406 6.34375 -17.0625 7.6875 -17.0625 Z M 7.78125 -13.765625 C 7.238281 -13.765625 6.785156 -13.632812 6.421875 -13.375 C 6.054688 -13.125 5.875 -12.78125 5.875 -12.34375 C 5.875 -12.039062 5.96875 -11.773438 6.15625 -11.546875 C 6.34375 -11.316406 6.613281 -11.144531 6.96875 -11.03125 L 8.421875 -10.53125 C 8.535156 -10.5 8.632812 -10.484375 8.71875 -10.484375 C 9.070312 -10.484375 9.390625 -10.664062 9.671875 -11.03125 C 9.953125 -11.40625 10.09375 -11.78125 10.09375 -12.15625 C 10.09375 -12.59375 9.890625 -12.96875 9.484375 -13.28125 C 9.078125 -13.601562 8.507812 -13.765625 7.78125 -13.765625 Z M 7.875 -3.0625 C 8.550781 -3.0625 9.070312 -3.1875 9.4375 -3.4375 C 9.8125 -3.695312 10 -4.054688 10 -4.515625 C 10 -4.847656 9.894531 -5.140625 9.6875 -5.390625 C 9.488281 -5.640625 9.101562 -5.863281 8.53125 -6.0625 L 6.921875 -6.625 C 6.785156 -6.664062 6.65625 -6.6875 6.53125 -6.6875 C 6.125 -6.6875 5.757812 -6.515625 5.4375 -6.171875 C 5.113281 -5.835938 4.953125 -5.429688 4.953125 -4.953125 C 4.953125 -4.335938 5.179688 -3.867188 5.640625 -3.546875 C 6.097656 -3.222656 6.84375 -3.0625 7.875 -3.0625 Z M 7.875 -3.0625 "/></g></g></g><g fill="#ffffff" fill-opacity="1"><g transform="translate(103.94961, 319.623741)"><g><path d="M 1.421875 1.0625 C 1.273438 0.945312 1.191406 0.8125 1.171875 0.65625 C 1.160156 0.5 1.21875 0.34375 1.34375 0.1875 L 10.71875 -12.359375 C 10.820312 -12.503906 10.925781 -12.585938 11.03125 -12.609375 C 11.144531 -12.628906 11.269531 -12.59375 11.40625 -12.5 L 16.5 -8.6875 C 16.644531 -8.570312 16.734375 -8.46875 16.765625 -8.375 C 16.804688 -8.289062 16.800781 -8.160156 16.75 -7.984375 L 14.328125 -0.8125 C 14.296875 -0.675781 14.300781 -0.59375 14.34375 -0.5625 C 14.382812 -0.53125 14.457031 -0.550781 14.5625 -0.625 L 20.40625 -4.921875 C 20.78125 -5.203125 21.082031 -5.257812 21.3125 -5.09375 L 26.5625 -1.171875 C 26.78125 -1.003906 26.796875 -0.796875 26.609375 -0.546875 L 17.203125 12.03125 C 17.054688 12.226562 16.90625 12.332031 16.75 12.34375 C 16.601562 12.351562 16.429688 12.28125 16.234375 12.125 L 13.15625 9.828125 C 12.96875 9.691406 12.867188 9.5625 12.859375 9.4375 C 12.847656 9.3125 12.90625 9.171875 13.03125 9.015625 L 19.125 0.859375 C 19.195312 0.753906 19.207031 0.6875 19.15625 0.65625 C 19.09375 0.613281 19.003906 0.632812 18.890625 0.71875 L 10.09375 7.03125 C 9.84375 7.1875 9.613281 7.1875 9.40625 7.03125 L 7.515625 5.609375 C 7.296875 5.453125 7.234375 5.234375 7.328125 4.953125 L 10.765625 -5.125 C 10.816406 -5.28125 10.820312 -5.375 10.78125 -5.40625 C 10.71875 -5.457031 10.632812 -5.414062 10.53125 -5.28125 L 4.53125 2.75 C 4.414062 2.914062 4.3125 3.007812 4.21875 3.03125 C 4.132812 3.050781 4.003906 2.992188 3.828125 2.859375 Z M 1.421875 1.0625 "/></g></g></g><g fill="#ffffff" fill-opacity="1"><g transform="translate(122.799381, 333.310124)"><g><path d="M 16.828125 1.25 C 15.679688 3.445312 14.304688 4.722656 12.703125 5.078125 C 11.109375 5.429688 9.285156 5.078125 7.234375 4.015625 C 4.898438 2.804688 3.519531 1.410156 3.09375 -0.171875 C 2.664062 -1.765625 3.019531 -3.65625 4.15625 -5.84375 L 8.40625 -14.03125 C 8.476562 -14.175781 8.566406 -14.269531 8.671875 -14.3125 C 8.773438 -14.351562 8.890625 -14.34375 9.015625 -14.28125 L 12.84375 -12.296875 C 13.082031 -12.171875 13.128906 -11.96875 12.984375 -11.6875 L 8.46875 -3 C 7.957031 -2 7.773438 -1.175781 7.921875 -0.53125 C 8.066406 0.101562 8.5 0.609375 9.21875 0.984375 C 9.914062 1.347656 10.597656 1.421875 11.265625 1.203125 C 11.929688 0.984375 12.53125 0.359375 13.0625 -0.671875 L 17.53125 -9.28125 C 17.6875 -9.582031 17.890625 -9.671875 18.140625 -9.546875 L 21.15625 -7.984375 C 21.394531 -7.859375 21.441406 -7.65625 21.296875 -7.375 Z M 16.828125 1.25 "/></g></g></g><g fill="#ffffff" fill-opacity="1"><g transform="translate(138.340897, 341.2779)"><g><path d="M 14.671875 -7.84375 C 14.460938 -8.332031 14.203125 -8.75 13.890625 -9.09375 C 13.578125 -9.4375 13.046875 -9.738281 12.296875 -10 C 11.566406 -10.257812 10.984375 -10.34375 10.546875 -10.25 C 10.109375 -10.164062 9.835938 -9.976562 9.734375 -9.6875 C 9.554688 -9.175781 9.882812 -8.648438 10.71875 -8.109375 L 13.9375 -5.921875 C 15.113281 -5.140625 15.882812 -4.222656 16.25 -3.171875 C 16.613281 -2.117188 16.59375 -1.019531 16.1875 0.125 C 15.8125 1.175781 15.203125 1.992188 14.359375 2.578125 C 13.523438 3.160156 12.515625 3.484375 11.328125 3.546875 C 10.148438 3.617188 8.867188 3.40625 7.484375 2.90625 C 5.910156 2.351562 4.570312 1.585938 3.46875 0.609375 C 2.375 -0.367188 1.726562 -1.367188 1.53125 -2.390625 C 1.5 -2.566406 1.5 -2.6875 1.53125 -2.75 C 1.570312 -2.894531 1.691406 -3 1.890625 -3.0625 L 4.640625 -3.78125 C 4.835938 -3.820312 5 -3.820312 5.125 -3.78125 C 5.28125 -3.71875 5.382812 -3.609375 5.4375 -3.453125 C 5.695312 -2.648438 6.03125 -2.03125 6.4375 -1.59375 C 6.851562 -1.164062 7.472656 -0.804688 8.296875 -0.515625 C 9.097656 -0.222656 9.765625 -0.101562 10.296875 -0.15625 C 10.835938 -0.21875 11.175781 -0.441406 11.3125 -0.828125 C 11.414062 -1.097656 11.390625 -1.375 11.234375 -1.65625 C 11.078125 -1.9375 10.800781 -2.203125 10.40625 -2.453125 L 7.4375 -4.40625 C 6.25 -5.1875 5.429688 -6.140625 4.984375 -7.265625 C 4.535156 -8.390625 4.515625 -9.519531 4.921875 -10.65625 C 5.242188 -11.570312 5.816406 -12.320312 6.640625 -12.90625 C 7.460938 -13.488281 8.453125 -13.828125 9.609375 -13.921875 C 10.765625 -14.023438 11.992188 -13.84375 13.296875 -13.375 C 14.585938 -12.914062 15.707031 -12.28125 16.65625 -11.46875 C 17.601562 -10.65625 18.195312 -9.816406 18.4375 -8.953125 C 18.476562 -8.785156 18.476562 -8.640625 18.4375 -8.515625 C 18.40625 -8.421875 18.328125 -8.351562 18.203125 -8.3125 L 15.28125 -7.453125 C 15.1875 -7.410156 15.097656 -7.40625 15.015625 -7.4375 C 14.910156 -7.46875 14.796875 -7.601562 14.671875 -7.84375 Z M 14.671875 -7.84375 "/></g></g></g><g fill="#ffffff" fill-opacity="1"><g transform="translate(154.032599, 346.60797)"><g><path d="M 9.8125 -14.90625 C 10.070312 -14.832031 10.160156 -14.644531 10.078125 -14.34375 L 6.296875 0.890625 C 6.242188 1.128906 6.144531 1.28125 6 1.34375 C 5.863281 1.40625 5.664062 1.40625 5.40625 1.34375 L 1.75 0.4375 C 1.519531 0.375 1.375 0.289062 1.3125 0.1875 C 1.25 0.0820312 1.242188 -0.0664062 1.296875 -0.265625 L 5.09375 -15.546875 C 5.125 -15.710938 5.1875 -15.828125 5.28125 -15.890625 C 5.375 -15.953125 5.488281 -15.96875 5.625 -15.9375 Z M 9.8125 -14.90625 "/></g></g></g><g fill="#ffffff" fill-opacity="1"><g transform="translate(161.967345, 348.784504)"><g><path d="M 11.046875 -15.65625 C 12.296875 -15.476562 13.390625 -15.097656 14.328125 -14.515625 C 15.265625 -13.929688 16 -13.203125 16.53125 -12.328125 C 17.0625 -11.453125 17.359375 -10.503906 17.421875 -9.484375 C 17.429688 -9.304688 17.429688 -9.160156 17.421875 -9.046875 C 17.398438 -8.910156 17.359375 -8.820312 17.296875 -8.78125 C 17.242188 -8.75 17.148438 -8.734375 17.015625 -8.734375 L 13.046875 -9.046875 C 12.890625 -9.066406 12.796875 -9.101562 12.765625 -9.15625 C 12.734375 -9.21875 12.703125 -9.347656 12.671875 -9.546875 C 12.640625 -10.273438 12.472656 -10.867188 12.171875 -11.328125 C 11.878906 -11.796875 11.382812 -12.078125 10.6875 -12.171875 C 9.800781 -12.296875 9.0625 -12.003906 8.46875 -11.296875 C 7.882812 -10.585938 7.46875 -9.359375 7.21875 -7.609375 C 6.957031 -5.796875 6.992188 -4.476562 7.328125 -3.65625 C 7.671875 -2.832031 8.3125 -2.351562 9.25 -2.21875 C 10.050781 -2.101562 10.757812 -2.207031 11.375 -2.53125 C 11.988281 -2.851562 12.546875 -3.457031 13.046875 -4.34375 C 13.117188 -4.476562 13.257812 -4.535156 13.46875 -4.515625 C 13.570312 -4.492188 13.65625 -4.46875 13.71875 -4.4375 L 16.453125 -3.484375 C 16.660156 -3.378906 16.742188 -3.191406 16.703125 -2.921875 C 16.648438 -2.503906 16.300781 -1.894531 15.65625 -1.09375 C 15.019531 -0.289062 14.097656 0.390625 12.890625 0.953125 C 11.691406 1.523438 10.25 1.691406 8.5625 1.453125 C 6.976562 1.234375 5.640625 0.660156 4.546875 -0.265625 C 3.460938 -1.203125 2.691406 -2.378906 2.234375 -3.796875 C 1.773438 -5.210938 1.664062 -6.765625 1.90625 -8.453125 C 2.144531 -10.140625 2.675781 -11.5625 3.5 -12.71875 C 4.320312 -13.882812 5.382812 -14.722656 6.6875 -15.234375 C 8 -15.742188 9.453125 -15.882812 11.046875 -15.65625 Z M 11.046875 -15.65625 "/></g></g></g><g fill="#ffffff" fill-opacity="1"><g transform="translate(179.15829, 350.927124)"><g/></g></g><g fill="#ffffff" fill-opacity="1"><g transform="translate(184.280025, 351.411674)"><g><path d="M 10.78125 -12.703125 C 10.40625 -13.078125 10.003906 -13.363281 9.578125 -13.5625 C 9.160156 -13.757812 8.554688 -13.84375 7.765625 -13.8125 C 6.984375 -13.789062 6.40625 -13.660156 6.03125 -13.421875 C 5.664062 -13.179688 5.488281 -12.90625 5.5 -12.59375 C 5.519531 -12.050781 6.015625 -11.679688 6.984375 -11.484375 L 10.78125 -10.640625 C 12.164062 -10.335938 13.21875 -9.765625 13.9375 -8.921875 C 14.664062 -8.078125 15.050781 -7.050781 15.09375 -5.84375 C 15.132812 -4.71875 14.867188 -3.726562 14.296875 -2.875 C 13.734375 -2.03125 12.914062 -1.359375 11.84375 -0.859375 C 10.78125 -0.367188 9.515625 -0.0976562 8.046875 -0.046875 C 6.378906 0.015625 4.847656 -0.203125 3.453125 -0.703125 C 2.066406 -1.210938 1.097656 -1.90625 0.546875 -2.78125 C 0.453125 -2.9375 0.40625 -3.050781 0.40625 -3.125 C 0.40625 -3.269531 0.484375 -3.410156 0.640625 -3.546875 L 2.9375 -5.234375 C 3.09375 -5.335938 3.238281 -5.394531 3.375 -5.40625 C 3.539062 -5.40625 3.679688 -5.34375 3.796875 -5.21875 C 4.328125 -4.5625 4.863281 -4.109375 5.40625 -3.859375 C 5.945312 -3.609375 6.65625 -3.5 7.53125 -3.53125 C 8.382812 -3.5625 9.050781 -3.703125 9.53125 -3.953125 C 10.007812 -4.203125 10.242188 -4.53125 10.234375 -4.9375 C 10.222656 -5.226562 10.09375 -5.472656 9.84375 -5.671875 C 9.601562 -5.878906 9.242188 -6.03125 8.765625 -6.125 L 5.28125 -6.828125 C 3.90625 -7.117188 2.800781 -7.707031 1.96875 -8.59375 C 1.132812 -9.476562 0.695312 -10.519531 0.65625 -11.71875 C 0.625 -12.6875 0.882812 -13.59375 1.4375 -14.4375 C 1.988281 -15.28125 2.78125 -15.957031 3.8125 -16.46875 C 4.851562 -16.988281 6.066406 -17.273438 7.453125 -17.328125 C 8.816406 -17.367188 10.085938 -17.1875 11.265625 -16.78125 C 12.441406 -16.375 13.300781 -15.8125 13.84375 -15.09375 C 13.945312 -14.957031 14.003906 -14.828125 14.015625 -14.703125 C 14.015625 -14.597656 13.960938 -14.503906 13.859375 -14.421875 L 11.46875 -12.546875 C 11.394531 -12.484375 11.3125 -12.453125 11.21875 -12.453125 C 11.113281 -12.441406 10.96875 -12.523438 10.78125 -12.703125 Z M 10.78125 -12.703125 "/></g></g></g><g fill="#ffffff" fill-opacity="1"><g transform="translate(201.10528, 350.772686)"><g><path d="M -2.109375 -16.1875 C -2.140625 -16.34375 -2.113281 -16.472656 -2.03125 -16.578125 C -1.945312 -16.691406 -1.816406 -16.765625 -1.640625 -16.796875 L 11.734375 -19.078125 C 11.910156 -19.109375 12.054688 -19.082031 12.171875 -19 C 12.285156 -18.925781 12.359375 -18.8125 12.390625 -18.65625 L 12.84375 -16 C 12.882812 -15.71875 12.742188 -15.550781 12.421875 -15.5 L 8.453125 -14.8125 C 8.265625 -14.78125 8.1875 -14.6875 8.21875 -14.53125 L 10.3125 -2.265625 C 10.332031 -2.097656 10.316406 -1.96875 10.265625 -1.875 C 10.210938 -1.78125 10.117188 -1.722656 9.984375 -1.703125 L 5.734375 -0.96875 C 5.460938 -0.925781 5.300781 -1.054688 5.25 -1.359375 L 3.171875 -13.578125 C 3.128906 -13.796875 3.023438 -13.890625 2.859375 -13.859375 L -1.078125 -13.1875 C -1.421875 -13.132812 -1.613281 -13.25 -1.65625 -13.53125 Z M -2.109375 -16.1875 "/></g></g></g><g fill="#ffffff" fill-opacity="1"><g transform="translate(217.782136, 347.882994)"><g><path d="M 12.796875 -11 C 13.546875 -8.632812 13.476562 -6.757812 12.59375 -5.375 C 11.71875 -4 10.171875 -2.960938 7.953125 -2.265625 C 5.453125 -1.472656 3.488281 -1.488281 2.0625 -2.3125 C 0.632812 -3.132812 -0.445312 -4.71875 -1.1875 -7.0625 L -3.953125 -15.859375 C -4.003906 -16.015625 -4.007812 -16.144531 -3.96875 -16.25 C -3.925781 -16.351562 -3.835938 -16.425781 -3.703125 -16.46875 L 0.40625 -17.765625 C 0.664062 -17.847656 0.84375 -17.738281 0.9375 -17.4375 L 3.890625 -8.109375 C 4.222656 -7.035156 4.671875 -6.320312 5.234375 -5.96875 C 5.796875 -5.625 6.457031 -5.570312 7.21875 -5.8125 C 7.976562 -6.050781 8.515625 -6.484375 8.828125 -7.109375 C 9.140625 -7.734375 9.117188 -8.597656 8.765625 -9.703125 L 5.859375 -18.953125 C 5.753906 -19.273438 5.832031 -19.476562 6.09375 -19.5625 L 9.34375 -20.59375 C 9.601562 -20.675781 9.78125 -20.566406 9.875 -20.265625 Z M 12.796875 -11 "/></g></g></g><g fill="#ffffff" fill-opacity="1"><g transform="translate(234.477326, 342.578335)"><g><path d="M -3.265625 -17.09375 C -1.640625 -17.875 -0.632812 -18.351562 -0.25 -18.53125 C 2.445312 -19.71875 4.800781 -19.96875 6.8125 -19.28125 C 8.820312 -18.601562 10.367188 -17.144531 11.453125 -14.90625 C 12.171875 -13.40625 12.5 -11.9375 12.4375 -10.5 C 12.375 -9.0625 11.890625 -7.722656 10.984375 -6.484375 C 10.085938 -5.253906 8.769531 -4.222656 7.03125 -3.390625 L 1.65625 -0.796875 C 1.445312 -0.703125 1.269531 -0.675781 1.125 -0.71875 C 0.988281 -0.769531 0.867188 -0.910156 0.765625 -1.140625 L -6 -15.171875 C -6.082031 -15.359375 -6.097656 -15.503906 -6.046875 -15.609375 C -6.003906 -15.722656 -5.878906 -15.832031 -5.671875 -15.9375 Z M 0.15625 -14.796875 C 0.0820312 -14.765625 0.0351562 -14.722656 0.015625 -14.671875 C 0.00390625 -14.617188 0.0234375 -14.535156 0.078125 -14.421875 L 4 -6.265625 C 4.0625 -6.148438 4.125 -6.078125 4.1875 -6.046875 C 4.25 -6.023438 4.332031 -6.035156 4.4375 -6.078125 L 4.59375 -6.15625 C 5.9375 -6.800781 6.789062 -7.644531 7.15625 -8.6875 C 7.519531 -9.738281 7.320312 -11.050781 6.5625 -12.625 C 5.90625 -13.988281 5.148438 -14.875 4.296875 -15.28125 C 3.441406 -15.6875 2.484375 -15.695312 1.421875 -15.3125 Z M 0.15625 -14.796875 "/></g></g></g><g fill="#ffffff" fill-opacity="1"><g transform="translate(250.746315, 334.409927)"><g><path d="M -3.828125 -17.421875 C -3.597656 -17.566406 -3.398438 -17.503906 -3.234375 -17.234375 L 5.03125 -3.890625 C 5.15625 -3.679688 5.191406 -3.503906 5.140625 -3.359375 C 5.097656 -3.210938 4.96875 -3.070312 4.75 -2.9375 L 1.53125 -0.953125 C 1.332031 -0.828125 1.171875 -0.773438 1.046875 -0.796875 C 0.929688 -0.828125 0.820312 -0.929688 0.71875 -1.109375 L -7.5625 -14.5 C -7.65625 -14.632812 -7.691406 -14.757812 -7.671875 -14.875 C -7.660156 -14.988281 -7.597656 -15.082031 -7.484375 -15.15625 Z M -3.828125 -17.421875 "/></g></g></g><g fill="#ffffff" fill-opacity="1"><g transform="translate(257.8889, 330.261083)"><g><path d="M 7.15625 -5.25 C 5.84375 -4.238281 4.484375 -3.632812 3.078125 -3.4375 C 1.679688 -3.25 0.328125 -3.457031 -0.984375 -4.0625 C -2.304688 -4.675781 -3.503906 -5.671875 -4.578125 -7.046875 C -5.640625 -8.421875 -6.304688 -9.828125 -6.578125 -11.265625 C -6.859375 -12.710938 -6.726562 -14.097656 -6.1875 -15.421875 C -5.65625 -16.742188 -4.742188 -17.90625 -3.453125 -18.90625 C -2.179688 -19.90625 -0.84375 -20.492188 0.5625 -20.671875 C 1.976562 -20.859375 3.351562 -20.640625 4.6875 -20.015625 C 6.019531 -19.398438 7.21875 -18.40625 8.28125 -17.03125 C 9.34375 -15.664062 10.007812 -14.269531 10.28125 -12.84375 C 10.550781 -11.414062 10.421875 -10.046875 9.890625 -8.734375 C 9.359375 -7.421875 8.445312 -6.257812 7.15625 -5.25 Z M 4.984375 -8.046875 C 5.503906 -8.460938 5.816406 -8.914062 5.921875 -9.40625 C 6.035156 -9.90625 5.941406 -10.5 5.640625 -11.1875 C 5.335938 -11.875 4.8125 -12.695312 4.0625 -13.65625 C 2.914062 -15.132812 1.921875 -16.066406 1.078125 -16.453125 C 0.242188 -16.847656 -0.550781 -16.742188 -1.3125 -16.140625 C -2.09375 -15.535156 -2.398438 -14.78125 -2.234375 -13.875 C -2.066406 -12.96875 -1.410156 -11.773438 -0.265625 -10.296875 C 0.484375 -9.335938 1.148438 -8.625 1.734375 -8.15625 C 2.328125 -7.6875 2.878906 -7.445312 3.390625 -7.4375 C 3.898438 -7.425781 4.429688 -7.628906 4.984375 -8.046875 Z M 4.984375 -8.046875 "/></g></g></g><path fill="#ffffff" d="M 61.347656 166.097656 L 166.707031 166.097656 L 166.707031 172.59375 L 61.347656 172.59375 Z M 211.871094 166.097656 L 315.679688 166.097656 L 315.679688 172.59375 L 211.871094 172.59375 L 211.871094 166.097656 " fill-opacity="1" fill-rule="nonzero"/><g clip-path="url(#740715c4a5)"><path fill="#ffffff" d="M 211.914062 182.75 L 353.101562 182.75 L 353.101562 186 C 353.101562 188.101562 353.964844 190.015625 355.351562 191.40625 C 356.738281 192.800781 358.652344 193.664062 360.753906 193.664062 L 364 193.664062 L 364 278.5 L 360.753906 278.5 C 358.652344 278.5 356.738281 279.363281 355.351562 280.75 C 353.964844 282.140625 353.101562 284.054688 353.101562 286.160156 L 353.101562 289.410156 L 319.175781 289.410156 C 305.675781 311.957031 286.566406 330.765625 263.777344 343.886719 C 241.246094 356.863281 215.140625 364.28125 187.320312 364.28125 C 159.507812 364.28125 133.398438 356.863281 110.867188 343.886719 C 88.078125 330.765625 68.96875 311.957031 55.46875 289.410156 L 21.542969 289.410156 L 21.542969 286.160156 C 21.542969 284.054688 20.683594 282.140625 19.292969 280.75 C 17.902344 279.363281 15.996094 278.5 13.894531 278.5 L 10.648438 278.5 L 10.648438 193.664062 L 13.894531 193.664062 C 15.996094 193.664062 17.902344 192.800781 19.292969 191.40625 C 20.683594 190.015625 21.542969 188.101562 21.542969 186 L 21.542969 182.75 L 166.386719 182.75 L 166.386719 189.246094 L 27.65625 189.246094 C 27.042969 191.84375 25.707031 194.171875 23.878906 196 C 22.054688 197.832031 19.726562 199.167969 17.136719 199.78125 L 17.136719 272.375 C 19.726562 272.992188 22.054688 274.328125 23.878906 276.15625 C 25.707031 277.984375 27.042969 280.3125 27.65625 282.910156 L 346.992188 282.910156 C 347.609375 280.3125 348.941406 277.984375 350.765625 276.15625 C 352.589844 274.328125 354.914062 272.992188 357.507812 272.375 L 357.507812 199.78125 C 354.914062 199.167969 352.589844 197.832031 350.765625 196 C 348.941406 194.171875 347.609375 191.84375 346.992188 189.246094 L 211.914062 189.246094 Z M 311.574219 289.410156 L 63.074219 289.410156 C 75.863281 309.542969 93.390625 326.363281 114.085938 338.277344 C 135.636719 350.6875 160.640625 357.785156 187.320312 357.785156 C 214.007812 357.785156 239.011719 350.6875 260.5625 338.277344 C 281.253906 326.363281 298.777344 309.542969 311.574219 289.410156 " fill-opacity="1" fill-rule="nonzero"/></g><path fill="#ffffff" d="M 186.503906 165.53125 L 182.878906 165.53125 L 182.855469 163.644531 L 186.496094 163.644531 L 186.503906 165.53125 " fill-opacity="1" fill-rule="nonzero"/><path fill="#ffffff" d="M 187.066406 163.644531 L 191.183594 163.644531 L 190.832031 137.402344 L 186.9375 137.402344 L 187.066406 163.644531 " fill-opacity="1" fill-rule="nonzero"/><path fill="#ffffff" d="M 191.753906 163.644531 L 196.019531 163.644531 L 195.601562 137.402344 L 191.398438 137.402344 L 191.753906 163.644531 " fill-opacity="1" fill-rule="nonzero"/><path fill="#ffffff" d="M 178.117188 163.644531 L 182.285156 163.644531 L 181.988281 137.402344 L 178.117188 137.402344 L 178.117188 163.644531 " fill-opacity="1" fill-rule="nonzero"/><path fill="#ffffff" d="M 196.589844 163.644531 L 199.914062 163.644531 L 199.480469 137.402344 L 196.171875 137.402344 L 196.589844 163.644531 " fill-opacity="1" fill-rule="nonzero"/><path fill="#ffffff" d="M 186.496094 163.644531 L 182.855469 163.644531 L 182.558594 137.402344 L 186.367188 137.402344 L 186.496094 163.644531 " fill-opacity="1" fill-rule="nonzero"/><path fill="#ffffff" d="M 202.449219 137.402344 L 200.050781 137.402344 L 200.484375 163.644531 L 202.363281 163.644531 L 202.371094 165.53125 L 200.515625 165.53125 L 200.894531 188.503906 L 200.597656 188.507812 L 202.429688 188.507812 L 202.363281 163.316406 L 202.449219 137.378906 L 202.449219 137.402344 " fill-opacity="1" fill-rule="nonzero"/><path fill="#ffffff" d="M 178.117188 165.53125 L 178.117188 188.507812 L 182.566406 188.507812 L 182.308594 165.53125 L 178.117188 165.53125 " fill-opacity="1" fill-rule="nonzero"/><path fill="#ffffff" d="M 196.617188 165.53125 L 196.980469 188.503906 L 196.6875 188.507812 L 200.324219 188.507812 L 199.945312 165.53125 L 196.617188 165.53125 " fill-opacity="1" fill-rule="nonzero"/><path fill="#ffffff" d="M 187.078125 165.53125 L 187.1875 188.507812 L 186.832031 188.507812 L 191.519531 188.507812 L 191.210938 165.53125 L 187.078125 165.53125 " fill-opacity="1" fill-rule="nonzero"/><path fill="#ffffff" d="M 191.78125 165.53125 L 192.085938 188.507812 L 191.746094 188.507812 L 196.410156 188.507812 L 196.046875 165.53125 L 191.78125 165.53125 " fill-opacity="1" fill-rule="nonzero"/><path fill="#ffffff" d="M 182.765625 188.507812 L 183.136719 188.507812 L 182.878906 165.53125 L 186.503906 165.53125 L 186.621094 188.507812 L 182.765625 188.507812 " fill-opacity="1" fill-rule="nonzero"/><path fill="#ffffff" d="M 176.273438 165.53125 L 175.835938 188.507812 L 177.546875 188.507812 L 177.546875 165.53125 L 176.273438 165.53125 " fill-opacity="1" fill-rule="nonzero"/><path fill="#ffffff" d="M 213.507812 53.71875 C 216.785156 45.765625 226.578125 46.078125 227.246094 33.484375 C 227.65625 25.734375 223.75 17.3125 216.445312 14.636719 C 206.601562 11.03125 196.339844 16.148438 192.347656 25.683594 C 191.824219 26.941406 191.28125 28.40625 190.785156 29.792969 L 186.730469 28.175781 C 187.300781 25.585938 186.554688 23.207031 184.863281 22.617188 C 182.960938 21.953125 180.582031 23.808594 179.554688 26.769531 C 178.527344 29.722656 179.238281 32.660156 181.140625 33.324219 C 182.847656 33.917969 184.933594 32.488281 186.085938 30.054688 L 190.136719 31.664062 C 188.699219 35.894531 187.574219 40.140625 186.371094 44.441406 L 182.011719 42.707031 C 182.582031 40.113281 181.835938 37.738281 180.148438 37.144531 C 178.246094 36.480469 175.867188 38.339844 174.839844 41.296875 C 173.808594 44.25 174.519531 47.1875 176.421875 47.855469 C 178.125 48.445312 180.214844 47.015625 181.371094 44.582031 L 185.832031 46.359375 L 182.144531 59.511719 L 177.914062 57.832031 C 178.484375 55.242188 177.738281 52.863281 176.046875 52.273438 C 174.144531 51.609375 171.765625 53.464844 170.742188 56.425781 C 169.710938 59.378906 170.421875 62.316406 172.324219 62.980469 C 174.027344 63.574219 176.117188 62.144531 177.269531 59.710938 L 181.605469 61.433594 L 178.082031 73.996094 L 173.679688 72.246094 C 174.25 69.652344 173.503906 67.273438 171.816406 66.683594 C 169.914062 66.015625 167.535156 67.878906 166.507812 70.832031 C 165.480469 73.792969 166.183594 76.722656 168.089844 77.386719 C 169.792969 77.984375 171.882812 76.550781 173.039062 74.121094 L 177.542969 75.914062 L 173.925781 88.800781 L 169.601562 87.082031 C 170.171875 84.488281 169.425781 82.109375 167.738281 81.519531 C 165.835938 80.855469 163.457031 82.714844 162.429688 85.671875 C 161.402344 88.625 162.105469 91.5625 164.007812 92.226562 C 165.714844 92.820312 167.800781 91.390625 168.960938 88.957031 L 173.394531 90.71875 L 169.578125 104.320312 L 165.171875 102.566406 C 165.742188 99.976562 164.996094 97.597656 163.304688 97.007812 C 161.402344 96.34375 159.027344 98.199219 157.996094 101.152344 C 156.96875 104.113281 157.675781 107.050781 159.582031 107.714844 C 161.285156 108.308594 163.375 106.878906 164.527344 104.445312 L 169.039062 106.238281 L 166.070312 116.832031 C 164.273438 123.226562 164.488281 124.851562 170.917969 128.054688 C 174.808594 129.996094 175.96875 132.070312 176.304688 135.117188 L 177.546875 135.117188 L 177.546875 111.738281 C 176.96875 112.460938 176.089844 112.921875 175.097656 112.921875 C 173.371094 112.921875 171.96875 111.519531 171.96875 109.785156 C 171.96875 108.054688 173.371094 106.652344 175.097656 106.652344 C 176.828125 106.652344 178.226562 108.054688 178.226562 109.785156 C 178.226562 110.074219 178.1875 110.351562 178.117188 110.617188 L 178.117188 135.117188 L 181.964844 135.117188 L 181.535156 97.175781 C 180.96875 97.980469 180.03125 98.511719 178.96875 98.511719 C 177.242188 98.511719 175.839844 97.109375 175.839844 95.378906 C 175.839844 93.648438 177.242188 92.242188 178.96875 92.242188 C 180.699219 92.242188 182.097656 93.648438 182.097656 95.378906 C 182.097656 95.464844 182.09375 95.554688 182.089844 95.636719 L 182.53125 135.117188 L 186.359375 135.117188 L 186.09375 81.992188 C 185.523438 82.769531 184.601562 83.277344 183.566406 83.277344 C 181.835938 83.277344 180.433594 81.875 180.433594 80.144531 C 180.433594 78.414062 181.835938 77.007812 183.566406 77.007812 C 185.292969 77.007812 186.695312 78.414062 186.695312 80.144531 C 186.695312 80.308594 186.679688 80.46875 186.65625 80.625 L 186.925781 135.117188 L 190.800781 135.117188 L 189.886719 67.296875 C 189.324219 68.121094 188.375 68.664062 187.300781 68.664062 C 185.574219 68.664062 184.171875 67.257812 184.171875 65.527344 C 184.171875 63.796875 185.574219 62.394531 187.300781 62.394531 C 188.855469 62.394531 190.144531 63.527344 190.390625 65.019531 L 190.425781 65.019531 L 191.371094 135.117188 L 195.566406 135.117188 L 194.25 51.964844 C 193.6875 52.78125 192.746094 53.3125 191.679688 53.3125 C 189.953125 53.3125 188.550781 51.910156 188.550781 50.179688 C 188.550781 48.445312 189.953125 47.042969 191.679688 47.042969 C 193.410156 47.042969 194.8125 48.445312 194.8125 50.179688 C 194.8125 50.285156 194.804688 50.386719 194.796875 50.488281 L 196.136719 135.117188 L 199.441406 135.117188 L 197.828125 37.449219 C 197.261719 38.273438 196.324219 38.808594 195.253906 38.808594 C 193.523438 38.808594 192.125 37.402344 192.125 35.671875 C 192.125 33.941406 193.523438 32.539062 195.253906 32.539062 C 196.980469 32.539062 198.382812 33.941406 198.382812 35.671875 C 198.382812 35.742188 198.378906 35.816406 198.375 35.878906 L 200.015625 135.117188 L 202.457031 135.117188 L 202.46875 129.730469 C 204.285156 114.09375 218.457031 112.109375 228.457031 110.457031 C 229.183594 89.207031 208.347656 66.253906 213.507812 53.71875 " fill-opacity="1" fill-rule="nonzero"/><path fill="#ffffff" d="M 177.546875 137.402344 L 176.429688 137.402344 C 176.441406 137.90625 176.441406 138.433594 176.441406 138.980469 L 176.351562 161.511719 L 176.308594 163.644531 L 177.546875 163.644531 L 177.546875 137.402344 " fill-opacity="1" fill-rule="nonzero"/><path fill="#ffffff" d="M 244.175781 306.015625 C 236.785156 313.042969 228.101562 318.710938 218.523438 322.628906 C 208.890625 326.570312 198.359375 328.738281 187.320312 328.738281 C 176.289062 328.738281 165.757812 326.570312 156.125 322.628906 C 146.546875 318.710938 137.863281 313.042969 130.46875 306.015625 L 27.21875 306.015625 L 27.21875 299.515625 L 163.875 299.515625 L 163.875 306.015625 L 140.355469 306.015625 C 145.859375 310.34375 151.976562 313.925781 158.558594 316.613281 C 167.425781 320.242188 177.140625 322.246094 187.320312 322.246094 C 197.507812 322.246094 207.222656 320.242188 216.089844 316.613281 C 222.667969 313.925781 228.789062 310.34375 234.289062 306.015625 L 210.769531 306.015625 L 210.769531 299.515625 L 347.429688 299.515625 L 347.429688 306.015625 L 244.175781 306.015625 " fill-opacity="1" fill-rule="nonzero"/><path fill="#ffffff" d="M 187.3125 291.078125 L 191.488281 300.355469 L 201.589844 301.46875 L 194.074219 308.316406 L 196.136719 318.285156 L 187.3125 313.234375 L 178.484375 318.285156 L 180.550781 308.316406 L 173.035156 301.46875 L 183.132812 300.355469 L 187.3125 291.078125 " fill-opacity="1" fill-rule="evenodd"/></svg>