<svg version="1.1" id="Layer_1" xmlns="http://www.w3.org/2000/svg" xmlns:xlink="http://www.w3.org/1999/xlink" x="0px" y="0px"
	 width="100%" viewBox="0 0 500 470" enable-background="new 0 0 500 470" xml:space="preserve">
<path fill="#52F271" opacity="1.000000" stroke="none" 
	d="
M1.000002,398.000000 
	C1.000000,289.311310 1.000000,180.622650 1.324867,71.746231 
	C2.023997,70.833954 2.561441,70.149185 2.749079,69.379173 
	C11.475507,33.568680 33.693428,11.330740 69.584816,2.765245 
	C70.479355,2.551762 71.198860,1.604847 72.000000,0.999999 
	C191.022018,1.000000 310.044037,1.000000 429.293213,1.341508 
	C433.966248,2.962356 438.511322,3.971858 442.841919,5.564482 
	C472.676056,16.536285 491.474304,37.441395 499.073517,68.374451 
	C499.312836,69.348602 500.340088,70.129181 501.000000,71.000000 
	C501.000000,179.355347 501.000000,287.710693 500.662231,396.282227 
	C499.985901,397.247375 499.481079,397.964874 499.332672,398.749756 
	C492.192474,436.515320 458.862732,468.148254 411.852478,468.060425 
	C304.549255,467.859985 197.245392,468.024750 89.941887,467.928741 
	C83.479675,467.922943 76.847435,467.688477 70.584877,466.273987 
	C35.000233,458.236725 12.396893,436.489227 3.017039,401.120575 
	C2.715126,399.982147 1.688693,399.035858 1.000002,398.000000 
M320.170715,70.377747 
	C299.304108,61.398624 277.603790,56.389240 254.811005,55.888966 
	C182.451782,54.300747 116.773087,97.693413 91.390274,165.376465 
	C71.336845,218.848770 76.931465,270.259064 107.032570,318.951691 
	C108.096779,320.673157 108.099556,323.706207 107.430038,325.744720 
	C98.710518,352.293335 89.757782,378.765289 80.918091,405.274628 
	C78.766792,411.726105 81.283646,414.598419 87.888321,413.263885 
	C123.766869,406.014313 159.619446,398.633942 195.532700,391.561401 
	C199.751633,390.730499 204.487335,390.682495 208.644211,391.682220 
	C232.286667,397.368256 255.952606,398.481140 279.981262,394.273193 
	C356.606659,380.854279 414.081421,318.314484 420.807709,240.710052 
	C427.052582,168.659531 387.166748,100.842537 320.170715,70.377747 
z"/>
<path fill="#000101" opacity="1.000000" stroke="none" 
	d="
M1.000002,398.468658 
	C1.688693,399.035858 2.715126,399.982147 3.017039,401.120575 
	C12.396893,436.489227 35.000233,458.236725 70.584877,466.273987 
	C76.847435,467.688477 83.479675,467.922943 89.941887,467.928741 
	C197.245392,468.024750 304.549255,467.859985 411.852478,468.060425 
	C458.862732,468.148254 492.192474,436.515320 499.332672,398.749756 
	C499.481079,397.964874 499.985901,397.247375 500.662231,396.749207 
	C501.000000,421.649963 501.000000,446.299957 501.000000,470.947144 
	C334.333313,470.944397 167.666656,470.944397 1.000000,470.944397 
	C1.000000,446.904938 1.000000,422.921143 1.000002,398.468658 
z"/>
<path fill="#010201" opacity="1.000000" stroke="none" 
	d="
M501.000000,70.531342 
	C500.340088,70.129181 499.312836,69.348602 499.073517,68.374451 
	C491.474304,37.441395 472.676056,16.536285 442.841919,5.564482 
	C438.511322,3.971858 433.966248,2.962356 429.760193,1.341508 
	C453.593018,1.000000 477.186005,1.000000 501.000000,1.000000 
	C501.000000,24.020424 501.000000,47.041553 501.000000,70.531342 
z"/>
<path fill="#010201" opacity="1.000000" stroke="none" 
	d="
M71.531342,0.999999 
	C71.198860,1.604847 70.479355,2.551762 69.584816,2.765245 
	C33.693428,11.330740 11.475507,33.568680 2.749079,69.379173 
	C2.561441,70.149185 2.023997,70.833954 1.324867,71.279243 
	C1.000000,47.739292 1.000000,24.478586 1.000000,1.000000 
	C24.353777,1.000000 47.708229,1.000000 71.531342,0.999999 
z"/>
<path fill="#FBFFFB" opacity="1.000000" stroke="none" 
	d="
M320.504517,70.555962 
	C387.166748,100.842537 427.052582,168.659531 420.807709,240.710052 
	C414.081421,318.314484 356.606659,380.854279 279.981262,394.273193 
	C255.952606,398.481140 232.286667,397.368256 208.644211,391.682220 
	C204.487335,390.682495 199.751633,390.730499 195.532700,391.561401 
	C159.619446,398.633942 123.766869,406.014313 87.888321,413.263885 
	C81.283646,414.598419 78.766792,411.726105 80.918091,405.274628 
	C89.757782,378.765289 98.710518,352.293335 107.430038,325.744720 
	C108.099556,323.706207 108.096779,320.673157 107.032570,318.951691 
	C76.931465,270.259064 71.336845,218.848770 91.390274,165.376465 
	C116.773087,97.693413 182.451782,54.300747 254.811005,55.888966 
	C277.603790,56.389240 299.304108,61.398624 320.504517,70.555962 
M346.395172,96.058815 
	C270.598358,40.891758 167.764862,61.520691 117.566628,135.300308 
	C80.373039,189.966125 80.102692,261.271362 117.045578,315.758972 
	C119.184296,318.913361 119.214630,321.711182 118.062080,325.104462 
	C110.091606,348.570892 102.225792,372.072906 94.348099,395.570770 
	C93.692215,397.527130 93.196457,399.537140 92.466423,402.078918 
	C94.493553,401.804535 95.786842,401.703583 97.048759,401.447845 
	C130.314102,394.707214 163.556717,387.851044 196.864166,381.325867 
	C200.912231,380.532806 205.361450,381.129456 209.529465,381.736420 
	C219.886246,383.244629 230.133026,386.114868 240.521317,386.694763 
	C284.749634,389.163666 324.071899,376.205170 357.393524,346.787384 
	C390.226349,317.801117 409.227173,281.204834 411.694794,237.464203 
	C414.965607,179.485382 392.837097,132.325241 346.395172,96.058815 
z"/>
<path fill="#52F271" opacity="1.000000" stroke="none" 
	d="
M346.686890,96.267395 
	C392.837097,132.325241 414.965607,179.485382 411.694794,237.464203 
	C409.227173,281.204834 390.226349,317.801117 357.393524,346.787384 
	C324.071899,376.205170 284.749634,389.163666 240.521317,386.694763 
	C230.133026,386.114868 219.886246,383.244629 209.529465,381.736420 
	C205.361450,381.129456 200.912231,380.532806 196.864166,381.325867 
	C163.556717,387.851044 130.314102,394.707214 97.048759,401.447845 
	C95.786842,401.703583 94.493553,401.804535 92.466423,402.078918 
	C93.196457,399.537140 93.692215,397.527130 94.348099,395.570770 
	C102.225792,372.072906 110.091606,348.570892 118.062080,325.104462 
	C119.214630,321.711182 119.184296,318.913361 117.045578,315.758972 
	C80.102692,261.271362 80.373039,189.966125 117.566628,135.300308 
	C167.764862,61.520691 270.598358,40.891758 346.686890,96.267395 
M323.414062,314.927124 
	C324.271179,314.414062 325.131500,313.906281 325.984924,313.387115 
	C339.688538,305.050201 340.919128,289.840576 328.719604,279.301910 
	C324.054047,275.271484 319.323212,271.316742 314.638763,267.308105 
	C302.521698,256.939056 294.784180,256.825439 282.450104,266.855896 
	C273.109985,274.451660 263.319031,275.163940 252.857605,269.011505 
	C241.662155,262.427338 231.633423,254.289963 224.352554,243.582214 
	C219.669678,236.695267 215.407593,228.946396 213.396652,220.968826 
	C211.050522,211.661606 215.922806,203.740723 222.851944,197.040787 
	C230.855881,189.301590 232.170319,179.304276 226.361465,170.758377 
	C221.408325,163.471420 216.033813,156.407349 210.244995,149.768463 
	C203.420273,141.941589 192.758286,141.910843 185.536896,149.420578 
	C169.150208,166.461548 162.331955,186.775604 165.581696,210.271698 
	C168.103210,228.502777 175.937668,244.622299 186.180695,259.603546 
	C201.659592,282.242615 219.310638,302.738312 244.667831,314.931427 
	C270.597717,327.399872 296.669861,329.485291 323.414062,314.927124 
z"/>
<path fill="#FEFFFE" opacity="1.000000" stroke="none" 
	d="
M323.088531,315.098450 
	C296.669861,329.485291 270.597717,327.399872 244.667831,314.931427 
	C219.310638,302.738312 201.659592,282.242615 186.180695,259.603546 
	C175.937668,244.622299 168.103210,228.502777 165.581696,210.271698 
	C162.331955,186.775604 169.150208,166.461548 185.536896,149.420578 
	C192.758286,141.910843 203.420273,141.941589 210.244995,149.768463 
	C216.033813,156.407349 221.408325,163.471420 226.361465,170.758377 
	C232.170319,179.304276 230.855881,189.301590 222.851944,197.040787 
	C215.922806,203.740723 211.050522,211.661606 213.396652,220.968826 
	C215.407593,228.946396 219.669678,236.695267 224.352554,243.582214 
	C231.633423,254.289963 241.662155,262.427338 252.857605,269.011505 
	C263.319031,275.163940 273.109985,274.451660 282.450104,266.855896 
	C294.784180,256.825439 302.521698,256.939056 314.638763,267.308105 
	C319.323212,271.316742 324.054047,275.271484 328.719604,279.301910 
	C340.919128,289.840576 339.688538,305.050201 325.984924,313.387115 
	C325.131500,313.906281 324.271179,314.414062 323.088531,315.098450 
z"/>
</svg>